<?xml version="1.0" standalone="no"?>
<!DOCTYPE svg PUBLIC "-//W3C//DTD SVG 20010904//EN"
 "http://www.w3.org/TR/2001/REC-SVG-20010904/DTD/svg10.dtd">
<svg version="1.0" xmlns="http://www.w3.org/2000/svg"
 width="600.000000pt" height="386.000000pt" viewBox="0 0 600.000000 386.000000"
 preserveAspectRatio="xMidYMid meet">
<g transform="translate(0.000000,386.000000) scale(0.100000,-0.100000)"
fill="#000000" stroke="none">
<path d="M25 2040 c0 -1004 1 -1414 2 -913 2 502 2 1324 0 1825 -1 502 -2 92
-2 -912z"/>
<path d="M1857 3840 c-33 -26 -61 -99 -55 -144 3 -29 1 -36 -13 -36 -10 0 -21
-9 -24 -20 -8 -26 21 -116 43 -132 37 -28 59 -170 32 -203 -19 -22 -123 -78
-205 -110 -98 -38 -131 -78 -179 -215 -29 -82 -33 -142 -12 -182 12 -23 13
-32 1 -55 -7 -16 -17 -82 -20 -148 -7 -102 -11 -124 -30 -150 -28 -37 -75
-227 -68 -275 3 -20 -5 -75 -16 -124 -12 -48 -21 -95 -21 -104 -1 -9 -15 -26
-33 -37 -31 -20 -32 -22 -35 -102 l-3 -82 28 -7 c16 -4 34 -11 40 -16 7 -6 21
-7 30 -3 10 4 32 8 50 10 33 2 63 20 63 37 0 5 7 16 16 25 12 12 14 25 8 57
-12 65 -5 125 23 206 14 41 30 80 35 86 4 6 3 25 -3 43 -6 18 -9 35 -5 38 3 4
6 -2 7 -13 0 -11 7 -2 15 20 7 21 11 43 7 49 -4 6 -1 7 7 2 7 -5 -3 14 -24 40
-26 34 -35 56 -32 71 3 11 2 24 -2 28 -4 4 -15 35 -24 69 -15 51 -17 55 -14
22 2 -22 7 -48 11 -57 4 -10 3 -18 -2 -18 -19 0 -28 46 -22 115 3 39 6 55 7
36 3 -46 8 -37 15 23 3 30 1 43 -4 35 -6 -9 -9 -10 -9 -2 0 6 4 14 8 17 5 3
14 31 21 62 16 70 38 124 51 124 7 0 7 -8 -1 -21 -6 -12 -17 -56 -24 -98 -7
-42 -19 -102 -26 -133 -12 -51 -11 -59 4 -76 9 -10 17 -30 17 -43 0 -35 25
-68 40 -53 18 18 29 82 20 113 -5 20 -2 46 12 86 22 67 39 188 27 193 -5 2 -9
15 -9 30 0 20 3 23 11 15 16 -16 26 -168 11 -159 -8 5 -12 -11 -11 -56 1 -35
-5 -83 -11 -108 -7 -25 -14 -90 -15 -145 -3 -117 -7 -141 -30 -184 -9 -18 -14
-35 -11 -38 3 -4 16 16 28 43 23 51 39 193 27 238 -4 14 1 47 12 77 10 30 18
77 19 106 0 28 4 54 9 57 14 9 42 -67 50 -134 10 -80 -6 -341 -24 -400 -7 -25
-18 -74 -25 -110 -6 -36 -16 -87 -21 -113 -14 -74 -11 -297 6 -403 9 -52 31
-157 50 -232 46 -181 54 -285 30 -408 -20 -97 -18 -129 14 -259 9 -36 53 -272
65 -353 4 -20 2 -31 -4 -27 -6 3 -7 -1 -4 -10 9 -23 -23 -78 -57 -98 -34 -19
-35 -27 -11 -56 11 -13 33 -23 62 -26 25 -3 59 -7 75 -10 18 -3 44 3 65 13 34
17 35 19 33 70 -1 29 -7 60 -12 69 -5 10 -5 25 1 38 7 17 5 30 -11 56 -30 48
-29 55 19 292 4 20 6 37 3 37 -2 0 3 13 12 30 21 41 19 131 -7 228 l-21 84 24
71 c22 67 24 85 21 247 -1 96 3 211 9 255 6 44 16 145 22 225 7 82 16 145 22
145 6 0 13 -45 17 -100 4 -55 13 -143 21 -195 10 -73 11 -129 3 -245 -10 -153
-2 -260 26 -352 10 -35 10 -56 -2 -115 -19 -100 -24 -205 -12 -248 46 -156 63
-341 36 -371 -9 -10 -14 -24 -12 -31 3 -7 1 -47 -3 -87 -9 -83 -6 -92 47 -117
42 -20 161 -17 187 4 27 23 21 43 -29 93 l-47 47 2 81 c1 44 8 102 15 128 8
26 19 84 26 128 6 44 19 103 28 130 20 63 20 195 -1 251 -22 60 -8 209 32 344
51 167 73 321 74 510 1 176 -12 280 -45 370 -23 62 -33 184 -32 360 1 98 4
121 23 158 12 23 26 40 32 37 5 -4 7 -10 4 -15 -3 -4 3 -52 14 -107 12 -62 17
-119 14 -157 -8 -85 11 -155 79 -296 67 -138 76 -172 59 -223 -15 -43 -1 -110
29 -142 23 -25 107 -42 124 -25 5 5 20 10 33 10 33 0 44 31 41 113 -3 71 -3
72 -38 89 -19 10 -38 27 -42 39 -5 12 -13 76 -19 143 -18 216 -27 266 -65 341
-19 39 -33 80 -32 90 5 33 -12 147 -28 198 -14 43 -14 51 0 88 22 53 20 75 -9
153 -49 130 -82 185 -123 203 -123 54 -240 113 -261 129 -18 16 -23 30 -24 70
0 27 5 59 11 71 7 12 12 31 12 42 0 12 4 21 8 21 13 0 40 52 47 92 8 41 -1 78
-18 78 -7 0 -13 19 -13 49 -2 67 -45 141 -82 141 -9 0 -4 -9 13 -22 36 -28 55
-76 55 -138 0 -43 3 -50 18 -48 26 5 27 -42 1 -96 -11 -25 -25 -44 -29 -41 -4
3 -11 -12 -15 -32 -30 -161 -194 -205 -276 -74 -16 25 -29 53 -29 63 0 9 -8
25 -19 35 -28 27 -51 78 -51 113 0 32 8 38 27 19 9 -9 11 5 11 52 -1 72 16
115 58 148 15 12 22 21 17 21 -6 0 -22 -9 -36 -20z m43 -487 c0 -15 40 -97 44
-91 2 1 6 17 10 33 4 20 3 25 -3 16 -11 -17 -27 -8 -34 19 -5 18 -4 19 24 4
32 -16 34 -21 19 -59 -7 -20 -5 -40 9 -81 12 -36 20 -50 24 -39 4 8 -1 30 -9
48 -13 26 -14 43 -6 78 l10 44 2 -65 c2 -68 4 -66 16 15 5 39 8 46 15 30 4
-11 7 -42 7 -70 l-1 -50 -7 40 -7 40 -2 -52 c0 -28 3 -54 8 -57 10 -7 32 74
24 87 -3 6 -2 7 4 4 6 -4 18 13 28 36 9 23 24 57 33 76 15 31 17 32 20 13 2
-12 -2 -39 -8 -60 -15 -47 -83 -191 -91 -192 -3 0 -11 10 -17 23 l-11 22 0
-22 c-2 -41 -29 -24 -56 35 -69 146 -94 230 -60 202 8 -7 15 -19 15 -27z m176
-49 c-5 -14 -9 -14 -23 -3 -15 13 -15 12 -4 -9 7 -13 10 -26 7 -29 -3 -3 -10
7 -16 22 -6 15 -9 28 -8 29 2 0 12 6 23 12 22 12 31 3 21 -22z m-184 -36 c28
-74 34 -118 17 -118 -29 0 -36 17 -38 80 -1 36 -4 74 -7 85 -13 40 10 4 28
-47z m244 -23 l-7 -75 23 9 c14 5 22 16 21 27 -1 18 -1 18 12 0 8 -10 16 -23
17 -27 2 -5 30 -5 63 1 l60 9 -53 -3 c-50 -3 -53 -2 -73 30 -11 19 -25 33 -31
31 -6 -1 -12 11 -15 27 l-4 30 25 -25 c13 -13 61 -40 106 -59 l81 -35 -43 -12
c-24 -6 -34 -11 -22 -12 11 -1 36 -17 55 -37 l34 -36 -50 26 c-27 14 -57 31
-66 38 -34 24 -236 -44 -246 -82 -7 -27 -27 -25 -43 4 -11 21 -73 56 -142 79
-10 4 -18 11 -18 17 0 6 -4 8 -10 5 -6 -3 -7 1 -4 10 5 12 10 13 20 4 8 -6 12
-15 9 -19 -2 -4 14 -13 36 -19 23 -7 47 -15 54 -18 10 -3 12 2 8 18 -5 16 -3
20 6 14 7 -4 11 -16 8 -26 -4 -14 3 -21 28 -29 39 -13 88 1 79 24 -3 8 0 17 7
22 9 5 10 2 6 -9 -4 -11 -1 -17 7 -17 25 0 116 33 116 42 0 4 -16 1 -36 -7
-74 -31 -90 -15 -55 53 10 20 22 52 26 70 12 57 18 34 11 -43z m-280 11 c0
-25 -3 -43 -7 -40 -4 2 -10 0 -14 -6 -3 -5 0 -10 8 -10 7 0 14 -7 14 -16 0
-12 -4 -11 -20 5 -18 17 -18 22 -7 36 13 16 23 45 15 45 -2 0 -16 -21 -31 -46
l-27 -46 -54 5 c-29 3 -55 1 -58 -4 -3 -5 2 -6 11 -2 11 4 15 3 10 -5 -4 -6
-21 -8 -43 -5 -26 4 -34 3 -29 -5 4 -7 14 -12 23 -12 11 0 7 -8 -13 -28 -41
-40 -105 -119 -129 -156 -11 -17 -23 -32 -27 -34 -13 -6 -9 -55 6 -81 12 -21
12 -31 -1 -65 -8 -23 -20 -63 -28 -91 -10 -36 -14 -43 -14 -23 -1 15 6 45 15
67 14 36 14 42 0 70 -9 16 -16 40 -16 53 0 33 20 99 28 94 4 -2 8 11 10 30 1
19 11 52 22 72 37 70 71 98 158 133 62 24 197 98 197 108 0 1 0 -19 1 -43z
m304 -36 c0 -5 -4 -10 -10 -10 -5 0 -10 5 -10 10 0 6 5 10 10 10 6 0 10 -4 10
-10z m277 -64 c13 -12 -4 -15 -42 -6 -56 13 -55 6 2 -13 33 -11 50 -13 54 -5
4 6 19 -12 34 -42 43 -85 56 -130 49 -168 l-7 -35 -16 42 c-16 42 -84 132
-148 197 -22 22 -29 34 -20 38 14 6 86 0 94 -8z m-657 -3 c0 -10 -139 -163
-202 -223 -37 -36 -68 -72 -68 -80 -1 -8 -8 -2 -16 13 -14 26 -13 31 12 77 33
61 86 116 139 142 51 26 97 59 92 65 -3 2 -30 -12 -60 -31 -58 -37 -73 -43
-62 -25 20 31 88 68 126 67 21 0 39 -2 39 -5z m94 -23 c30 -12 66 -30 80 -41
25 -20 26 -23 26 -142 0 -142 -12 -172 -81 -208 -67 -33 -116 -23 -183 38 -63
58 -131 83 -171 65 -46 -21 -27 9 58 92 80 79 179 189 185 207 5 14 26 11 86
-11z m395 6 c7 -8 35 -25 64 -39 95 -46 177 -150 177 -227 0 -41 10 -33 32 28
l16 47 3 -35 c3 -49 1 -71 -12 -102 -16 -39 -26 -35 -39 15 -9 32 -31 61 -93
124 -148 147 -196 203 -177 203 10 0 23 -6 29 -14z m-11 -45 c26 -26 90 -93
142 -147 l95 -98 -60 -6 c-72 -8 -97 -20 -153 -74 -41 -39 -46 -41 -101 -40
-63 1 -83 11 -124 60 -25 29 -26 37 -28 153 -1 104 1 125 17 142 15 17 118 57
152 58 6 1 33 -21 60 -48z m-243 -145 c8 -95 -3 -219 -16 -176 -10 36 -11 260
0 260 5 0 12 -38 16 -84z m-445 -259 c-14 -79 -39 -154 -62 -188 l-16 -24 -9
24 c-5 13 -6 42 -2 65 32 168 57 258 73 268 20 13 29 -71 16 -145z m135 84
c44 -41 49 -54 21 -58 -20 -3 -56 23 -56 40 0 6 11 0 25 -13 14 -13 27 -22 29
-19 2 2 -19 24 -48 49 -28 24 -43 35 -33 24 12 -15 17 -38 17 -85 0 -51 4 -68
19 -81 11 -9 21 -15 23 -12 2 2 28 -18 56 -44 40 -37 52 -55 52 -78 l-1 -29
-17 21 c-9 12 -33 42 -52 68 -19 25 -42 45 -50 46 -25 1 -59 88 -64 162 -4 66
-3 67 18 56 11 -6 39 -27 61 -47z m709 41 c-17 -11 -23 -39 -12 -50 6 -6 11
-32 10 -58 0 -32 3 -43 9 -33 6 10 9 6 9 -16 1 -16 9 -50 19 -75 14 -33 16
-51 9 -72 -7 -21 -5 -39 8 -74 16 -42 19 -45 31 -28 7 10 13 28 13 39 0 12 9
30 20 40 19 17 20 17 20 -1 0 -10 -5 -37 -12 -59 -6 -22 -11 -46 -9 -53 2 -13
-36 -82 -52 -93 -5 -4 -5 -14 1 -25 20 -37 53 -126 49 -130 -4 -4 -34 67 -51
119 -3 9 -11 16 -18 15 -10 -2 -13 23 -15 102 -2 101 -7 148 -20 180 -3 8 -11
62 -18 120 -7 58 -13 90 -14 72 0 -19 -12 -48 -26 -66 -14 -18 -25 -40 -25
-49 0 -9 -9 -21 -20 -27 -26 -14 -25 -5 2 33 18 25 22 43 20 88 -3 53 -1 57
34 88 20 18 39 29 42 26 4 -3 2 -9 -4 -13z m53 4 c-3 -8 0 -36 8 -63 15 -54
55 -236 55 -252 0 -6 -6 -11 -13 -11 -33 0 -108 253 -93 313 4 19 13 27 27 27
14 0 19 -5 16 -14z m65 -100 c23 -85 34 -191 22 -199 -5 -3 -17 31 -27 76 -10
45 -24 110 -32 144 -8 34 -15 69 -15 79 0 36 32 -26 52 -100z m-187 70 c-14
-19 -38 -42 -51 -51 -14 -9 -43 -32 -65 -52 -33 -30 -39 -32 -39 -16 0 11 12
26 28 34 15 8 29 17 32 20 12 14 111 99 116 99 3 0 -7 -15 -21 -34z m-210 -72
c27 -5 35 -12 40 -34 7 -33 4 -122 -4 -114 -3 3 -6 11 -6 17 0 16 -64 57 -89
57 -12 0 -28 -5 -36 -11 -11 -8 -8 -9 15 -5 17 3 44 -1 60 -8 29 -13 29 -13
-20 -9 -78 7 -75 3 -75 105 l0 93 41 -42 c25 -27 53 -45 74 -49z m-145 -10 c0
-78 -2 -85 -17 -78 -31 13 -73 8 -103 -15 -16 -11 -38 -21 -48 -21 -19 0 -58
36 -87 83 -24 38 -1 36 48 -4 28 -23 36 -36 32 -50 -4 -11 -2 -19 4 -19 6 0
11 21 11 50 0 28 -4 50 -9 50 -5 0 -7 -10 -4 -21 6 -22 6 -22 -25 1 -17 13
-29 27 -26 32 3 5 11 5 17 -1 29 -23 153 18 179 59 22 35 28 22 28 -66z m338
16 c0 -20 -6 -33 -18 -40 -31 -17 -35 -11 -9 16 16 17 18 23 7 19 -9 -4 -34
-33 -55 -66 -45 -70 -63 -81 -63 -39 0 17 3 30 8 30 4 1 34 25 67 55 33 30 60
55 61 55 0 0 1 -14 2 -30z m-626 -17 c25 -22 23 -36 -4 -27 -22 7 -22 6 -5
-20 17 -26 8 -37 -10 -13 -11 13 -15 77 -6 77 4 0 15 -7 25 -17z m505 1 c-3
-3 -12 -4 -19 -1 -8 3 -5 6 6 6 11 1 17 -2 13 -5z m369 -128 c2 -49 8 -94 13
-100 38 -48 67 -157 75 -281 3 -49 10 -117 16 -150 5 -33 7 -67 4 -77 -2 -9 0
-19 6 -23 17 -10 11 -32 -10 -38 -14 -4 -25 4 -41 29 -18 30 -20 39 -9 65 7
16 10 32 7 36 -4 3 -11 -5 -16 -18 -8 -20 -10 -21 -10 -5 -1 16 -4 17 -13 8
-9 -9 -8 -20 5 -47 15 -30 15 -35 2 -35 -9 0 -18 13 -22 31 -3 17 -9 26 -12
21 -7 -12 -111 209 -111 235 0 16 40 -67 87 -180 8 -21 17 -36 20 -33 2 2 -3
21 -13 42 -9 22 -18 55 -19 74 -1 19 -12 57 -24 83 -12 27 -20 56 -16 64 8 24
20 6 43 -62 11 -33 23 -68 27 -78 5 -12 3 -17 -5 -15 -7 2 -15 -4 -17 -12 -4
-13 -3 -13 6 0 9 13 11 13 11 1 0 -11 3 -12 11 -4 12 12 -11 101 -42 167 -27
56 -17 55 21 0 44 -66 51 -89 41 -133 -6 -27 -4 -43 5 -56 12 -16 14 -15 20
11 7 27 9 25 26 -31 10 -33 18 -71 18 -84 0 -18 3 -22 11 -14 8 8 5 30 -12 79
-17 49 -20 69 -11 72 16 5 16 23 0 20 -33 -7 -66 124 -69 272 -1 41 -4 64 -6
50 -2 -14 -9 -35 -14 -46 -8 -15 -8 -27 0 -42 14 -26 14 -35 1 -27 -12 8 -13
-7 -1 -20 4 -6 11 -23 15 -40 l7 -30 -21 25 c-25 31 -35 61 -23 69 4 3 9 20
10 36 0 17 6 65 13 109 9 59 10 92 1 134 -14 68 -13 96 0 62 6 -14 12 -65 15
-114z m-236 97 c-1 -14 -30 -47 -36 -41 -8 8 14 48 26 48 6 0 10 -3 10 -7z
m-574 -59 c27 -27 51 -44 59 -40 12 4 13 2 3 -14 -12 -18 -13 -18 -37 0 -25
17 -52 46 -80 83 -28 37 11 16 55 -29z m505 4 c-16 -24 -40 -54 -52 -68 -21
-21 -24 -22 -27 -7 -2 9 9 28 25 41 16 13 35 36 42 50 8 14 21 26 28 26 9 0 4
-14 -16 -42z m-264 -20 c-2 -13 -4 -5 -4 17 -1 22 1 32 4 23 2 -10 2 -28 0
-40z m-84 13 c-67 -11 -63 -22 5 -15 l62 7 0 -80 0 -79 -67 4 c-38 2 -70 6
-72 8 -2 2 -7 24 -11 49 -6 36 -3 48 11 61 10 9 16 20 14 25 -9 13 28 28 65
27 34 0 34 -1 -7 -7z m344 -53 c-41 -64 -67 -89 -67 -64 0 17 91 128 98 121 2
-2 -12 -27 -31 -57z m-133 27 c15 -6 17 -5 11 5 -5 9 -4 11 4 6 6 -4 9 -12 5
-17 -3 -6 2 -19 13 -31 16 -18 18 -39 19 -167 1 -80 2 -152 3 -158 2 -19 60
-45 88 -40 23 4 23 4 7 -22 -52 -80 -110 -142 -178 -191 -42 -30 -76 -60 -76
-66 0 -6 -11 -11 -25 -11 -15 0 -25 5 -25 13 0 8 -4 14 -9 14 -25 0 -138 102
-196 176 -36 46 -65 86 -65 89 0 3 13 5 29 5 16 0 39 9 52 19 22 18 24 27 26
123 1 56 3 121 4 143 l1 40 9 -40 c5 -22 11 -98 13 -170 4 -127 8 -153 39
-226 17 -38 93 -139 105 -139 4 0 7 35 7 78 0 42 3 106 6 142 4 47 6 26 7 -77
1 -79 5 -143 10 -143 16 0 75 78 99 130 21 46 26 77 34 215 5 88 11 183 13
210 l5 50 -11 -48 -12 -48 -50 1 c-92 0 -86 5 -86 -77 l0 -74 55 4 c30 2 59 7
63 11 4 5 -18 6 -48 5 l-55 -4 0 60 0 60 58 1 57 1 -4 -141 c-3 -81 -11 -161
-19 -188 -13 -41 -84 -154 -92 -146 -2 2 -4 75 -6 163 -2 116 -7 166 -17 182
-12 19 -12 37 -2 108 7 48 9 101 6 118 -4 23 -3 28 4 17 7 -11 10 -7 10 19 l0
34 48 -6 c26 -2 56 -8 66 -12z m-380 -68 c37 -48 49 -72 51 -105 2 -23 2 -42
-1 -42 -2 0 -25 32 -50 70 -26 39 -49 70 -50 70 -12 0 2 -26 51 -94 55 -76 55
-77 49 -131 -4 -30 -13 -60 -20 -66 -17 -14 -86 -30 -78 -18 3 5 1 9 -5 9 -23
0 -32 40 -22 98 12 67 15 215 5 255 -10 42 13 27 70 -46z m569 41 c-3 -13 -23
-45 -43 -73 -21 -27 -47 -66 -59 -85 l-21 -35 0 45 c0 38 6 52 33 82 17 20 42
48 54 62 26 32 43 34 36 4z m177 -105 c0 -12 -4 -24 -9 -28 -13 -7 -33 58 -25
80 6 15 8 15 20 -6 7 -13 13 -34 14 -46z m-964 -29 c-8 -22 -25 -16 -32 10 -3
15 1 35 13 52 l18 28 3 -38 c2 -21 1 -44 -2 -52z m784 39 c-3 -143 12 -290 36
-361 14 -40 24 -76 21 -78 -7 -8 -49 99 -49 125 0 23 -1 24 -14 7 -7 -10 -16
-39 -19 -65 -23 -197 -37 -256 -88 -357 -19 -38 -42 -92 -50 -119 -8 -28 -31
-90 -51 -139 -20 -49 -36 -96 -35 -105 0 -9 14 18 30 59 17 41 31 76 32 77 1
1 3 -26 4 -60 0 -34 4 -96 8 -138 6 -69 1 -109 -21 -163 -5 -14 -4 -17 4 -12
7 4 12 2 12 -4 0 -14 -38 -3 -62 18 -10 8 -18 11 -18 6 0 -5 14 -18 30 -29 16
-11 30 -27 30 -36 0 -9 7 -22 15 -29 16 -13 19 -38 9 -65 -6 -14 -9 -13 -30 6
-13 12 -24 17 -24 11 0 -6 16 -23 36 -38 23 -18 34 -33 31 -45 -3 -10 1 -20 8
-23 8 -3 11 2 8 15 -3 11 0 19 7 19 12 0 12 -9 -5 -105 -5 -29 -5 -29 10 5 14
33 15 33 9 5 -4 -16 -10 -46 -14 -65 -6 -29 -16 -25 -11 4 1 5 -5 23 -12 40
-22 46 -31 79 -20 73 5 -3 9 4 8 15 -1 12 -7 24 -15 26 -7 3 -10 0 -6 -7 4 -6
3 -11 -3 -11 -7 0 -7 -8 -1 -25 5 -14 9 -29 8 -33 -1 -4 3 -16 9 -27 16 -30
32 -442 18 -484 -16 -52 -22 -4 -29 231 -3 139 -10 269 -15 288 -9 31 -10 26
-9 -35 0 -45 -7 -91 -21 -130 l-20 -60 0 53 c-1 29 7 88 16 130 9 42 17 94 16
115 -3 67 -6 96 -12 93 -3 -2 -7 14 -8 36 -2 23 -7 46 -12 52 -6 7 -8 48 -5
97 3 46 7 118 8 159 1 49 9 94 23 130 12 30 31 95 42 144 11 49 37 120 56 159
21 40 51 129 70 204 19 73 42 144 51 158 19 30 14 41 -13 27 -12 -7 -30 -6
-53 2 -35 11 -35 11 -38 78 -3 63 -1 70 34 120 56 79 77 108 81 108 2 0 4 -21
3 -47z m-895 -143 c-4 -25 -13 -67 -21 -94 -8 -27 -14 -59 -13 -70 0 -21 1
-21 9 -1 14 32 11 2 -4 -49 -8 -27 -12 -55 -9 -64 4 -15 3 -15 -7 -2 -9 12
-10 10 -5 -13 3 -18 2 -26 -4 -23 -15 10 -25 -34 -11 -48 10 -8 12 -6 7 12 -3
12 -2 20 3 17 4 -2 15 17 25 43 10 26 22 51 26 57 11 12 12 28 1 21 -5 -3 -8
16 -8 42 2 56 68 195 74 154 2 -13 8 -20 14 -16 7 4 8 2 4 -5 -4 -6 -11 -9
-16 -6 -12 8 -52 -110 -55 -163 -1 -28 -13 -67 -29 -96 -14 -27 -26 -55 -26
-62 0 -8 -7 -14 -15 -14 -8 0 -15 5 -15 11 0 5 -5 7 -11 3 -12 -7 -8 10 22 91
11 28 19 55 19 60 -1 10 -24 -44 -50 -113 -21 -54 -24 -27 -5 51 14 59 21 73
37 74 26 2 32 9 23 23 -6 9 -9 9 -15 0 -14 -23 -30 1 -30 44 0 52 35 198 58
240 l16 31 8 -45 c5 -25 6 -65 3 -90z m552 112 c6 -4 9 -27 6 -59 l-5 -52 -52
4 c-55 4 -63 13 -65 82 l-1 32 53 0 c29 0 58 -3 64 -7z m-515 -47 c6 15 7 12
3 -12 -2 -18 0 -33 5 -33 5 0 -4 -27 -21 -60 -17 -33 -32 -60 -34 -60 -2 0 4
21 13 48 8 26 15 67 15 92 0 25 3 36 5 25 l5 -20 9 20z m507 -76 c24 -1 24 -2
17 -82 -3 -45 -6 -122 -6 -172 l-1 -90 -29 35 c-62 73 -106 204 -94 278 6 37
6 37 47 35 23 -2 53 -4 66 -4z m-449 -86 c-9 -15 -10 -14 -6 7 3 14 -5 2 -18
-27 -14 -28 -30 -54 -35 -58 -14 -8 -14 -4 5 52 18 56 43 82 57 58 5 -9 3 -22
-3 -32z m177 -45 c11 -18 37 -91 58 -163 21 -71 56 -173 78 -225 22 -52 44
-108 48 -125 28 -92 50 -234 55 -354 5 -126 4 -139 -14 -161 -17 -21 -22 -22
-35 -11 -32 26 -41 111 -27 236 l13 115 28 -82 c16 -46 26 -67 23 -48 -7 45
-101 326 -149 450 -26 66 -42 126 -50 195 -12 94 -42 197 -44 150 -1 -11 -10
-44 -21 -74 -12 -29 -19 -58 -17 -64 1 -5 11 16 22 47 11 31 22 56 26 56 10 0
19 -56 19 -114 0 -37 -9 -67 -31 -111 -17 -33 -38 -75 -47 -92 -34 -70 -43
-16 -16 102 9 39 17 90 19 115 2 25 12 71 23 103 12 32 18 65 15 73 -10 26 5
15 24 -18z m-206 -56 c-6 -10 -7 -23 -3 -27 4 -5 1 -5 -6 -1 -9 5 -9 13 -1 29
9 21 9 21 -5 4 -11 -14 -12 -25 -4 -42 8 -17 6 -29 -7 -51 -9 -16 -13 -20 -10
-9 16 46 16 49 5 31 -7 -10 -20 -41 -30 -69 -10 -28 -23 -53 -29 -55 -20 -7
-12 27 23 96 27 53 32 72 24 86 -7 13 -7 17 0 12 6 -4 16 3 22 15 8 14 15 18
22 11 7 -7 6 -16 -1 -30z m1116 -9 c-3 -10 -5 -4 -5 12 0 17 2 24 5 18 2 -7 2
-21 0 -30z m-843 -21 c25 -36 34 -81 19 -96 -4 -3 -14 17 -24 46 -9 29 -20 61
-24 71 -12 28 1 19 29 -21z m616 -91 c5 8 8 3 8 -12 0 -13 3 -66 7 -116 9
-101 0 -117 -29 -57 -9 20 -19 34 -22 31 -3 -3 3 -20 13 -39 15 -28 18 -58 18
-208 0 -96 -1 -166 -4 -155 -3 13 -8 3 -16 -30 -8 -36 -8 -54 -1 -64 9 -12 8
-13 -3 -6 -11 7 -13 2 -8 -26 4 -20 3 -29 -2 -21 -6 10 -12 0 -20 -31 -13 -52
-55 -109 -76 -101 -24 9 -11 150 24 251 37 109 49 175 59 328 8 116 4 149 -22
205 -8 18 -8 48 -2 104 l9 78 30 -72 c19 -46 33 -67 37 -59z m-129 50 c-15
-60 -24 -68 -34 -32 -3 11 6 34 21 55 14 20 26 36 27 36 1 0 -5 -27 -14 -59z
m-445 -68 c-11 -23 -21 -33 -23 -25 -3 8 0 19 6 25 6 6 11 22 11 36 0 19 3 22
12 13 9 -9 8 -20 -6 -49z m404 29 c0 -10 5 -23 11 -29 6 -6 9 -19 7 -29 -3
-16 -7 -13 -21 13 -19 36 -22 63 -7 63 6 0 10 -8 10 -18z m-11 -143 l-21 -48
-38 37 c-64 63 -64 70 -12 112 l45 37 23 -45 23 -45 -20 -48z m-756 94 c-3
-18 -9 -33 -13 -33 -5 0 -4 15 1 32 5 18 9 35 9 37 0 2 2 2 4 0 2 -2 1 -19 -1
-36z m460 -17 c17 -13 17 -17 4 -43 -9 -15 -28 -41 -45 -56 l-29 -28 -16 43
c-23 62 -23 69 -4 106 l18 33 27 -20 c15 -12 35 -27 45 -35z m-564 -7 c20 -7
29 -15 23 -21 -13 -13 -62 1 -62 18 0 17 -1 17 39 3z m394 -139 c-4 -30 -8
-46 -10 -35 -3 11 -11 40 -19 64 -11 36 -12 52 -2 84 l12 40 13 -49 c8 -31 11
-69 6 -104z m580 75 c1 -5 -4 -28 -11 -50 -7 -22 -18 -67 -26 -100 l-13 -60 4
85 c2 47 9 112 15 145 l12 60 8 -35 c5 -19 10 -39 11 -45z m-873 29 c0 -8 -4
-14 -10 -14 -5 0 -10 4 -10 9 0 4 -11 6 -25 3 -16 -3 -25 -11 -25 -23 0 -13
-7 -19 -22 -19 -21 0 -21 0 -2 22 10 12 23 27 28 33 13 15 66 6 66 -11z m670
-45 c0 -9 -8 -27 -18 -39 l-18 -22 -13 42 c-16 54 -22 48 -11 -10 5 -25 9 -90
8 -145 0 -89 -1 -95 -9 -50 -16 92 -16 260 0 279 13 16 16 15 37 -11 13 -15
23 -35 24 -44z m535 44 c30 -34 30 -39 5 -46 -16 -4 -20 0 -20 19 0 19 -5 24
-25 24 -16 0 -25 6 -25 15 0 25 39 17 65 -12z m-686 8 c11 -7 12 -13 3 -23 -6
-8 -12 -31 -14 -51 -1 -20 -5 -37 -9 -37 -9 0 -39 46 -39 60 0 13 30 60 39 60
3 0 12 -4 20 -9z m-629 -11 c12 -7 11 -12 -5 -30 -20 -22 -29 -18 -40 18 -5
17 -2 22 12 22 10 0 25 -4 33 -10z m1410 3 c-1 -5 -10 -19 -21 -32 -19 -23
-20 -23 -34 -5 -12 17 -12 21 2 32 18 13 53 16 53 5z m-1459 -42 c6 -16 19
-31 30 -34 20 -5 26 -32 9 -42 -14 -9 -67 25 -77 49 -5 12 -7 29 -5 39 6 27
32 20 43 -12z m138 19 c11 -6 18 -21 19 -42 1 -27 -1 -30 -9 -15 -6 9 -16 17
-23 17 -8 0 -16 7 -20 15 -6 18 -2 19 27 4 19 -9 18 -7 -3 10 -26 22 -21 28 9
11z m1199 -17 c1 -16 -2 -21 -14 -16 -11 4 -12 8 -4 13 9 5 8 9 -2 13 -9 3
-14 -3 -14 -18 0 -15 5 -21 14 -18 11 5 13 -4 11 -35 -2 -23 0 -44 4 -48 4 -4
7 12 7 35 0 34 4 43 23 50 13 5 30 5 41 -1 16 -9 24 -5 46 22 32 39 48 33 47
-16 -1 -20 -3 -32 -5 -26 -2 7 -17 2 -37 -14 -36 -27 -60 -24 -52 7 3 11 1 17
-3 14 -5 -3 -11 1 -13 7 -3 7 -5 -9 -5 -37 0 -31 2 -42 6 -28 6 18 10 20 23
10 23 -17 33 -54 17 -63 -17 -10 -67 -6 -94 8 -27 13 -47 54 -38 80 3 10 1 24
-4 31 -14 17 3 53 25 53 12 0 20 -8 21 -23z m-648 -114 c-15 -195 -22 -260
-27 -255 -6 6 15 365 23 377 13 22 14 -1 4 -122z m172 3 c-13 -37 -26 -87 -31
-112 l-8 -45 -13 30 c-7 17 -15 56 -18 87 -4 51 -1 61 22 88 14 18 26 39 26
48 0 14 4 12 22 -6 l23 -22 -23 -68z m-795 83 c-6 -7 -15 -11 -19 -8 -14 8 -8
19 12 20 16 1 17 -1 7 -12z m372 -114 c11 -47 29 -138 41 -201 12 -63 26 -119
31 -124 13 -14 11 7 -6 79 -8 33 -15 79 -15 102 0 23 -7 71 -15 107 -9 40 -13
82 -9 106 l7 41 20 -53 c76 -200 86 -244 80 -338 -5 -74 -10 -95 -28 -114 -27
-30 -44 -19 -73 46 -35 81 -73 299 -71 418 0 78 10 62 38 -69z m197 84 c22
-33 25 -46 21 -87 -3 -26 -11 -57 -17 -69 -11 -19 -14 -16 -34 42 -12 35 -28
74 -35 87 -13 24 -2 56 21 65 16 5 12 9 44 -38z m-522 -52 c4 -4 6 10 4 31 -4
47 17 60 27 17 8 -37 -9 -71 -35 -71 -11 0 -20 -4 -20 -8 0 -5 -19 -8 -42 -8
-41 1 -43 2 -40 29 2 18 -1 26 -7 22 -6 -3 -11 -13 -11 -21 0 -9 -7 -14 -17
-12 -13 2 -18 14 -19 41 l-1 37 34 -21 c19 -12 42 -19 53 -16 13 3 20 -1 23
-17 2 -11 5 0 6 26 1 59 24 71 32 17 3 -21 9 -42 13 -46z m286 -123 c16 -122
38 -216 61 -262 16 -31 19 -55 17 -121 -2 -46 -7 -82 -13 -82 -5 0 -22 22 -36
48 -14 26 -28 45 -32 41 -3 -3 -3 3 0 15 3 13 1 21 -6 21 -7 0 -10 4 -6 9 5 9
-4 53 -32 155 -20 75 -12 298 13 351 l19 40 2 -65 c1 -36 7 -103 13 -150z
m631 69 c-10 -126 -35 -239 -70 -322 -11 -25 -17 -47 -14 -50 2 -3 -4 -10 -15
-16 -11 -6 -22 -7 -26 -4 -9 9 -7 -10 3 -25 6 -11 10 -10 15 4 14 37 14 5 0
-41 -13 -45 -13 -56 3 -117 16 -63 16 -68 0 -86 -10 -10 -17 -35 -17 -56 0
-33 -2 -36 -19 -26 -15 8 -18 17 -14 49 4 26 0 46 -10 61 -14 20 -13 26 9 77
18 40 24 69 21 102 l-3 46 -2 -52 c-1 -29 -6 -53 -10 -53 -9 0 0 99 11 117 4
6 3 14 -2 17 -27 17 -29 188 -4 275 8 30 33 91 54 135 38 79 39 79 39 40 0
-21 -5 -57 -11 -79 -5 -22 -16 -83 -23 -135 -8 -52 -17 -107 -21 -122 -4 -16
-3 -28 1 -28 8 0 27 70 85 322 13 54 24 96 26 94 2 -2 -1 -59 -6 -127z m466
85 c8 -20 -13 -64 -31 -64 -21 0 -27 59 -7 70 23 13 31 12 38 -6z m-384 -258
c-6 -25 -7 10 -6 97 2 75 4 140 5 144 7 25 7 -209 1 -241z m-780 162 c-6 -103
-11 -107 -12 -10 -1 45 3 82 8 82 4 0 6 -33 4 -72z m638 -74 c-5 -21 -9 -30
-10 -19 -1 24 10 67 15 62 3 -2 0 -22 -5 -43z m-320 -34 l-6 -65 -8 48 c-4 30
-3 56 4 69 15 28 16 22 10 -52z m-174 13 c-3 -10 -5 -2 -5 17 0 19 2 27 5 18
2 -10 2 -26 0 -35z m333 -47 c-15 -40 -34 -45 -27 -6 4 18 7 47 7 64 l1 31 14
-33 c10 -22 11 -40 5 -56z m277 -168 c-3 -7 -5 -2 -5 12 0 14 2 19 5 13 2 -7
2 -19 0 -25z m-532 -80 c1 -13 4 -45 8 -71 4 -31 3 -46 -3 -42 -6 3 -11 27
-11 53 l-1 47 -8 -39 c-6 -30 -2 -53 16 -98 22 -56 22 -62 7 -84 -10 -16 -14
-36 -10 -58 8 -49 -19 -57 -28 -9 -3 20 -14 47 -23 60 -13 21 -14 28 -2 46 21
35 26 142 6 171 -18 29 -20 36 -7 36 5 0 13 -10 17 -22 6 -21 7 -21 21 5 17
33 18 33 18 5z m-45 -83 c0 -42 -11 -76 -21 -69 -5 3 -5 12 0 22 5 9 7 37 5
62 -3 32 -1 41 6 30 5 -8 10 -28 10 -45z m432 10 c-2 -26 0 -51 7 -58 11 -14
6 -27 -11 -27 -9 0 -11 90 -2 114 10 26 12 18 6 -29z m-473 -81 l31 -20 -21
-23 -22 -23 -14 23 -14 24 5 -25 c3 -14 6 -46 6 -71 0 -32 7 -57 24 -82 18
-26 21 -37 11 -41 -13 -4 -13 -45 0 -341 1 -38 3 -87 4 -108 0 -21 5 -36 9
-33 4 2 6 -11 4 -31 -3 -21 -1 -33 5 -30 5 4 7 -7 4 -26 l-5 -32 -13 45 c-25
80 -44 547 -23 560 8 5 7 10 -3 18 -12 10 -15 -11 -21 -137 -3 -82 -4 -157 0
-167 4 -15 3 -16 -4 -4 -5 8 -15 47 -22 85 -10 61 -9 82 8 164 11 52 19 99 17
105 -2 6 -6 52 -9 101 -2 50 -9 103 -15 118 -18 47 -12 55 8 11 10 -22 33 -49
50 -60z m556 18 c-28 -80 -47 -97 -71 -64 -12 15 -7 22 34 62 26 25 48 45 49
45 1 -1 -4 -20 -12 -43z m-427 -34 c14 -16 14 -18 0 -18 -17 0 -29 21 -27 48
0 14 2 14 6 2 3 -8 12 -23 21 -32z m269 20 c-3 -8 -6 -5 -6 6 -1 11 2 17 5 13
3 -3 4 -12 1 -19z m-217 -47 c-5 -18 -7 -38 -4 -45 3 -7 0 -26 -7 -42 -36 -91
-59 -239 -59 -377 0 -77 3 -137 7 -133 4 4 6 66 4 139 -2 98 0 129 9 121 27
-27 36 -254 10 -254 -4 0 -6 -10 -4 -23 2 -12 2 -16 -2 -9 -12 25 -19 11 -16
-33 6 -68 -5 -115 -24 -108 -12 4 -13 8 -3 13 9 6 10 34 4 117 -14 168 -8 318
14 388 20 63 18 87 -4 79 -24 -10 -10 20 28 58 20 20 37 44 37 55 0 13 -5 10
-18 -12 -11 -16 -26 -36 -34 -43 -25 -20 -32 29 -11 70 14 27 71 79 80 73 2
-1 -2 -16 -7 -34z m357 -98 c-5 -64 -3 -99 8 -128 19 -54 19 -169 -1 -236 -16
-56 -42 -96 -31 -49 6 26 13 90 21 190 3 30 1 71 -4 90 -6 26 -8 8 -9 -70 -1
-89 -17 -213 -34 -270 -3 -8 -10 -55 -17 -105 -16 -120 -15 -118 -40 -105 -11
6 -20 16 -20 23 0 8 4 7 11 -3 8 -11 9 -7 5 17 -3 18 -2 35 3 37 14 9 22 119
11 151 -9 27 -10 26 -6 -15 2 -25 0 -56 -5 -70 -4 -14 -6 38 -3 120 6 145 27
280 45 280 5 0 9 5 9 11 0 5 -4 7 -10 4 -5 -3 -10 -3 -11 2 -10 114 -9 129 11
161 19 31 40 43 40 22 0 -6 -12 -33 -26 -61 -14 -28 -23 -53 -21 -56 3 -2 16
20 31 48 14 29 26 45 26 36 0 -26 -25 -80 -43 -96 -10 -7 -17 -18 -17 -23 0
-5 13 5 29 21 30 30 47 88 36 121 -6 19 0 40 12 40 3 0 3 -39 0 -87z m-495 -9
c8 -32 18 -49 26 -46 6 2 12 -4 12 -13 0 -27 -23 -12 -57 39 -18 27 -33 43
-33 36 0 -6 10 -26 22 -42 11 -17 23 -47 25 -67 2 -26 1 -32 -7 -21 -5 8 -10
11 -10 6 0 -5 6 -17 14 -25 21 -23 33 -119 41 -307 7 -159 2 -224 -16 -224 -5
0 -9 14 -9 30 0 17 -3 30 -7 30 -5 0 -9 23 -11 52 -1 29 -6 54 -10 57 -4 3 -5
22 -2 41 l6 35 8 -35 c4 -19 13 -69 21 -110 l14 -75 -6 80 c-3 44 -17 111 -30
149 -20 58 -24 87 -24 183 1 63 5 122 10 131 6 11 2 26 -14 51 -21 32 -27 77
-16 131 1 2 10 -4 21 -15 10 -11 25 -43 32 -71z m53 -144 c-8 -23 -15 -57 -16
-74 -1 -27 -2 -25 -10 13 -4 23 -11 53 -14 65 -2 12 2 8 10 -9 8 -16 14 -23
14 -15 1 8 -6 28 -14 44 -19 35 -19 40 0 33 8 -4 17 -1 21 5 4 7 10 5 15 -5 6
-9 3 -31 -6 -57z m91 -111 c8 -84 -10 -130 -21 -52 -3 28 -13 63 -21 78 -17
33 -17 48 -3 100 l12 40 13 -50 c7 -27 16 -80 20 -116z m178 -170 c3 -100 1
-147 -4 -119 -32 175 -32 184 -20 238 6 29 14 52 16 50 2 -2 5 -78 8 -169z
m53 149 c-3 -8 -6 -5 -6 6 -1 11 2 17 5 13 3 -3 4 -12 1 -19z m-440 -175 c-3
-10 -5 -2 -5 17 0 19 2 27 5 18 2 -10 2 -26 0 -35z m544 -15 c-5 -18 -16 -77
-26 -130 -10 -54 -22 -98 -25 -98 -4 0 -3 19 1 43 5 23 11 65 14 92 7 61 25
125 36 125 4 0 4 -15 0 -32z m-401 -221 c0 -6 -15 -17 -32 -23 -18 -6 -41 -14
-50 -19 -28 -11 -23 30 5 43 31 15 77 15 77 -1z m320 -7 c22 -11 40 -27 40
-36 0 -13 -5 -12 -34 5 -18 12 -43 21 -55 21 -12 0 -21 6 -21 15 0 21 23 19
70 -5z m-300 -39 c13 -26 13 -31 -4 -31 -25 0 -29 -21 -7 -36 12 -8 21 -22 21
-31 0 -13 -7 -10 -29 11 -24 23 -35 27 -59 22 -29 -7 -58 -47 -53 -73 1 -7 -5
-13 -13 -13 -9 0 -13 -6 -11 -12 2 -7 -2 -22 -11 -33 -13 -17 -16 -18 -24 -5
-13 20 -13 50 0 50 5 0 7 -8 3 -17 -10 -28 32 28 57 75 15 28 31 44 49 49 29
7 79 53 57 53 -8 0 -21 -10 -29 -22 l-16 -23 0 22 c-1 35 51 46 69 14z m270 9
c0 -3 -5 -12 -10 -20 -6 -10 -10 -11 -10 -2 0 6 -5 12 -12 12 -20 0 24 -39 58
-52 19 -7 34 -19 34 -27 0 -12 -3 -12 -12 -3 -18 18 -63 14 -89 -8 -29 -24
-18 -26 17 -4 32 21 39 13 21 -22 -9 -17 -24 -28 -39 -30 -23 -2 -25 1 -23 29
2 18 3 42 4 54 1 16 5 21 17 16 13 -5 13 -7 2 -14 -10 -7 -9 -9 4 -9 9 0 20 5
23 10 3 6 2 10 -2 10 -5 0 -17 6 -27 13 -16 12 -17 16 -5 34 11 19 49 29 49
13z m20 -25 c0 -17 -4 -23 -15 -19 -11 5 -12 11 -4 25 13 26 19 24 19 -6z
m-373 -7 c-3 -8 -6 -5 -6 6 -1 11 2 17 5 13 3 -3 4 -12 1 -19z m423 -15 c0 -7
-5 -13 -11 -13 -5 0 -7 4 -4 10 3 6 -1 7 -9 4 -11 -4 -16 0 -16 15 0 19 2 20
20 9 11 -7 20 -18 20 -25z m-443 5 c-3 -8 -6 -5 -6 6 -1 11 2 17 5 13 3 -3 4
-12 1 -19z m113 -18 c0 -5 -4 -10 -10 -10 -5 0 -10 5 -10 10 0 6 5 10 10 10 6
0 10 -4 10 -10z m-55 -50 c9 -17 13 -36 9 -42 -5 -8 -10 -5 -15 8 -6 15 -8 12
-8 -13 -1 -18 -5 -33 -11 -33 -5 0 -10 -9 -10 -20 0 -11 -6 -20 -14 -20 -27 0
-27 20 -2 45 14 14 21 25 16 25 -5 0 -7 8 -4 18 5 16 5 16 -6 0 -6 -10 -15
-18 -19 -18 -14 0 -21 29 -9 36 7 5 8 2 3 -6 -5 -9 -4 -11 4 -6 6 4 8 12 5 18
-7 10 21 38 38 38 4 0 15 -14 23 -30z m64 -43 c13 -17 13 -17 -12 -6 -14 6
-31 26 -37 43 l-11 31 23 -25 c13 -14 29 -33 37 -43z m318 26 c20 -21 28 -28
18 -15 -28 34 -14 34 17 0 15 -16 21 -28 13 -25 -7 3 -16 1 -18 -6 -3 -7 -15
0 -31 18 -25 29 -26 29 -32 8 -4 -13 -13 -21 -25 -20 -10 1 -19 2 -19 4 0 6
34 73 37 73 2 0 20 -17 40 -37z m43 -110 c0 -28 -26 -11 -42 28 -10 22 -22 38
-28 34 -6 -4 -2 -14 10 -27 23 -25 26 -48 8 -48 -7 1 -20 15 -28 33 -13 28
-13 34 0 48 14 15 18 13 48 -19 17 -20 32 -42 32 -49z m-375 65 c14 -6 24 -16
22 -22 -3 -10 -63 -45 -80 -46 -20 -1 -18 33 3 56 27 28 22 27 55 12z m-115
-5 c-1 -16 -29 -45 -40 -41 -6 2 -5 11 5 26 16 21 35 30 35 15z m385 -23 c22
-23 26 -33 17 -42 -16 -16 -86 23 -90 51 -5 33 39 27 73 -9z m121 3 c15 -20
18 -43 6 -43 -8 0 -32 43 -32 55 0 11 14 4 26 -12z m32 -19 c-4 -3 -12 5 -18
18 -12 22 -12 22 6 6 10 -10 15 -20 12 -24z"/>
<path d="M1575 3140 l-20 -9 20 0 c11 0 27 4 35 9 13 9 13 10 0 9 -8 0 -24 -4
-35 -9z"/>
<path d="M1650 2936 c0 -2 8 -10 18 -17 15 -13 16 -12 3 4 -13 16 -21 21 -21
13z"/>
<path d="M2551 2098 c-1 -4 6 -23 16 -42 16 -35 33 -39 33 -8 0 13 -2 14 -9 4
-7 -11 -10 -10 -15 3 -8 23 -8 27 4 20 6 -3 7 1 3 10 -4 12 -8 13 -13 5 -6 -9
-9 -9 -13 1 -3 8 -6 11 -6 7z"/>
<path d="M2617 2064 c-4 -4 -7 -14 -7 -23 0 -11 3 -12 11 -4 6 6 10 16 7 23
-2 6 -7 8 -11 4z"/>
<path d="M2636 1994 c-8 -20 -8 -24 2 -24 4 0 8 9 9 20 2 24 -3 26 -11 4z"/>
<path d="M2645 1950 c-4 -6 3 -10 14 -10 25 0 27 6 6 13 -8 4 -17 2 -20 -3z"/>
<path d="M2280 1359 c0 -5 5 -7 10 -4 6 3 10 8 10 11 0 2 -4 4 -10 4 -5 0 -10
-5 -10 -11z"/>
<path d="M2130 1926 c0 -2 8 -10 18 -17 15 -13 16 -12 3 4 -13 16 -21 21 -21
13z"/>
<path d="M2250 909 c0 -5 -3 -8 -7 -6 -5 3 -8 -56 -9 -131 0 -108 -4 -147 -19
-185 -10 -26 -15 -50 -11 -54 3 -3 6 2 6 13 0 14 2 16 9 6 15 -25 22 18 28
181 3 87 10 160 15 163 11 7 10 24 -2 24 -5 0 -10 -5 -10 -11z m-23 -341 c-3
-8 -6 -5 -6 6 -1 11 2 17 5 13 3 -3 4 -12 1 -19z"/>
<path d="M2202 445 c-7 -43 -10 -80 -8 -82 6 -6 29 134 24 148 -2 7 -9 -23
-16 -66z"/>
<path d="M1811 534 c0 -11 3 -14 6 -6 3 7 2 16 -1 19 -3 4 -6 -2 -5 -13z"/>
<path d="M2186 3847 c3 -10 9 -15 12 -12 3 3 0 11 -7 18 -10 9 -11 8 -5 -6z"/>
<path d="M3925 3846 c-16 -8 -43 -28 -59 -45 -25 -26 -30 -42 -34 -92 -3 -42
-10 -67 -23 -80 -11 -11 -19 -25 -19 -31 0 -12 35 -87 58 -128 26 -45 32 -63
32 -100 0 -22 5 -40 10 -40 7 0 7 -6 1 -19 -13 -24 -256 -161 -285 -161 -33 0
-92 -67 -123 -140 -22 -54 -26 -78 -25 -145 3 -179 0 -233 -18 -314 -10 -47
-17 -89 -14 -93 3 -4 -13 -46 -35 -92 -37 -77 -40 -90 -40 -172 -1 -92 -3
-114 -22 -199 -15 -63 -24 -82 -61 -122 -25 -26 -29 -36 -23 -60 4 -15 7 -41
6 -58 -3 -53 18 -69 90 -68 91 2 136 23 145 68 3 20 1 53 -7 78 -25 82 -17
136 32 223 69 121 72 130 80 264 5 69 13 159 18 200 6 41 12 89 13 107 2 37
13 35 21 -4 4 -16 17 -68 31 -118 31 -112 36 -286 10 -356 -48 -129 -78 -488
-54 -636 16 -100 51 -225 95 -334 30 -75 35 -98 35 -172 0 -47 5 -98 10 -113
8 -20 7 -36 -2 -58 -8 -19 -13 -70 -12 -131 0 -90 5 -113 44 -230 33 -100 44
-149 47 -215 5 -93 -10 -157 -39 -172 -10 -4 -26 -12 -35 -17 -27 -13 -27 -36
1 -49 14 -6 73 -12 132 -13 113 -2 130 5 119 46 -4 11 -10 60 -15 110 -5 50
-12 117 -15 150 -5 42 -1 88 13 155 22 106 21 240 -2 345 -12 52 -12 63 2 84
12 20 13 43 6 130 -4 58 -8 126 -7 151 0 25 2 173 5 330 4 211 4 238 -2 105
-4 -99 -8 -198 -10 -220 l-2 -40 -10 40 c-5 22 -7 63 -4 90 4 28 9 111 12 185
4 74 11 137 15 138 5 2 9 23 9 47 0 48 17 70 24 33 4 -20 14 -203 33 -639 3
-64 0 -154 -6 -202 -10 -73 -9 -92 4 -123 20 -49 19 -87 -6 -188 l-22 -84 27
-131 c29 -147 32 -196 13 -260 -10 -32 -11 -54 -3 -81 7 -30 6 -47 -8 -83 -27
-71 -13 -87 71 -87 37 0 95 5 130 11 55 10 63 14 63 33 0 14 -12 28 -35 40
-43 23 -75 72 -75 115 0 39 52 260 85 363 29 90 31 134 9 208 -11 36 -14 73
-10 110 3 30 10 98 15 150 7 65 19 119 41 172 81 206 111 530 64 703 -7 28
-18 82 -24 120 -6 39 -20 90 -32 114 -12 24 -20 51 -19 60 1 9 4 70 5 136 2
102 6 131 29 195 34 94 34 112 1 40 -29 -61 -31 -71 -43 -185 -4 -44 -9 -66
-11 -50 -1 17 -2 33 -2 36 1 3 3 34 5 70 3 46 13 81 36 127 17 34 35 62 39 62
10 0 32 -90 32 -130 0 -15 7 -44 16 -65 8 -21 13 -42 11 -49 -2 -6 -1 -57 3
-113 7 -100 8 -104 63 -200 30 -54 58 -112 61 -128 4 -17 0 -60 -8 -95 -28
-124 2 -168 118 -174 77 -5 106 12 106 62 0 15 3 44 6 64 6 34 3 41 -30 71
-46 43 -53 68 -62 227 -4 72 -10 130 -13 130 -3 0 -6 15 -7 33 -1 34 -24 91
-60 144 -16 24 -24 61 -34 155 -7 67 -17 133 -21 144 -5 13 -2 41 7 70 21 65
13 143 -22 224 -32 75 -64 114 -108 130 -51 20 -77 33 -157 80 -42 25 -91 53
-108 62 -27 15 -31 22 -31 61 0 25 7 58 15 73 8 16 15 37 15 47 0 9 5 17 10
17 15 0 50 86 50 121 0 17 -6 32 -15 35 -10 4 -15 21 -15 53 0 82 -54 148
-135 166 -21 5 -13 -2 25 -21 33 -18 62 -41 73 -61 19 -33 25 -109 13 -153 -6
-21 -5 -22 4 -7 17 27 30 20 30 -18 0 -41 -27 -112 -38 -101 -4 4 -12 -12 -19
-36 -11 -37 -12 -38 -9 -10 1 18 -2 36 -7 39 -5 3 -50 5 -100 5 -58 -1 -94 3
-98 10 -6 9 -11 9 -21 1 -7 -6 -26 -13 -43 -15 -21 -2 -31 -10 -36 -28 l-7
-25 -1 28 c-1 15 -5 27 -11 27 -14 0 -50 75 -50 105 0 18 5 25 20 25 19 0 20
4 14 49 -10 75 21 132 89 165 52 27 46 36 -8 12z m40 -388 c-10 -47 -42 -118
-53 -118 -13 0 -22 36 -22 86 0 36 3 42 24 46 24 5 24 5 10 -35 -8 -22 -14
-51 -13 -66 0 -14 2 -21 4 -16 1 6 11 38 20 73 19 64 42 88 30 30z m151 5 c3
-16 10 -45 16 -67 15 -62 2 -52 -21 15 -24 71 -25 79 -11 79 5 0 12 -12 16
-27z m-110 -100 c-4 -65 -9 -126 -12 -135 -9 -30 -65 -55 -141 -62 -40 -3 -92
-13 -117 -21 -28 -10 -52 -12 -66 -7 -20 7 -7 17 96 75 138 77 186 127 208
222 7 25 21 44 35 45 2 0 0 -53 -3 -117z m57 -170 c4 -7 0 -38 -9 -69 -12 -41
-15 -81 -12 -146 4 -64 1 -93 -8 -106 -11 -14 -13 1 -14 100 0 86 -5 129 -17
159 -14 35 -14 47 -4 73 7 17 15 81 18 141 2 61 7 117 11 125 3 8 11 -48 17
-125 6 -77 14 -145 18 -152z m38 210 c39 -93 87 -133 292 -240 56 -29 -11 -47
-73 -20 -19 8 -65 18 -101 22 -38 4 -83 16 -105 29 -44 25 -48 38 -59 189 -9
120 2 125 46 20z m68 -5 c0 -91 -8 -86 -31 20 l-15 62 24 0 c22 0 23 -3 22
-82z m-55 -239 c-30 -12 -34 -10 -34 16 0 25 0 25 26 8 24 -15 25 -17 8 -24z
m-137 -6 c-3 -3 -16 -2 -28 2 l-22 7 24 14 c20 11 25 10 27 -2 2 -9 1 -18 -1
-21z m333 -18 c19 -7 33 -16 30 -21 -5 -9 -51 -41 -165 -117 -33 -22 -72 -51
-86 -64 l-26 -24 -6 68 c-7 76 0 138 17 151 37 30 159 33 236 7z m-347 4 c36
-10 37 -11 38 -57 0 -26 1 -77 2 -114 l2 -67 -25 23 c-33 30 -180 140 -233
173 l-42 26 40 13 c50 15 168 17 218 3z m-275 -23 c46 -23 172 -112 172 -120
0 -3 -5 -29 -11 -58 l-12 -53 -12 36 c-27 76 -79 142 -136 174 -36 20 -115 32
-105 17 4 -7 22 -12 39 -12 57 0 158 -80 135 -107 -8 -10 -18 -6 -44 17 -19
16 -54 39 -77 51 -23 12 -50 28 -60 37 -17 15 -17 16 5 29 33 18 53 16 106
-11z m807 3 c11 -5 29 -24 41 -42 28 -44 74 -172 74 -206 0 -37 -20 -92 -31
-86 -4 3 -6 12 -3 20 3 8 -4 43 -15 78 -17 49 -33 75 -76 117 l-54 54 34 23
c32 21 51 44 23 27 -6 -4 -8 -3 -5 3 8 13 -89 -9 -128 -30 -45 -23 -71 -55
-104 -127 l-29 -65 -7 59 c-4 32 -4 61 1 65 67 48 171 111 185 111 10 0 21 5
24 10 7 11 34 7 70 -11z m-915 -39 c14 -11 31 -20 38 -20 13 0 18 -20 4 -20
-4 0 -27 -18 -51 -41 -48 -45 -76 -101 -85 -169 -5 -42 -5 -42 13 15 10 33 25
74 34 91 15 30 97 104 114 104 4 0 22 -11 38 -24 l30 -24 -22 -24 c-12 -13
-56 -48 -97 -78 -40 -29 -81 -67 -91 -82 -9 -15 -20 -28 -25 -28 -17 0 -23 75
-11 135 13 60 66 185 79 185 4 0 18 -9 32 -20z m890 16 c0 -2 -24 -17 -52 -34
-73 -41 -93 -64 -78 -91 6 -12 14 -21 19 -21 10 0 181 -128 181 -136 0 -2 -36
14 -79 36 -69 36 -131 90 -131 116 0 4 -9 14 -20 24 -19 17 -19 17 9 44 34 33
151 81 151 62z m46 -146 c19 -23 57 -138 49 -150 -9 -14 -25 -2 -19 14 5 13
-60 67 -175 146 l-34 24 38 33 39 33 45 -42 c25 -24 50 -50 57 -58z m-686 -69
l41 -94 -27 -28 c-54 -56 -64 -31 -28 65 8 21 13 41 10 43 -7 7 -36 -65 -43
-104 -3 -18 -9 -33 -14 -33 -4 0 -30 22 -58 49 -28 27 -60 52 -71 56 -29 9
-25 16 30 54 28 19 62 50 76 68 15 19 30 31 34 26 5 -4 27 -50 50 -102z m123
47 c43 -37 55 -55 61 -86 7 -47 -9 -189 -25 -208 -7 -9 -7 -19 1 -33 14 -28
22 -27 15 2 -3 12 -1 34 4 47 8 19 10 -2 6 -80 -7 -116 -6 -442 0 -535 2 -33
9 -61 15 -63 5 -2 10 -11 10 -20 0 -12 -7 -9 -25 13 -26 32 -33 51 -14 39 14
-9 -5 29 -43 80 -15 22 -28 52 -28 68 0 66 -30 133 -93 211 -35 42 -83 115
-106 162 -23 47 -53 98 -66 113 -26 32 -55 96 -55 124 0 19 0 19 28 0 42 -30
124 -51 190 -48 33 2 64 6 70 10 6 3 22 -14 36 -39 24 -40 25 -48 16 -92 -9
-38 -46 -104 -96 -172 -2 -1 -13 4 -26 13 -33 24 -45 19 -20 -7 12 -13 22 -29
22 -35 0 -7 5 -12 11 -12 6 0 9 7 5 15 -3 8 0 15 7 15 19 1 94 120 110 177
l16 52 -50 82 c-77 127 -83 144 -68 211 15 65 12 65 92 -4z m250 -5 c11 -47
11 -67 3 -81 -6 -10 -24 -42 -41 -71 -50 -87 -86 -141 -96 -141 -12 0 -17 29
-23 136 -5 83 -4 94 16 119 21 27 118 108 124 103 1 -2 9 -31 17 -65z m129 13
c23 -33 52 -60 75 -71 l37 -18 -24 -16 c-14 -9 -43 -32 -65 -52 -54 -49 -79
-54 -83 -14 -1 17 -10 49 -18 73 -12 33 -14 49 -5 70 6 15 15 39 20 55 6 15
14 27 18 27 5 0 25 -24 45 -54z m-603 18 c-36 -43 -199 -149 -199 -130 0 3 26
23 58 45 31 21 75 55 97 74 38 34 69 41 44 11z m520 -138 c6 -25 11 -52 11
-60 0 -25 -33 -18 -53 10 -17 23 -18 27 -3 43 9 10 16 25 16 34 0 33 18 16 29
-27z m-596 -5 c50 -34 85 -71 68 -71 -34 0 -131 67 -131 90 0 17 20 11 63 -19z
m815 12 c-5 -29 -129 -102 -128 -76 1 10 109 93 122 93 5 0 8 -8 6 -17z m-868
-78 c15 -77 13 -161 -6 -197 -8 -15 -16 -28 -17 -28 -7 0 6 156 14 165 15 15
10 28 -6 15 -13 -11 -15 -3 -15 61 1 84 11 78 30 -16z m-39 -232 c-7 -132 -14
-161 -31 -133 -8 12 -13 13 -29 3 -18 -12 -19 -9 -14 90 4 71 10 109 22 126
33 49 52 84 47 88 -2 2 -12 -9 -22 -26 l-18 -30 -19 27 c-19 27 -19 27 -12 2
4 -14 11 -29 15 -34 5 -5 2 -19 -7 -32 -10 -15 -15 -48 -15 -96 -1 -40 -5 -79
-11 -86 -5 -7 -7 -15 -4 -19 4 -3 0 -15 -8 -27 -19 -26 -19 -109 0 -145 10
-21 12 -47 8 -99 -3 -39 -9 -69 -13 -67 -4 3 -6 -17 -4 -43 l3 -47 -10 50 c-5
28 -9 86 -8 130 2 127 0 165 -12 165 -6 0 -8 -12 -5 -32 5 -25 4 -28 -3 -13
-7 14 -9 -8 -9 -70 l2 -90 6 70 6 70 2 -71 c1 -39 5 -112 8 -162 5 -67 4 -92
-5 -92 -7 0 -11 22 -11 63 0 34 -6 74 -14 89 -13 24 -12 26 2 21 14 -5 15 -3
5 8 -8 8 -13 42 -13 88 0 41 -3 71 -7 67 -4 -3 -6 -25 -4 -48 3 -58 -7 -43
-13 18 -4 50 19 123 43 138 6 4 9 11 6 16 -7 11 23 61 42 73 7 4 13 24 13 43
0 19 -4 33 -9 30 -5 -3 -7 -14 -4 -24 2 -10 -2 -24 -10 -31 -13 -10 -14 -7 -7
21 4 18 13 47 18 63 6 17 13 65 17 108 7 91 19 123 54 142 l26 13 7 -86 c4
-48 3 -146 -1 -219z m944 152 c4 -11 20 -33 36 -50 25 -28 28 -39 34 -138 l8
-109 -22 14 c-18 11 -23 11 -31 -2 -7 -11 -10 -8 -10 15 0 17 -7 65 -15 108
-8 43 -15 103 -15 132 0 34 -5 57 -15 65 -11 9 -13 24 -9 54 10 72 18 73 24 1
4 -38 11 -79 15 -90z m44 118 c40 -38 47 -79 21 -121 -17 -28 -23 -32 -35 -22
-8 7 -17 26 -19 44 -11 70 -13 126 -5 126 5 0 22 -12 38 -27z m-94 -30 c-9
-38 -152 -295 -186 -336 -15 -17 -31 -29 -35 -24 -4 4 3 19 17 34 l24 27 -29
-18 c-33 -21 -28 -25 -101 80 -51 74 -54 108 -15 171 34 54 44 57 109 37 33
-10 143 10 174 32 43 30 50 29 42 -3z m-562 3 c7 -19 -1 -26 -31 -26 -24 0
-25 1 -7 20 21 24 31 25 38 6z m307 -1 c14 -16 10 -18 -14 -9 -9 3 -16 10 -16
15 0 14 16 11 30 -6z m-145 -126 c14 -14 13 -19 -5 -40 l-20 -24 9 26 c6 16 6
30 1 35 -5 5 -12 36 -14 69 l-5 60 10 -54 c5 -30 16 -62 24 -72z m419 63 c2
-4 6 -48 7 -97 1 -50 6 -98 11 -107 13 -27 18 -118 7 -118 -6 0 -9 6 -6 13 2
6 -5 36 -15 65 -11 29 -18 63 -15 74 3 12 -1 37 -9 57 -22 52 -4 152 20 113z
m122 -69 c-4 -40 -3 -52 4 -38 6 13 7 -2 3 -48 -3 -38 -2 -72 3 -75 15 -11 65
-92 69 -112 2 -10 11 -32 20 -50 16 -30 13 -70 -6 -70 -5 0 -8 -21 -8 -47 l2
-48 6 39 c3 22 12 41 19 44 10 3 13 -12 11 -67 -1 -39 -6 -71 -11 -71 -4 0 -8
5 -8 11 0 5 -4 8 -9 4 -9 -5 -13 14 -24 110 -2 17 -5 1 -6 -36 0 -36 4 -70 10
-76 8 -8 8 -17 0 -31 -6 -11 -11 -32 -11 -46 0 -14 -4 -26 -9 -26 -6 0 -8 44
-6 108 l4 107 -10 -95 c-5 -52 -8 -116 -7 -143 2 -26 0 -47 -3 -47 -13 0 -19
47 -20 160 -1 67 -4 102 -8 85 -6 -27 -8 -26 -13 20 -3 27 -10 51 -16 53 -5 1
-7 12 -4 24 5 19 6 18 19 -8 7 -16 10 -20 7 -9 -14 45 -16 103 -4 110 18 11
30 -14 31 -70 2 -48 2 -49 9 -15 l8 35 -1 -40 c-1 -27 -7 -40 -16 -40 -8 0
-15 -6 -17 -13 -2 -8 0 -8 3 -1 4 8 8 8 13 -1 14 -23 43 35 35 70 -4 16 -11
30 -16 30 -5 0 -9 8 -9 17 0 9 -10 28 -22 41 l-23 25 22 -12 c24 -12 55 -66
67 -114 4 -15 11 -25 16 -22 5 3 -2 29 -14 58 -13 28 -21 59 -19 67 3 11 2 12
-4 2 -13 -18 -63 37 -62 69 2 53 -10 151 -20 163 -8 9 -7 22 5 45 8 17 18 31
21 31 3 0 3 -26 -1 -57z m-874 -108 c22 -44 52 -94 65 -112 20 -26 22 -33 10
-33 -9 0 -21 9 -27 21 -7 11 -14 18 -17 15 -3 -3 0 -12 6 -20 17 -21 3 -83
-22 -101 -30 -21 -32 -12 -10 42 23 56 23 83 0 137 -9 21 -17 41 -17 44 0 3
-11 22 -24 41 -13 20 -27 47 -31 61 -6 24 -6 25 10 5 9 -11 35 -56 57 -100z
m447 -54 l62 -82 -25 -29 c-30 -36 -66 -129 -66 -173 0 -20 -17 -60 -44 -105
-27 -44 -42 -81 -39 -90 4 -11 3 -13 -4 -7 -5 6 -7 80 -4 185 4 96 4 225 1
285 -5 97 -3 114 14 144 l19 34 12 -40 c7 -22 40 -77 74 -122z m-457 11 c20
-53 24 -127 6 -138 -6 -4 -8 -3 -5 4 7 10 -14 137 -29 177 -4 11 -3 17 2 12 4
-4 16 -29 26 -55z m326 -107 c0 -98 -4 -162 -10 -159 -9 6 -9 300 -1 317 11
19 13 -5 11 -158z m-452 75 l-14 -65 -1 53 c-1 29 4 63 11 75 18 34 19 9 4
-63z m1031 38 c-3 -8 -6 -5 -6 6 -1 11 2 17 5 13 3 -3 4 -12 1 -19z m-282 -5
c-4 -10 -8 -46 -10 -79 -3 -51 -1 -65 16 -79 22 -21 25 -63 5 -71 -10 -4 -12
-14 -5 -44 5 -22 7 -50 5 -62 -3 -13 -5 -25 -5 -28 -1 -2 -8 5 -16 17 -11 16
-13 28 -6 46 5 14 7 27 4 31 -11 11 7 57 20 49 7 -4 4 4 -6 17 -9 14 -24 39
-33 56 -15 28 -15 33 1 63 9 18 14 35 11 38 -2 3 -12 -9 -21 -26 -8 -17 -22
-31 -30 -31 -9 0 -5 -9 12 -26 26 -27 27 -39 0 -28 -9 3 -14 13 -11 22 5 15 4
15 -9 0 -8 -10 -19 -18 -24 -18 -6 0 -17 -7 -24 -17 -13 -15 -12 -15 8 -5 12
7 31 12 42 12 21 0 85 -49 65 -50 -6 0 -17 7 -24 15 -9 11 -28 15 -61 14 -27
-2 -47 -5 -44 -7 2 -3 -2 -17 -10 -33 -8 -15 -15 -42 -15 -59 0 -33 -34 -112
-56 -131 -21 -17 -17 -2 11 39 14 21 25 51 25 70 0 18 7 48 15 68 14 35 15 37
15 53 0 5 6 16 13 23 38 40 116 136 126 156 14 26 26 30 16 5z m-806 -107 c7
-8 8 -17 3 -20 -4 -2 -19 -37 -32 -77 -24 -72 -24 -72 -37 -43 -14 34 -17 120
-4 129 17 10 29 -26 20 -64 -14 -58 -8 -71 7 -16 7 28 11 58 8 67 -10 34 14
50 35 24z m1037 2 c10 -15 5 -77 -6 -98 -7 -11 -11 -9 -21 13 -7 15 -20 27
-31 27 -22 0 -24 16 -2 24 19 7 17 10 37 -29 9 -16 16 -24 17 -17 0 7 -7 24
-16 37 -16 25 -13 55 5 55 5 0 13 -6 17 -12z m-988 -67 c1 -25 -3 -64 -9 -86
-10 -39 -91 -207 -97 -201 -1 2 2 42 7 89 11 92 52 197 78 197 8 0 11 5 7 12
-5 7 -15 2 -31 -18 -27 -34 -31 -21 -5 17 9 14 23 24 30 22 6 -3 12 0 12 6 0
6 -5 11 -11 11 -5 0 -7 5 -3 11 11 19 21 -9 22 -60z m222 22 c0 -7 -7 -13 -16
-13 -11 0 -14 5 -10 16 3 9 6 21 6 27 0 16 20 -14 20 -30z m47 10 c11 -16 19
-31 19 -34 -1 -4 6 -15 15 -25 17 -20 28 -58 34 -120 2 -25 0 -33 -6 -23 -5 8
-9 10 -9 6 0 -10 28 -64 50 -97 73 -108 73 -108 61 -141 -6 -18 -11 -42 -11
-55 0 -40 -56 -71 -159 -89 -41 -7 -68 -20 -100 -49 l-24 -21 7 59 c4 38 3 63
-5 72 -6 7 -13 46 -14 85 -2 39 -6 73 -8 76 -6 6 80 180 93 188 6 4 8 11 4 16
-3 5 7 30 22 56 25 43 28 45 40 28 20 -27 18 -31 -23 -56 -20 -13 -31 -25 -25
-27 7 -2 3 -17 -13 -40 -13 -20 -27 -50 -31 -67 -4 -16 -18 -47 -31 -68 -13
-21 -22 -44 -20 -50 2 -7 14 8 27 33 26 50 123 150 146 150 29 0 4 111 -30
140 -13 10 -14 15 -4 21 8 5 4 10 -14 14 -14 4 -28 15 -31 26 -8 28 16 23 40
-8z m673 23 c0 -11 -19 -15 -25 -6 -3 5 1 10 9 10 9 0 16 -2 16 -4z m-710 -58
c-19 -5 -45 -18 -56 -29 -19 -18 -20 -25 -12 -67 13 -65 14 -59 -20 -134 -49
-106 -72 -107 -47 -3 20 87 25 94 42 59 11 -25 12 -25 7 -4 -15 55 -12 129 5
144 25 23 74 46 96 45 12 0 5 -5 -15 -11z m732 -41 c25 -40 39 -93 53 -202 l7
-50 -33 60 c-63 117 -70 133 -76 183 -7 66 11 70 49 9z m-736 -11 c-14 -25
-26 -54 -26 -65 0 -30 -17 -26 -24 7 -5 24 -2 71 6 77 14 10 46 24 56 25 10 0
6 -14 -12 -44z m446 -28 c22 -46 14 -48 -32 -9 l-35 29 20 22 c14 15 21 18 24
8 2 -7 12 -30 23 -50z m39 52 c14 -8 19 -21 19 -55 0 -64 -16 -64 -45 1 -14
31 -25 58 -25 60 0 8 32 4 51 -6z m-63 -93 c7 -9 17 -15 22 -12 19 12 48 -16
75 -72 16 -32 32 -66 37 -75 4 -10 8 -30 8 -45 -1 -26 -3 -24 -25 18 -13 25
-31 51 -39 58 -9 8 -16 22 -16 33 0 21 -29 82 -36 76 -2 -3 3 -19 12 -37 22
-45 12 -48 -20 -7 -14 19 -35 38 -46 41 -14 5 -20 15 -20 37 0 28 2 29 18 17
9 -8 23 -22 30 -32z m-345 6 c3 -15 -3 -27 -17 -37 -12 -8 -36 -28 -53 -46
-40 -39 -44 -19 -8 35 15 20 24 40 21 43 -10 9 12 28 33 28 12 0 21 -8 24 -23z
m157 -8 c0 -8 -4 -15 -10 -15 -5 0 -10 7 -10 15 0 8 5 15 10 15 6 0 10 -7 10
-15z m-663 -58 c-3 -20 0 -40 9 -52 15 -21 20 -150 5 -141 -5 3 -6 26 -4 50 7
54 -3 89 -17 66 -12 -18 -13 -33 -2 -26 4 2 7 -8 6 -22 -3 -63 -3 -63 -24 -52
-16 9 -18 15 -10 31 6 11 8 24 5 29 -3 5 -1 20 6 32 7 12 11 44 10 70 -1 31 3
48 10 48 8 0 10 -12 6 -33z m663 -13 c0 -25 -4 -43 -9 -40 -4 3 -8 24 -8 46 0
22 4 40 8 40 5 0 9 -21 9 -46z m215 -17 c64 -67 115 -155 115 -198 0 -15 -7
-43 -16 -64 -17 -41 -14 -137 5 -188 14 -36 13 -177 -3 -337 l-11 -125 -14 71
c-9 46 -11 93 -6 135 4 35 9 123 11 196 l3 131 -36 17 c-20 10 -65 23 -101 31
-74 16 -129 52 -137 92 -3 15 -9 39 -14 54 -6 18 -4 34 5 50 7 13 20 37 28 53
8 17 28 43 45 59 16 16 33 42 36 57 4 16 12 29 18 29 6 0 39 -28 72 -63z m139
-36 c12 -67 12 -70 -4 -56 -24 22 -43 91 -34 127 9 42 20 21 38 -71z m-430 6
c15 -21 26 -40 23 -43 -4 -4 -16 12 -54 74 -21 34 -5 19 31 -31z m754 -12 c18
-39 14 -53 -5 -25 -10 14 -17 29 -15 33 1 5 -2 6 -8 2 -5 -3 -10 -1 -10 4 0
21 27 11 38 -14z m-38 -47 c0 -26 -4 -38 -8 -30 -8 12 -4 72 4 72 2 0 4 -19 4
-42z m-609 -1 c-10 -9 -11 -8 -5 6 3 10 9 15 12 12 3 -3 0 -11 -7 -18z m653
-21 c18 -35 13 -46 -18 -46 -20 0 -22 4 -18 26 l5 27 19 -24 c18 -22 18 -20
-1 14 -12 21 -21 41 -21 45 0 11 18 -12 34 -42z m-1062 -68 c-2 -38 -8 -68
-12 -68 -5 0 -6 26 -3 58 9 106 23 115 15 10z m743 -35 c-3 -18 -1 -34 5 -38
15 -9 28 4 14 13 -6 4 -7 18 -4 32 15 53 22 -51 17 -223 -5 -173 -19 -261 -57
-375 -18 -52 -19 -53 -15 -17 3 22 10 99 16 172 9 112 9 140 -5 185 -26 92
-30 152 -12 189 10 20 16 59 17 103 l0 71 15 -40 c9 -23 12 -54 9 -72z m259
81 c8 -29 3 -39 -13 -29 -13 8 -15 55 -2 55 5 0 12 -12 15 -26z m-958 -199 c4
-45 1 -83 -8 -110 -16 -50 -17 -149 -1 -240 7 -38 17 -95 22 -125 8 -51 9 -52
10 -15 0 22 -6 81 -14 130 -19 114 -19 206 -1 250 8 19 17 35 18 35 2 0 2 -28
0 -63 -2 -38 3 -94 13 -140 15 -66 15 -89 5 -164 -6 -48 -13 -90 -16 -92 -27
-28 -104 304 -104 450 0 110 10 159 32 159 16 0 18 5 12 35 -3 19 -3 52 2 73
8 35 9 33 16 -38 5 -41 11 -106 14 -145z m714 180 c0 -5 -5 -3 -10 5 -5 8 -10
20 -10 25 0 6 5 3 10 -5 5 -8 10 -19 10 -25z m-1012 -21 c23 -4 42 -12 42 -19
0 -8 -15 -10 -54 -4 -60 8 -76 14 -76 31 0 6 9 8 23 4 12 -3 41 -9 65 -12z
m1334 -6 c-15 -15 -122 -23 -122 -9 0 6 17 11 43 11 23 0 49 4 57 9 17 12 36
3 22 -11z m-1412 -17 c0 -5 -7 -11 -14 -14 -16 -6 -51 -66 -43 -73 2 -3 14 11
25 31 12 19 26 35 32 35 15 0 12 -50 -6 -85 l-14 -30 5 28 c14 75 13 78 -3 30
-9 -29 -24 -59 -32 -67 -25 -26 -21 91 5 126 19 27 45 37 45 19z m1459 -20
c29 -27 42 -61 23 -61 -9 0 -72 74 -72 84 0 14 20 4 49 -23z m-1396 5 c3 3 5
-1 4 -8 -2 -48 4 -78 14 -72 16 9 1 -36 -20 -60 -9 -11 -10 -16 -3 -12 7 4 12
1 12 -8 0 -25 -20 -19 -30 10 -12 31 -12 37 -1 30 14 -9 23 66 12 94 -6 17
-10 19 -10 8 -2 -32 -21 -30 -21 2 0 27 2 29 19 21 10 -6 21 -8 24 -5z m1341
-6 c3 -11 8 -28 11 -39 4 -11 0 -21 -10 -25 -9 -3 -13 -2 -10 4 4 6 -3 22 -15
37 -16 20 -18 28 -8 35 20 12 26 10 32 -12z m-1299 -28 c1 -18 9 -40 19 -49
18 -17 19 -17 12 0 -3 10 -6 25 -6 33 0 9 -4 13 -9 10 -5 -4 -7 3 -4 14 7 28
11 25 22 -17 6 -23 6 -52 2 -73 -6 -24 -9 -28 -10 -12 -1 12 -5 22 -9 22 -5 0
-16 16 -25 35 -12 24 -13 35 -5 35 9 0 9 3 0 12 -16 16 -15 31 1 25 6 -2 12
-18 12 -35z m1182 -3 c-3 -24 0 -58 9 -82 8 -22 12 -42 10 -44 -9 -9 -35 43
-35 67 1 42 10 100 16 100 3 0 3 -18 0 -41z m32 -19 c-1 -33 -6 -60 -11 -60
-4 0 -8 27 -8 60 0 35 4 60 11 60 6 0 9 -23 8 -60z m26 -25 c0 -65 -3 -85 -14
-85 -8 0 -11 6 -7 16 3 9 6 47 6 85 0 38 3 69 8 69 4 0 7 -38 7 -85z m92 -65
c21 -20 20 -16 -7 18 -18 24 -30 45 -27 48 3 3 10 -1 16 -8 6 -7 20 -24 31
-38 l21 -25 -19 40 c-11 22 -23 51 -27 65 l-7 25 25 -25 c31 -33 42 -89 23
-115 -12 -16 -19 -18 -33 -9 -20 12 -82 121 -83 144 0 8 14 -10 31 -40 16 -30
42 -66 56 -80z m-1400 58 c-8 -18 -12 -49 -9 -67 3 -25 1 -32 -8 -26 -6 4 -10
15 -7 25 3 13 0 17 -9 13 -8 -3 -14 -11 -14 -19 0 -9 -9 -13 -25 -12 -30 3
-30 6 -4 38 20 24 20 24 9 2 -6 -13 -10 -26 -7 -28 3 -3 22 25 43 61 39 67 57
74 31 13z m1376 -80 c8 -5 5 -9 -7 -14 -25 -10 -44 14 -51 66 l-7 45 27 -45
c15 -25 32 -48 38 -52z m-764 -104 c-9 -144 -9 -188 2 -224 11 -37 21 -301 11
-270 -2 6 -7 8 -11 6 -3 -2 -5 12 -4 32 8 121 8 171 0 163 -5 -5 -9 -55 -10
-111 -1 -83 2 -105 15 -114 22 -16 36 -149 18 -171 -19 -23 -30 -18 -29 13 l1
27 8 -25 c6 -20 8 -21 9 -6 1 11 -8 45 -18 75 -18 54 -36 165 -22 143 11 -18
3 280 -9 348 -7 36 -10 81 -8 100 l3 35 17 -45 c9 -25 17 -37 17 -27 1 10 -6
34 -14 54 -19 46 -11 151 13 170 8 7 17 11 19 9 2 -2 -1 -84 -8 -182z m147
105 c1 -50 -15 -126 -36 -174 -5 -11 -11 -29 -13 -40 -7 -33 -8 135 -1 219 7
75 7 76 28 62 17 -11 21 -24 22 -67z m-684 31 c2 -16 -2 -26 -13 -28 -12 -2
-14 5 -11 33 5 39 18 36 24 -5z m487 -112 c-3 -149 5 -324 16 -358 5 -15 3
-20 -3 -16 -7 4 -10 -24 -7 -89 2 -52 0 -95 -4 -95 -20 0 -46 79 -51 153 -3
42 -4 77 -3 77 7 0 28 -52 37 -95 l12 -50 -1 82 c0 50 -3 74 -8 61 -7 -21 -8
-21 -22 -2 -9 11 -14 42 -15 77 0 31 -7 103 -15 159 -20 129 -12 215 19 221
49 10 47 15 45 -125z m287 74 c6 -32 4 -93 -12 -307 -4 -49 -12 -98 -19 -108
-11 -16 -15 -9 -29 56 -13 58 -14 84 -6 121 7 32 7 66 0 109 -5 34 -10 90 -10
124 l0 61 35 -11 c29 -8 36 -16 41 -45z m-374 -23 c-3 -33 1 -93 7 -132 15
-96 16 -330 2 -392 -16 -70 -43 -145 -53 -145 -4 0 -8 -18 -8 -39 0 -22 -5
-43 -11 -46 -14 -9 -4 59 16 100 7 17 21 63 30 104 19 80 16 112 -24 301 -24
109 -26 156 -10 232 16 77 17 78 37 78 16 0 18 -7 14 -61z m437 1 c11 -41 10
-74 -6 -207 -18 -156 -22 -335 -9 -403 l7 -35 -15 39 c-8 21 -12 45 -9 54 4 8
2 13 -3 9 -11 -6 -11 -8 -22 133 -5 58 -5 139 -1 180 4 41 8 123 8 182 1 98 2
106 19 101 12 -3 23 -21 31 -53z m-497 8 c-16 -71 -6 -221 22 -345 22 -97 27
-133 20 -170 l-8 -48 -7 80 c-3 44 -14 105 -22 135 -39 135 -52 333 -24 368
17 22 27 13 19 -20z m528 22 c24 -15 19 -233 -7 -331 -12 -41 -23 -106 -26
-145 l-6 -69 10 60 c6 33 14 76 19 95 8 28 8 22 4 -25 -8 -82 -6 -159 6 -190
6 -15 10 -45 9 -68 -1 -41 -1 -41 -10 -12 -5 17 -13 55 -18 85 l-9 55 1 -66
c1 -37 5 -65 8 -63 13 8 19 -78 8 -120 -9 -35 -8 -58 3 -108 9 -37 11 -77 7
-97 -4 -19 -3 -45 2 -58 5 -14 9 -30 8 -36 0 -7 -4 -3 -8 8 -7 18 -9 17 -15
-10 -7 -34 -37 -58 -60 -49 -32 12 -51 118 -41 231 6 63 12 79 36 106 16 17
30 37 30 44 1 7 3 18 4 23 1 6 3 13 4 18 1 4 8 -6 16 -23 l15 -30 -6 35 c-4
19 -11 40 -16 47 -5 7 -7 16 -4 21 3 5 1 50 -5 100 -9 74 -8 114 5 209 23 178
30 293 18 336 -11 38 -7 43 18 27z m-175 -204 c-11 -131 -13 -373 -2 -345 5
13 6 68 3 122 -3 53 -4 97 -2 97 2 0 9 -31 16 -68 8 -50 8 -81 0 -117 -6 -27
-15 -81 -20 -120 -5 -39 -16 -84 -24 -100 -8 -16 -13 -41 -10 -55 5 -23 4 -23
-7 -6 -16 26 -6 157 15 189 10 15 14 32 9 43 -6 17 -8 17 -14 -6 -4 -14 -7 11
-7 60 0 49 3 74 7 60 6 -22 8 -23 14 -7 4 10 2 28 -5 40 -15 29 -14 206 3 261
20 68 32 44 24 -48z m-48 -128 c-2 -18 -4 -4 -4 32 0 36 2 50 4 33 2 -18 2
-48 0 -65z m-297 -107 c14 -77 8 -227 -10 -245 -9 -8 -10 0 -6 34 17 115 18
162 2 210 -18 55 -20 70 -8 70 5 0 15 -31 22 -69z m420 -40 c0 -32 7 -77 15
-100 13 -38 13 -43 -3 -61 -9 -11 -19 -20 -23 -20 -16 0 -18 33 -4 53 8 12 15
28 15 37 0 8 -14 -6 -30 -32 -17 -27 -32 -48 -35 -48 -3 0 -3 17 0 38 29 180
65 254 65 133z m-436 17 c9 -35 7 -136 -3 -142 -12 -8 -17 17 -20 97 -2 65 10
90 23 45z m555 -95 c1 -18 -3 -33 -9 -33 -6 0 -10 30 -9 73 1 65 2 68 10 32 4
-22 8 -55 8 -72z m-434 -54 c11 -23 11 -29 -3 -43 -14 -14 -17 -14 -29 2 -10
11 -12 12 -7 2 18 -37 26 -41 41 -20 18 26 29 25 44 -1 8 -15 8 -28 1 -43 -6
-11 -18 -43 -28 -69 -20 -55 -29 -48 -33 24 -1 31 -10 62 -21 78 -16 23 -17
32 -7 85 9 51 12 56 20 35 5 -13 15 -36 22 -50z m355 -37 c0 -5 -9 -17 -20
-27 -22 -20 -26 -14 -10 16 11 19 30 26 30 11z m-59 -26 c8 -16 8 -44 2 -87
l-9 -64 -24 72 c-20 60 -21 74 -11 87 19 22 30 20 42 -8z m-336 -20 c10 -14
16 -44 15 -73 0 -26 6 -84 14 -128 8 -44 15 -100 15 -124 1 -50 -33 -131 -54
-131 -8 0 -25 19 -39 43 -14 23 -26 35 -26 26 0 -9 9 -28 20 -42 11 -14 20
-31 20 -39 0 -7 14 -42 32 -78 17 -36 32 -78 34 -95 2 -16 6 -59 9 -95 4 -36
9 -72 13 -80 9 -22 10 -90 2 -90 -4 0 -10 7 -14 15 -3 8 -1 15 5 15 6 0 -3 11
-18 25 -15 13 -22 25 -15 25 6 0 12 -4 12 -9 0 -5 7 -11 15 -15 9 -3 15 0 15
10 0 8 -4 13 -9 10 -5 -3 -13 0 -18 7 -10 12 -26 122 -24 165 0 12 -3 22 -7
22 -11 0 -33 61 -26 72 3 5 -1 19 -9 32 -24 36 -49 131 -42 159 4 14 2 28 -4
31 -6 4 -10 22 -10 39 1 20 3 24 6 12 10 -46 27 -77 54 -96 16 -11 33 -17 39
-14 22 14 4 140 -46 313 -9 30 -13 56 -10 60 3 3 6 1 6 -4 0 -16 41 -77 47
-70 3 3 -2 15 -11 25 -21 23 -34 101 -18 101 7 0 19 -11 27 -24z m407 12 c7
-21 -21 -101 -42 -122 -19 -20 -19 -19 -13 35 8 68 43 123 55 87z m-81 -278
c-1 -63 -5 -124 -8 -135 -8 -29 -33 -55 -54 -55 -53 0 -62 67 -29 209 11 47
22 94 25 105 2 10 0 28 -4 40 -4 11 -4 32 0 46 6 22 7 21 8 -12 1 -20 6 -38
12 -40 15 -5 16 -178 1 -205 -14 -25 -37 -30 -45 -10 -4 7 -6 6 -6 -4 -1 -9 6
-19 14 -23 53 -20 79 79 56 214 -6 30 -12 71 -16 90 -3 21 5 7 21 -35 23 -62
26 -83 25 -185z m-180 7 c12 -59 3 -87 -26 -87 -19 0 -25 38 -27 163 0 71 -4
101 -8 82 -18 -74 -4 -240 23 -257 6 -4 23 0 36 9 l24 15 -5 -46 c-9 -76 -48
-100 -86 -52 -15 20 -20 49 -26 138 -4 62 -7 118 -7 123 0 6 11 40 23 76 l23
65 23 -85 c12 -47 27 -112 33 -144z m-177 86 c32 -156 39 -203 31 -211 -4 -4
-10 -2 -12 5 -2 7 -10 10 -17 7 -18 -7 -44 60 -49 124 -2 32 -1 48 4 40 10
-15 14 14 10 80 -4 72 14 47 33 -45z m503 -175 c-2 -13 -4 -5 -4 17 -1 22 1
32 4 23 2 -10 2 -28 0 -40z m-386 -112 c12 -8 27 -12 32 -9 7 4 7 0 2 -13 -5
-10 -11 -101 -13 -200 -3 -153 -1 -187 13 -213 9 -18 20 -29 25 -26 4 3 5 -7
1 -22 -4 -16 -10 -27 -14 -25 -4 1 -21 2 -38 2 l-32 0 8 42 c20 107 -3 251
-61 377 -39 85 -38 81 -19 81 8 0 25 14 37 30 20 28 23 29 29 11 4 -10 18 -26
30 -35z m259 28 c0 -8 11 -19 24 -26 l25 -11 -25 -56 c-34 -75 -74 -215 -74
-256 0 -46 21 -135 32 -135 5 0 7 9 3 19 -3 11 -1 22 4 26 6 3 9 0 8 -7 -2 -7
1 -3 7 10 9 20 26 31 26 17 0 -13 -30 -62 -44 -74 -9 -7 -14 -17 -11 -21 8
-13 -15 -24 -49 -24 -33 1 -32 -4 -23 81 1 11 5 19 9 17 10 -7 28 65 27 111 0
22 -5 93 -12 157 -13 127 -13 138 9 138 8 0 22 13 32 29 17 30 32 32 32 5z
m95 -34 c-9 -24 -22 -51 -29 -60 -43 -49 -86 -174 -86 -252 0 -28 -5 -48 -11
-48 -26 0 13 177 66 296 22 49 66 115 73 109 1 -1 -5 -21 -13 -45z m-295 -57
c-13 -68 -29 -115 -30 -83 0 24 20 143 27 152 13 22 14 -7 3 -69z m104 5 c4
-29 10 -64 13 -78 3 -14 2 -22 -2 -18 -4 4 -13 40 -21 80 -17 86 -16 80 -5 74
4 -3 11 -29 15 -58z m142 -134 c-14 -54 -27 -115 -29 -134 -6 -47 -16 -67 -33
-74 -23 -9 -16 22 8 35 14 8 18 14 10 17 -16 5 -15 45 3 117 18 66 53 151 60
143 3 -2 -6 -49 -19 -104z m-267 -154 c-4 -21 -7 8 -6 70 0 97 1 100 6 35 4
-38 4 -86 0 -105z m141 74 c0 -72 -3 -95 -12 -92 -7 3 -14 13 -16 24 -3 16 -1
16 7 4 8 -11 10 -7 9 20 -3 54 1 140 7 140 3 0 5 -43 5 -96z m-203 -46 c-3 -7
-5 -2 -5 12 0 14 2 19 5 13 2 -7 2 -19 0 -25z m80 -40 c-3 -7 -5 -2 -5 12 0
14 2 19 5 13 2 -7 2 -19 0 -25z m1 -55 c1 -27 -1 -34 -8 -23 -5 8 -7 17 -4 21
2 4 -2 10 -8 12 -10 4 -9 8 2 16 8 6 15 11 16 11 0 0 1 -17 2 -37z m122 27 c0
-5 -4 -10 -10 -10 -5 0 -10 5 -10 10 0 6 5 10 10 10 6 0 10 -4 10 -10z m-231
-45 c11 -19 15 -35 9 -35 -7 0 -6 -5 2 -15 10 -12 9 -16 -4 -21 -24 -9 -30 1
-16 26 6 12 10 24 7 26 -2 2 -12 -12 -23 -31 -10 -19 -22 -35 -27 -35 -18 0
-17 30 2 61 12 19 21 27 21 19 -1 -8 -7 -24 -15 -34 -8 -11 -15 -25 -15 -30 0
-6 10 5 22 24 12 19 21 37 21 40 -1 3 -5 13 -8 23 -12 29 2 19 24 -18z m347 6
c-3 -5 5 -16 19 -25 14 -9 25 -24 25 -34 0 -13 -7 -9 -31 15 -26 26 -33 53
-13 53 3 0 3 -4 0 -9z m46 -91 c3 0 8 9 11 21 6 23 30 21 35 -3 6 -30 -219
-53 -246 -26 -7 7 -12 19 -11 28 0 9 3 7 9 -7 8 -20 15 -21 82 -18 40 1 77 3
82 4 5 0 0 11 -12 24 -35 37 -25 44 11 9 18 -18 36 -32 39 -32z m-52 7 c0 -5
-7 -6 -16 -3 -9 3 -20 6 -25 6 -4 0 -6 7 -3 15 5 11 10 12 25 2 10 -6 19 -16
19 -20z m-420 3 c11 -20 50 -28 50 -11 0 5 15 6 33 2 17 -4 51 -7 75 -6 23 0
42 -3 42 -8 0 -11 -220 -5 -238 7 -10 6 -10 11 -1 22 16 19 26 18 39 -6z"/>
<path d="M4512 3024 c10 -10 20 -16 22 -13 3 3 -5 11 -17 18 -21 13 -21 12 -5
-5z"/>
<path d="M4440 2946 c0 -2 8 -10 18 -17 15 -13 16 -12 3 4 -13 16 -21 21 -21
13z"/>
<path d="M3755 2920 c-16 -17 -16 -20 -3 -15 9 4 19 13 22 21 7 19 2 18 -19
-6z"/>
<path d="M3713 2655 c0 -8 4 -12 9 -9 5 3 6 10 3 15 -9 13 -12 11 -12 -6z"/>
<path d="M3894 2334 c1 -8 4 -15 7 -16 2 -2 3 -1 2 1 -2 2 2 9 7 16 7 8 5 12
-4 12 -8 0 -13 -6 -12 -13z"/>
<path d="M4086 2732 c-3 -5 1 -9 9 -9 8 0 12 4 9 9 -3 4 -7 8 -9 8 -2 0 -6 -4
-9 -8z"/>
<path d="M3440 2417 c-8 -12 -15 -27 -15 -33 0 -6 -5 -18 -11 -25 -22 -30 -45
-91 -32 -87 7 3 16 20 20 39 5 19 20 44 33 56 16 14 20 23 12 26 -9 3 -9 8 2
21 8 9 12 18 10 21 -3 2 -11 -6 -19 -18z"/>
<path d="M4180 2696 c0 -2 9 -6 20 -9 11 -3 18 -1 14 4 -5 9 -34 13 -34 5z"/>
<path d="M4600 2438 c0 -8 12 -25 27 -39 l27 -24 -24 35 c-13 19 -25 37 -27
39 -2 2 -3 -2 -3 -11z"/>
<path d="M4703 2160 c0 -30 2 -43 4 -27 2 15 2 39 0 55 -2 15 -4 2 -4 -28z"/>
<path d="M3835 2190 c-3 -5 -1 -10 4 -10 6 0 11 5 11 10 0 6 -2 10 -4 10 -3 0
-8 -4 -11 -10z"/>
<path d="M3350 1970 c-6 -11 -8 -20 -6 -20 3 0 10 9 16 20 6 11 8 20 6 20 -3
0 -10 -9 -16 -20z"/>
<path d="M4130 1836 c0 -2 8 -10 18 -17 15 -13 16 -12 3 4 -13 16 -21 21 -21
13z"/>
<path d="M4083 1620 c0 -41 2 -58 4 -37 2 20 2 54 0 75 -2 20 -4 3 -4 -38z"/>
<path d="M4256 899 c-32 -116 -36 -136 -36 -200 0 -47 4 -68 14 -72 17 -7 58
14 64 32 4 11 -1 10 -19 -2 -13 -10 -29 -17 -36 -17 -21 0 -16 84 12 199 27
108 27 153 1 60z"/>
<path d="M4102 1200 c0 -19 2 -27 5 -17 2 9 2 25 0 35 -3 9 -5 1 -5 -18z"/>
<path d="M3850 409 c12 -23 24 -38 27 -35 5 5 -35 76 -43 76 -2 0 5 -18 16
-41z"/>
<path d="M4200 3853 c0 -1 8 -7 18 -12 13 -7 19 -6 19 2 0 7 -9 13 -19 13 -10
0 -18 -1 -18 -3z"/>
<path d="M2226 3827 c3 -10 9 -15 12 -12 3 3 0 11 -7 18 -10 9 -11 8 -5 -6z"/>
<path d="M2083 3805 c0 -8 4 -12 9 -9 5 3 6 10 3 15 -9 13 -12 11 -12 -6z"/>
<path d="M4290 3656 c0 -2 8 -10 18 -17 15 -13 16 -12 3 4 -13 16 -21 21 -21
13z"/>
<path d="M3865 3531 c-3 -5 -2 -12 3 -15 5 -3 9 1 9 9 0 17 -3 19 -12 6z"/>
<path d="M1750 3520 c0 -5 5 -10 11 -10 5 0 7 5 4 10 -3 6 -8 10 -11 10 -2 0
-4 -4 -4 -10z"/>
<path d="M2215 3511 c-3 -5 -2 -12 3 -15 5 -3 9 1 9 9 0 17 -3 19 -12 6z"/>
<path d="M1771 3486 c-9 -11 -9 -16 1 -22 7 -4 10 -4 6 1 -4 4 -3 14 3 22 6 7
9 13 6 13 -2 0 -10 -6 -16 -14z"/>
<path d="M1687 3479 c7 -7 15 -10 18 -7 3 3 -2 9 -12 12 -14 6 -15 5 -6 -5z"/>
<path d="M3578 3363 c7 -3 16 -2 19 1 4 3 -2 6 -13 5 -11 0 -14 -3 -6 -6z"/>
<path d="M1690 3249 c0 -5 5 -7 10 -4 6 3 10 8 10 11 0 2 -4 4 -10 4 -5 0 -10
-5 -10 -11z"/>
<path d="M2425 3209 c-9 -13 20 -28 35 -19 11 7 12 10 2 10 -7 0 -11 4 -8 8 3
5 -2 9 -10 9 -8 0 -17 -4 -19 -8z"/>
<path d="M1525 3180 c-3 -5 -1 -10 4 -10 6 0 11 5 11 10 0 6 -2 10 -4 10 -3 0
-8 -4 -11 -10z"/>
<path d="M1371 2474 c0 -11 3 -14 6 -6 3 7 2 16 -1 19 -3 4 -6 -2 -5 -13z"/>
<path d="M3370 2441 c0 -6 4 -13 10 -16 6 -3 7 1 4 9 -7 18 -14 21 -14 7z"/>
<path d="M1616 2337 c3 -10 9 -15 12 -12 3 3 0 11 -7 18 -10 9 -11 8 -5 -6z"/>
<path d="M1600 2165 c0 -2 6 -8 13 -14 10 -8 14 -7 14 2 0 8 -6 14 -14 14 -7
0 -13 -1 -13 -2z"/>
<path d="M3586 2117 c3 -10 9 -15 12 -12 3 3 0 11 -7 18 -10 9 -11 8 -5 -6z"/>
<path d="M3616 2087 c3 -10 9 -15 12 -12 3 3 0 11 -7 18 -10 9 -11 8 -5 -6z"/>
<path d="M3565 2030 c-3 -5 -1 -10 4 -10 6 0 11 5 11 10 0 6 -2 10 -4 10 -3 0
-8 -4 -11 -10z"/>
<path d="M1500 1971 c0 -6 4 -13 10 -16 6 -3 7 1 4 9 -7 18 -14 21 -14 7z"/>
<path d="M4863 1925 c0 -8 4 -12 9 -9 5 3 6 10 3 15 -9 13 -12 11 -12 -6z"/>
<path d="M1506 1913 c-6 -14 -5 -15 5 -6 7 7 10 15 7 18 -3 3 -9 -2 -12 -12z"/>
<path d="M3220 1919 c0 -5 5 -7 10 -4 6 3 10 8 10 11 0 2 -4 4 -10 4 -5 0 -10
-5 -10 -11z"/>
<path d="M3206 1853 c-6 -14 -5 -15 5 -6 7 7 10 15 7 18 -3 3 -9 -2 -12 -12z"/>
<path d="M2006 1335 c-9 -26 -7 -32 5 -12 6 10 9 21 6 23 -2 3 -7 -2 -11 -11z"/>
<path d="M1290 966 c0 -2 7 -7 16 -10 8 -3 12 -2 9 4 -6 10 -25 14 -25 6z"/>
<path d="M1293 923 c-18 -7 -16 -43 2 -43 8 0 15 4 15 10 0 5 8 7 18 3 15 -6
15 -4 -2 15 -11 12 -20 22 -20 21 -1 0 -7 -3 -13 -6z"/>
<path d="M1305 869 c-4 -5 -11 -7 -16 -4 -5 4 -9 2 -9 -3 0 -16 13 -22 27 -11
10 9 13 8 13 0 0 -7 5 -9 10 -6 6 3 10 10 10 15 0 12 -29 20 -35 9z"/>
<path d="M1298 832 c-10 -2 -18 -10 -18 -18 0 -18 51 -16 57 2 5 14 -15 22
-39 16z"/>
<path d="M1280 772 c0 -14 2 -15 10 -2 7 12 12 12 22 2 15 -15 28 -15 28 1 0
6 -14 13 -30 14 -23 2 -30 -2 -30 -15z"/>
<path d="M1298 752 c-10 -2 -18 -11 -18 -20 0 -10 3 -13 8 -7 10 14 32 17 32
4 0 -6 -9 -13 -20 -16 -13 -3 -20 -14 -20 -29 0 -20 5 -24 28 -24 26 0 28 3
29 40 1 42 -12 59 -39 52z m22 -64 c0 -4 -7 -8 -15 -8 -8 0 -15 4 -15 8 0 5 7
9 15 9 8 0 15 -4 15 -9z"/>
<path d="M1618 733 c7 -3 16 -2 19 1 4 3 -2 6 -13 5 -11 0 -14 -3 -6 -6z"/>
<path d="M1280 635 c0 -8 7 -15 15 -15 8 0 18 -12 21 -26 5 -17 10 -22 17 -15
7 7 6 15 -2 25 -8 10 -9 16 -1 21 16 10 1 25 -26 25 -15 0 -24 -6 -24 -15z"/>
<path d="M1980 610 c-6 -11 -8 -20 -6 -20 3 0 10 9 16 20 6 11 8 20 6 20 -3 0
-10 -9 -16 -20z"/>
<path d="M1283 580 c2 -28 7 -36 25 -38 16 -3 20 1 16 12 -3 9 -10 16 -15 16
-4 0 -5 7 -2 17 4 10 2 14 -4 10 -6 -4 -14 -1 -16 5 -3 7 -5 -3 -4 -22z"/>
<path d="M3390 530 c0 -5 5 -10 10 -10 6 0 10 5 10 10 0 6 -4 10 -10 10 -5 0
-10 -4 -10 -10z"/>
<path d="M1270 508 c0 -12 14 -14 50 -8 l35 6 -42 5 c-24 2 -43 1 -43 -3z"/>
<path d="M1293 468 c4 -12 2 -15 -9 -11 -7 3 -14 0 -14 -6 0 -6 17 -11 37 -11
20 0 34 1 32 3 -2 1 -15 11 -28 22 -21 17 -23 17 -18 3z"/>
<path d="M1320 470 c0 -5 5 -10 10 -10 6 0 10 5 10 10 0 6 -4 10 -10 10 -5 0
-10 -4 -10 -10z"/>
<path d="M3775 431 c-3 -5 -2 -12 3 -15 5 -3 9 1 9 9 0 17 -3 19 -12 6z"/>
<path d="M1292 398 c0 -16 7 -32 16 -38 14 -9 13 -10 -5 -5 -14 4 -23 2 -23
-5 0 -6 12 -10 27 -8 18 2 27 10 29 25 2 12 -1 25 -7 28 -7 5 -7 11 1 20 8 10
5 13 -13 11 -19 -1 -24 -7 -25 -28z m28 -18 c0 -5 -5 -10 -11 -10 -5 0 -7 5
-4 10 3 6 8 10 11 10 2 0 4 -4 4 -10z"/>
<path d="M1270 320 c0 -17 31 -24 41 -9 6 10 9 10 9 2 0 -7 5 -13 10 -13 16 0
12 20 -6 27 -9 3 -20 0 -25 -8 -6 -10 -9 -10 -9 -1 0 6 -4 12 -10 12 -5 0 -10
-5 -10 -10z"/>
<path d="M1320 281 c-18 -5 -24 -13 -23 -30 2 -12 -4 -24 -12 -27 -27 -11 -16
-24 20 -24 24 0 35 5 35 15 0 8 -8 15 -17 15 -15 0 -15 1 -1 13 12 9 34 50 25
46 -1 -1 -13 -4 -27 -8z"/>
<path d="M1290 175 c0 -11 7 -15 23 -13 12 2 22 8 22 13 0 6 -10 11 -22 13
-16 2 -23 -2 -23 -13z"/>
<path d="M1683 167 c-4 -6 -1 -7 7 -2 10 6 12 4 7 -8 -9 -23 0 -22 12 1 8 14
6 19 -5 19 -8 0 -18 -5 -21 -10z"/>
<path d="M4280 160 c6 -11 16 -22 23 -26 9 -5 9 -4 0 7 -7 7 -13 17 -13 22 0
4 6 5 13 1 6 -4 8 -3 4 1 -4 5 -14 10 -22 11 -11 2 -12 -2 -5 -16z"/>
<path d="M1270 153 c0 -2 9 -14 21 -26 l20 -22 -20 -3 c-30 -5 -26 -18 11 -31
34 -12 51 -6 28 10 -11 8 -12 12 -2 16 8 3 5 11 -10 24 -13 10 -17 18 -10 19
6 0 12 -5 12 -11 0 -5 5 -7 10 -4 16 10 3 22 -30 27 -16 3 -30 3 -30 1z"/>
<path d="M4316 123 c-6 -14 -5 -15 5 -6 7 7 10 15 7 18 -3 3 -9 -2 -12 -12z"/>
<path d="M4372 84 c10 -10 20 -16 22 -13 3 3 -5 11 -17 18 -21 13 -21 12 -5
-5z"/>
<path d="M720 20 l-495 -5 518 -3 c284 -1 517 0 517 2 0 10 -79 11 -540 6z"/>
<path d="M1515 20 c-3 -6 1 -7 9 -4 18 7 21 14 7 14 -6 0 -13 -4 -16 -10z"/>
<path d="M3600 20 c0 -5 5 -10 11 -10 5 0 7 5 4 10 -3 6 -8 10 -11 10 -2 0 -4
-4 -4 -10z"/>
<path d="M2533 13 c9 -2 25 -2 35 0 9 3 1 5 -18 5 -19 0 -27 -2 -17 -5z"/>
<path d="M2918 13 c7 -3 16 -2 19 1 4 3 -2 6 -13 5 -11 0 -14 -3 -6 -6z"/>
<path d="M3183 13 c15 -2 37 -2 50 0 12 2 0 4 -28 4 -27 0 -38 -2 -22 -4z"/>
<path d="M4513 13 c9 -2 25 -2 35 0 9 3 1 5 -18 5 -19 0 -27 -2 -17 -5z"/>
<path d="M4808 13 c7 -3 16 -2 19 1 4 3 -2 6 -13 5 -11 0 -14 -3 -6 -6z"/>
<path d="M5303 13 c131 -2 343 -2 470 0 128 1 21 2 -238 2 -258 0 -363 -1
-232 -2z"/>
</g>
</svg>
