<?xml version="1.0" standalone="no"?>
<!DOCTYPE svg PUBLIC "-//W3C//DTD SVG 20010904//EN"
 "http://www.w3.org/TR/2001/REC-SVG-20010904/DTD/svg10.dtd">
<svg version="1.0" xmlns="http://www.w3.org/2000/svg"
 width="600.000000pt" height="388.000000pt" viewBox="0 0 600.000000 388.000000"
 preserveAspectRatio="xMidYMid meet">
<g transform="translate(0.000000,388.000000) scale(0.100000,-0.100000)"
fill="#000000" stroke="none">
<path d="M200 3830 c0 -5 5 -10 10 -10 6 0 10 5 10 10 0 6 -4 10 -10 10 -5 0
-10 -4 -10 -10z"/>
<path d="M2216 3767 c3 -10 9 -15 12 -12 3 3 0 11 -7 18 -10 9 -11 8 -5 -6z"/>
<path d="M1495 3688 c-48 -17 -103 -76 -121 -132 -14 -42 -16 -71 -9 -180 11
-177 11 -218 1 -241 -8 -19 -8 -19 10 -3 17 17 17 27 6 175 -17 245 5 310 130
372 31 16 112 10 155 -11 43 -21 90 -91 103 -155 10 -44 9 -88 0 -198 -10
-110 -10 -146 -1 -161 11 -18 12 -18 6 2 -3 12 2 79 10 150 22 176 5 271 -61
337 -52 51 -153 71 -229 45z"/>
<path d="M4365 3688 c-50 -18 -92 -55 -116 -105 -20 -41 -23 -63 -23 -148 2
-184 9 -334 16 -317 9 23 9 130 -1 222 -12 118 2 211 40 266 31 46 89 81 111
68 7 -5 8 -2 3 6 -13 20 92 7 145 -19 100 -47 128 -161 99 -391 -8 -64 -8 -96
1 -129 14 -53 24 -49 12 5 -5 24 -3 80 5 149 22 182 3 286 -65 350 -18 16 -47
35 -64 42 -41 14 -123 15 -163 1z"/>
<path d="M1639 3534 c-49 -37 -119 -71 -162 -79 -20 -4 -37 -11 -37 -15 0 -13
111 21 150 46 38 23 99 74 89 74 -3 0 -21 -12 -40 -26z"/>
<path d="M2785 3450 c4 -6 11 -8 16 -5 5 4 9 -14 9 -41 0 -26 3 -44 7 -40 4 4
6 22 5 41 -3 24 2 36 15 44 15 9 12 10 -20 11 -23 0 -36 -4 -32 -10z"/>
<path d="M3098 3423 c6 -65 10 -70 11 -15 0 28 -3 52 -7 52 -4 0 -6 -17 -4
-37z"/>
<path d="M2847 3433 c-10 -10 -8 -73 2 -73 5 0 11 18 13 40 3 38 -1 48 -15 33z"/>
<path d="M2883 3420 c3 -11 1 -23 -4 -26 -16 -9 9 -33 29 -27 27 7 17 73 -10
73 -15 0 -19 -5 -15 -20z m27 0 c0 -5 -4 -10 -10 -10 -5 0 -10 5 -10 10 0 6 5
10 10 10 6 0 10 -4 10 -10z m0 -30 c0 -5 -4 -10 -10 -10 -5 0 -10 5 -10 10 0
6 5 10 10 10 6 0 10 -4 10 -10z"/>
<path d="M2939 3438 c-5 -32 -3 -98 3 -98 4 0 8 7 8 15 0 8 6 14 13 13 8 -2
12 9 12 32 0 25 -5 36 -17 38 -10 2 -18 2 -19 0z m31 -39 c0 -10 -4 -19 -10
-19 -5 0 -10 12 -10 26 0 14 4 23 10 19 6 -3 10 -15 10 -26z"/>
<path d="M2997 3434 c-10 -10 -8 -46 2 -63 7 -11 13 -12 23 -4 8 6 21 7 33 2
28 -11 35 -11 35 1 0 6 -7 10 -16 10 -14 0 -14 2 0 22 21 30 20 38 -4 38 -11
0 -20 -5 -20 -11 0 -5 5 -7 10 -4 12 8 13 -5 1 -24 -10 -16 -61 -25 -61 -10 0
5 9 9 21 9 14 0 19 5 17 17 -3 19 -29 29 -41 17z m28 -14 c3 -5 -1 -10 -10
-10 -9 0 -13 5 -10 10 3 6 8 10 10 10 2 0 7 -4 10 -10z"/>
<path d="M3120 3406 c0 -38 10 -49 34 -40 10 4 16 18 16 41 0 21 -4 32 -10 28
-6 -4 -8 -15 -5 -25 3 -10 1 -21 -5 -25 -6 -4 -10 6 -10 24 0 17 -4 31 -10 31
-5 0 -10 -15 -10 -34z"/>
<path d="M3180 3424 c0 -9 8 -23 18 -31 16 -14 16 -14 0 -9 -19 6 -25 -9 -8
-19 15 -9 41 15 33 29 -4 6 -6 19 -5 29 2 11 -3 17 -17 17 -13 0 -21 -7 -21
-16z m30 -4 c0 -5 -4 -10 -10 -10 -5 0 -10 5 -10 10 0 6 5 10 10 10 6 0 10 -4
10 -10z"/>
<path d="M1291 3414 c0 -11 3 -14 6 -6 3 7 2 16 -1 19 -3 4 -6 -2 -5 -13z"/>
<path d="M1726 3388 c-4 -23 -13 -56 -21 -72 -27 -59 -55 -159 -55 -200 l0
-41 90 0 c96 0 117 8 48 19 -49 8 -41 18 27 36 28 7 104 28 170 46 66 18 145
40 175 48 30 8 132 35 225 61 94 26 211 58 260 71 109 30 119 33 113 40 -3 2
-57 -9 -119 -27 -63 -17 -136 -37 -164 -44 -27 -7 -207 -57 -400 -110 -328
-91 -350 -96 -362 -79 -21 28 -19 119 2 171 15 34 31 123 22 123 -2 0 -7 -19
-11 -42z m-30 -295 c-10 -11 -25 18 -18 35 4 13 8 11 15 -6 6 -12 7 -25 3 -29z"/>
<path d="M3266 3391 c5 -5 70 -35 144 -66 347 -146 653 -276 658 -280 2 -1
-11 -18 -28 -36 -17 -19 -34 -46 -37 -61 -3 -16 -7 -28 -9 -28 -2 0 -49 18
-106 39 -510 195 -724 271 -697 247 2 -2 164 -63 359 -135 435 -162 440 -164
440 -176 0 -5 -9 -38 -19 -72 -11 -35 -16 -63 -12 -63 3 0 23 12 44 26 21 14
76 43 122 64 96 44 116 69 96 117 -14 33 -86 88 -113 86 -10 -1 -44 10 -76 24
-31 14 -86 38 -122 53 -36 15 -164 69 -285 120 -367 154 -378 159 -359 141z
m867 -370 c13 -5 36 -20 50 -34 20 -18 24 -26 15 -35 -9 -9 -9 -12 0 -12 10 0
10 -4 0 -19 -7 -11 -16 -17 -20 -15 -4 3 -8 0 -8 -6 0 -6 -4 -8 -10 -5 -5 3
-10 1 -10 -5 0 -7 -7 -10 -15 -6 -8 3 -14 0 -12 -7 1 -7 -4 -11 -11 -9 -7 1
-29 -8 -50 -21 -33 -20 -44 -23 -68 -18 -4 0 -1 7 5 14 6 8 8 17 4 20 -3 4 -1
7 5 7 6 0 9 7 5 16 -5 14 -3 15 15 5 25 -13 32 -14 32 -3 0 5 -11 12 -25 18
-19 7 -23 12 -15 24 9 13 11 13 20 0 14 -21 12 -3 -2 23 -10 20 -10 21 6 8 14
-12 16 -12 10 3 -3 9 -1 16 5 16 6 0 11 6 11 13 0 14 19 37 31 37 4 0 19 -4
32 -9z"/>
<path d="M4096 3012 c-3 -5 1 -9 9 -9 8 0 12 4 9 9 -3 4 -7 8 -9 8 -2 0 -6 -4
-9 -8z"/>
<path d="M1410 3368 c0 -7 9 -24 19 -38 l19 -24 -11 37 c-11 36 -27 50 -27 25z"/>
<path d="M2923 3305 c0 -8 4 -12 9 -9 5 3 6 10 3 15 -9 13 -12 11 -12 -6z"/>
<path d="M1451 3268 c31 -109 -8 -165 -127 -183 -22 -3 -66 -21 -96 -40 l-56
-33 -123 49 c-67 27 -127 48 -133 46 -8 -3 122 -58 226 -96 l26 -10 -19 -38
c-10 -21 -25 -69 -33 -106 -7 -37 -16 -70 -19 -73 -2 -3 -89 29 -193 71 -104
41 -195 74 -203 73 -8 -2 75 -38 185 -82 109 -43 202 -83 206 -90 4 -7 9 -4
13 7 4 9 29 33 56 53 68 49 86 79 92 149 5 51 10 64 37 88 31 28 35 29 124 25
l91 -3 -2 47 c-1 52 -39 178 -53 178 -5 0 -4 -15 1 -32z m32 -148 c3 -11 1
-20 -4 -20 -5 0 -9 9 -9 20 0 11 2 20 4 20 2 0 6 -9 9 -20z m-32 -23 c-10 -9
-11 -8 -5 6 3 10 9 15 12 12 3 -3 0 -11 -7 -18z m-214 -103 c-8 -9 -37 8 -31
18 4 6 10 5 15 -3 7 -11 9 -9 10 6 1 18 2 18 6 2 3 -10 3 -21 0 -23z m-11 -19
c10 -8 14 -15 7 -15 -6 0 -10 -8 -8 -17 3 -19 -15 -53 -45 -83 -18 -18 -19
-18 -25 11 -4 16 -2 35 3 42 6 7 11 17 12 22 6 26 20 55 28 55 4 0 17 -7 28
-15z"/>
<path d="M1185 2950 c-8 -13 3 -30 18 -30 8 0 7 3 -2 9 -7 5 -10 14 -7 20 4 6
5 11 2 11 -3 0 -8 -4 -11 -10z"/>
<path d="M2850 3230 c0 -41 3 -50 18 -50 25 0 42 20 42 50 0 30 -17 50 -42 50
-15 0 -18 -9 -18 -50z m40 0 c0 -39 -24 -39 -27 0 -2 21 2 30 12 30 10 0 15
-10 15 -30z"/>
<path d="M2972 3230 c-1 -27 3 -50 9 -50 5 0 9 23 9 50 0 28 -4 50 -9 50 -5 0
-9 -22 -9 -50z"/>
<path d="M3132 3255 c-29 -31 -26 -69 6 -73 20 -3 22 0 22 47 0 28 -1 51 -2
51 -2 0 -13 -11 -26 -25z m14 -51 c-5 -13 -10 -14 -18 -6 -6 6 -8 18 -4 28 5
13 10 14 18 6 6 -6 8 -18 4 -28z"/>
<path d="M3002 3228 c3 -42 4 -43 38 -43 32 0 35 2 35 30 0 25 -4 30 -24 30
-14 0 -26 6 -29 13 -9 29 -23 9 -20 -30z m25 -25 c-3 -10 -5 -4 -5 12 0 17 2
24 5 18 2 -7 2 -21 0 -30z m33 11 c0 -14 -4 -23 -10 -19 -5 3 -10 15 -10 26 0
10 5 19 10 19 6 0 10 -12 10 -26z"/>
<path d="M4370 3193 c-26 -83 -43 -103 -89 -104 -32 0 -34 -1 -13 -10 15 -6
31 -5 44 2 11 6 26 8 34 5 8 -3 14 1 14 9 0 7 5 26 12 42 6 15 10 39 10 53 -2
24 -1 24 9 4 8 -15 6 -34 -9 -79 -11 -33 -18 -63 -15 -68 6 -11 50 117 59 173
6 36 4 40 -14 40 -17 0 -25 -12 -42 -67z m40 32 c0 -8 -4 -15 -10 -15 -5 0
-10 7 -10 15 0 8 5 15 10 15 6 0 10 -7 10 -15z"/>
<path d="M4464 3218 c4 -22 16 -70 27 -105 17 -51 19 -67 9 -79 -7 -8 -11 -17
-8 -20 3 -2 12 6 21 19 13 20 13 28 1 62 -8 22 -12 46 -9 53 3 7 1 11 -3 8 -9
-5 -11 3 -14 47 -1 12 -7 26 -12 30 -7 6 -6 7 3 5 12 -4 31 -48 45 -109 3 -14
16 -31 29 -38 26 -14 97 -23 97 -12 0 4 -15 8 -32 9 -65 5 -67 7 -103 120 -13
40 -21 52 -37 52 -18 0 -20 -4 -14 -42z"/>
<path d="M2920 3215 c0 -28 4 -35 20 -35 11 0 20 5 20 10 0 6 -7 10 -15 10 -8
0 -15 5 -15 11 0 6 7 9 15 5 10 -4 15 1 15 14 0 13 -7 20 -20 20 -16 0 -20 -7
-20 -35z"/>
<path d="M3093 3215 c0 -22 2 -30 4 -17 2 12 2 30 0 40 -3 9 -5 -1 -4 -23z"/>
<path d="M739 3227 c6 -8 9 -16 6 -19 -3 -2 2 -5 10 -5 13 0 13 3 -2 19 -19
21 -31 25 -14 5z"/>
<path d="M1510 3223 c0 -15 39 -43 62 -43 26 0 66 21 73 38 5 14 4 14 -12 0
-36 -31 -92 -28 -115 6 -6 8 -8 7 -8 -1z"/>
<path d="M2675 3178 c-71 -22 -159 -48 -195 -58 -36 -11 -157 -48 -270 -83
l-205 -64 -23 29 c-24 28 -109 78 -134 78 -7 0 -1 -10 14 -23 28 -23 48 -79
48 -134 0 -25 9 -40 37 -65 20 -18 53 -49 75 -69 21 -20 38 -32 38 -25 0 6
-11 52 -24 101 -14 50 -21 93 -18 96 4 4 70 25 147 48 77 23 190 57 250 75 61
18 176 53 257 77 81 24 148 47 148 52 0 10 1 10 -145 -35z m-720 -184 c29 -19
32 -31 8 -37 -14 -4 -14 -5 3 -6 28 -1 36 -33 16 -63 -10 -15 -10 -18 -2 -10
20 18 30 15 30 -9 0 -16 -4 -19 -22 -13 -35 10 -50 26 -45 46 3 10 2 16 -3 13
-4 -3 -11 2 -14 11 -5 12 -2 15 11 10 15 -5 15 -4 -1 9 -14 11 -16 15 -5 15 8
0 10 3 4 8 -11 8 -19 42 -10 42 3 0 17 -7 30 -16z"/>
<path d="M3633 3185 c0 -8 4 -12 9 -9 5 3 6 10 3 15 -9 13 -12 11 -12 -6z"/>
<path d="M150 3129 c0 -31 4 -48 10 -44 6 3 10 15 10 26 0 10 6 19 14 19 8 0
16 6 18 13 9 22 -3 37 -28 37 -22 0 -24 -4 -24 -51z m40 26 c0 -8 -4 -15 -10
-15 -5 0 -10 7 -10 15 0 8 5 15 10 15 6 0 10 -7 10 -15z"/>
<path d="M320 3137 c0 -43 6 -60 19 -53 10 6 0 96 -10 96 -5 0 -9 -19 -9 -43z"/>
<path d="M500 3135 c0 -59 15 -59 16 0 1 25 -2 45 -7 45 -5 0 -9 -20 -9 -45z"/>
<path d="M533 3135 c0 -27 2 -38 4 -22 2 15 2 37 0 50 -2 12 -4 0 -4 -28z"/>
<path d="M780 3136 c0 -24 -3 -53 -6 -63 -5 -12 -4 -15 4 -8 12 12 21 115 10
115 -5 0 -8 -20 -8 -44z"/>
<path d="M5200 3129 c0 -27 4 -48 8 -45 12 7 12 96 1 96 -5 0 -9 -23 -9 -51z"/>
<path d="M5287 3167 c-2 -7 -1 -30 3 -52 l8 -40 2 35 c1 19 3 43 5 53 4 20
-10 23 -18 4z"/>
<path d="M5521 3128 c1 -55 5 -50 11 15 2 20 0 37 -4 37 -4 0 -7 -24 -7 -52z"/>
<path d="M5660 3137 c0 -25 4 -48 8 -51 10 -6 8 81 -2 91 -3 3 -6 -14 -6 -40z"/>
<path d="M217 3154 c-13 -13 -7 -62 7 -67 8 -3 20 1 28 10 11 14 10 15 -10 9
-13 -5 -22 -3 -22 3 0 6 9 11 21 11 14 0 19 5 17 17 -3 19 -29 29 -41 17z m28
-14 c3 -5 -1 -10 -10 -10 -9 0 -13 5 -10 10 3 6 8 10 10 10 2 0 7 -4 10 -10z"/>
<path d="M268 3136 c-6 -30 14 -62 30 -52 17 10 15 26 -3 20 -11 -5 -15 1 -15
20 0 26 14 35 23 16 3 -6 4 -5 3 2 -5 25 -33 20 -38 -6z"/>
<path d="M357 3154 c-12 -12 -8 -51 7 -63 18 -15 39 9 34 41 -3 22 -27 35 -41
22z m25 -46 c-13 -13 -26 8 -17 30 6 16 7 16 17 -1 7 -13 7 -22 0 -29z"/>
<path d="M411 3122 c1 -35 2 -36 8 -8 4 21 12 30 29 31 29 2 38 -11 12 -18
-20 -5 -27 -31 -11 -41 21 -14 42 7 39 38 -3 28 -6 31 -40 33 -38 2 -38 2 -37
-35z m69 -6 c0 -3 -4 -8 -10 -11 -5 -3 -10 -1 -10 4 0 6 5 11 10 11 6 0 10 -2
10 -4z"/>
<path d="M554 3148 c-4 -6 0 -16 9 -23 21 -15 22 -29 2 -21 -17 6 -21 -9 -5
-19 11 -7 40 12 40 26 0 4 -9 11 -20 14 -11 4 -18 10 -15 15 3 5 13 6 22 3 11
-4 14 -3 9 5 -9 15 -33 15 -42 0z"/>
<path d="M630 3124 c0 -19 5 -34 10 -34 6 0 10 14 10 31 0 16 4 28 9 25 4 -3
6 -17 3 -31 -2 -15 0 -25 7 -25 6 0 11 14 11 32 0 36 16 28 23 -12 3 -19 5
-16 6 11 1 36 0 37 -39 37 -39 1 -40 0 -40 -34z"/>
<path d="M724 3149 c-5 -9 -2 -10 9 -6 22 8 22 -2 0 -18 -23 -17 -10 -45 17
-38 17 4 20 12 18 37 -3 32 -30 48 -44 25z m26 -39 c0 -5 -5 -10 -11 -10 -5 0
-7 5 -4 10 3 6 8 10 11 10 2 0 4 -4 4 -10z"/>
<path d="M807 3154 c-12 -12 -8 -51 6 -62 20 -17 39 2 35 34 -3 27 -26 43 -41
28z m29 -40 c-4 -12 -10 -14 -17 -7 -5 5 -7 17 -3 27 4 12 10 14 17 7 5 -5 7
-17 3 -27z"/>
<path d="M862 3118 c1 -37 2 -39 5 -10 2 17 8 32 14 32 5 0 9 5 9 10 0 6 -7
10 -15 10 -11 0 -15 -11 -13 -42z"/>
<path d="M5232 3118 c1 -37 2 -38 5 -10 2 17 8 32 13 32 5 0 11 -15 13 -32 4
-27 4 -25 3 7 -1 29 -6 41 -18 43 -15 3 -18 -4 -16 -40z"/>
<path d="M5322 3117 c1 -38 2 -39 5 -9 3 23 9 32 17 29 8 -3 18 -1 24 5 6 6
12 6 16 -1 4 -6 3 -11 -2 -11 -6 0 -8 -10 -4 -22 3 -14 2 -19 -7 -14 -6 4 -9
12 -6 17 4 5 1 9 -5 9 -22 0 -5 -35 18 -36 21 -1 23 3 20 35 -3 34 -5 36 -40
38 l-38 2 2 -42z"/>
<path d="M5414 3145 c-4 -9 1 -22 12 -31 18 -15 18 -15 1 -10 -12 4 -17 2 -15
-6 7 -19 28 -21 35 -2 4 11 -1 22 -13 32 -18 14 -18 14 -1 8 12 -4 17 -2 15 6
-7 19 -27 21 -34 3z"/>
<path d="M5467 3153 c-4 -3 -6 -27 -6 -52 1 -25 3 -38 6 -29 2 9 10 15 18 12
16 -7 29 28 20 56 -6 20 -25 26 -38 13z m26 -27 c6 -15 -1 -26 -15 -26 -4 0
-8 9 -8 20 0 23 15 27 23 6z"/>
<path d="M5553 3153 c-15 -6 -18 -73 -3 -73 6 0 10 14 10 30 0 17 5 30 11 30
7 0 9 -10 7 -25 -3 -14 -1 -28 4 -31 5 -4 8 10 6 32 -3 37 -12 47 -35 37z"/>
<path d="M5607 3153 c-12 -11 -8 -23 6 -17 7 2 13 -4 14 -16 1 -11 -3 -20 -8
-20 -6 0 -7 5 -4 10 3 6 1 10 -5 10 -22 0 -5 -35 18 -36 16 -1 21 3 18 13 -3
8 -6 26 -6 39 0 23 -18 32 -33 17z"/>
<path d="M5690 3126 c0 -40 12 -51 38 -37 13 7 22 7 30 -1 17 -17 32 1 29 35
-2 21 -8 33 -20 35 -22 5 -23 -33 -1 -42 9 -4 15 -9 12 -11 -12 -12 -38 9 -38
31 0 13 -4 24 -10 24 -5 0 -10 -13 -10 -30 0 -16 -5 -30 -11 -30 -7 0 -9 10
-7 25 3 14 1 28 -3 31 -5 3 -9 -11 -9 -30z"/>
<path d="M5016 3040 c-71 -39 -132 -70 -135 -70 -3 0 -15 14 -26 30 -11 16
-33 36 -50 44 -34 17 -48 12 -106 -41 -67 -61 -51 -99 64 -153 45 -21 101 -51
125 -65 l43 -27 -6 34 c-6 34 -5 35 42 56 96 41 258 121 246 121 -13 1 -60
-19 -196 -83 -55 -25 -100 -46 -101 -46 -2 0 -9 25 -15 57 -12 52 -12 57 5 67
11 6 73 39 138 74 129 68 137 72 115 72 -8 -1 -72 -32 -143 -70z m-233 -25 c7
3 27 -8 44 -24 38 -33 37 -34 -45 -75 -49 -25 -80 -27 -67 -5 3 5 0 6 -8 3
-16 -6 -31 22 -17 31 15 9 12 27 -2 19 -7 -4 -2 5 11 19 14 15 26 25 29 22 2
-2 12 3 20 12 10 10 17 12 20 5 2 -6 9 -9 15 -7z m104 -149 c16 -36 16 -33 -3
-40 -9 -3 -28 3 -44 14 -15 11 -33 20 -40 20 -6 0 -9 4 -6 9 3 4 -6 6 -21 3
-38 -7 -21 13 35 42 l47 24 9 -21 c5 -12 15 -35 23 -51z"/>
<path d="M4173 3079 c-18 -5 -33 -11 -33 -13 0 -3 16 -14 34 -26 52 -32 76
-78 92 -182 18 -112 54 -188 133 -278 l30 -35 1 207 c0 263 2 258 -100 258
-84 0 -100 8 -100 52 0 30 -6 32 -57 17z m145 -92 c18 1 31 -1 28 -6 -4 -5 3
-7 14 -4 26 7 57 -16 38 -28 -9 -6 -8 -9 6 -9 13 0 16 -3 9 -12 -13 -17 -23
-59 -13 -53 13 8 23 -14 15 -33 -4 -9 -7 -32 -6 -51 2 -18 -1 -31 -6 -28 -6 4
-10 0 -10 -8 0 -8 4 -12 9 -9 9 6 11 -80 2 -113 -5 -17 -9 -19 -19 -10 -7 7
-9 14 -3 18 5 3 1 12 -8 20 -16 12 -17 12 -9 -1 4 -8 4 -12 0 -7 -5 4 -10 14
-11 22 -1 8 -11 27 -22 42 -10 15 -17 34 -14 42 3 9 0 11 -8 6 -9 -5 -11 -4
-6 4 4 6 2 19 -6 28 -11 15 -11 16 7 9 19 -7 19 -7 -1 16 -12 14 -20 35 -19
53 1 17 -2 35 -7 42 -6 7 -7 17 -3 23 3 5 1 10 -6 10 -7 0 -9 3 -6 6 4 4 29
-3 57 -15 28 -12 57 -20 63 -18 6 2 -21 16 -61 32 -40 16 -75 32 -78 37 -3 4
5 4 18 0 13 -5 38 -7 56 -5z"/>
<path d="M4295 2840 c3 -5 8 -10 11 -10 2 0 4 5 4 10 0 6 -5 10 -11 10 -5 0
-7 -4 -4 -10z"/>
<path d="M4350 2800 c0 -5 5 -10 10 -10 6 0 10 5 10 10 0 6 -4 10 -10 10 -5 0
-10 -4 -10 -10z"/>
<path d="M4668 3058 c5 -49 -22 -70 -95 -72 -32 0 -68 3 -80 7 -18 7 -22 3
-27 -20 -12 -55 -16 -200 -10 -312 l7 -115 24 30 c86 102 124 186 138 299 9
70 38 125 85 160 43 31 41 37 -16 49 -29 7 -30 6 -26 -26z m-119 -105 c14 -9
21 -11 17 -5 -4 7 -4 12 1 12 4 0 18 3 31 6 16 5 22 2 22 -10 0 -9 -4 -16 -8
-16 -5 0 -17 -7 -28 -15 -15 -12 -15 -14 -2 -9 12 4 18 -1 22 -18 6 -31 3 -68
-5 -68 -4 0 -9 -8 -13 -17 -3 -10 -9 -25 -12 -33 -5 -13 -4 -13 6 0 9 12 10
10 4 -10 -4 -14 -9 -27 -13 -30 -3 -3 -12 -17 -20 -32 -8 -15 -22 -36 -32 -47
-10 -10 -16 -21 -13 -24 3 -2 -2 -7 -11 -10 -11 -5 -15 0 -15 19 0 14 4 23 9
19 5 -3 13 -1 16 5 4 6 1 9 -7 8 -10 -2 -13 15 -13 70 0 39 -3 72 -6 72 -3 0
-6 13 -5 30 1 16 4 30 8 30 3 0 4 9 1 20 -8 31 5 70 25 70 10 0 28 -8 41 -17z"/>
<path d="M1603 3065 c0 -8 4 -12 9 -9 5 3 6 10 3 15 -9 13 -12 11 -12 -6z"/>
<path d="M1348 3060 c-47 -9 -65 -24 -74 -63 -8 -32 -7 -54 2 -95 4 -21 5 -22
30 -6 19 13 39 15 84 11 78 -7 119 -32 148 -87 l22 -44 1 44 c3 148 -9 196
-54 224 -27 17 -109 25 -159 16z m87 -20 c3 -6 16 -8 29 -4 28 7 42 -9 61 -72
17 -57 19 -98 5 -89 -6 4 -8 11 -4 16 3 5 2 9 -3 8 -22 -4 -43 2 -38 11 3 6
-3 10 -14 10 -11 0 -27 7 -35 16 -9 8 -16 11 -16 5 0 -6 -9 -11 -20 -11 -11 0
-20 5 -20 11 0 5 -4 8 -9 4 -5 -3 -27 2 -49 10 -40 16 -40 16 -25 46 15 31 48
44 88 37 14 -3 25 -1 25 3 0 12 17 11 25 -1z m-125 -100 c13 -8 13 -10 -2 -10
-9 0 -20 5 -23 10 -8 13 5 13 25 0z"/>
<path d="M1480 3016 c0 -9 -4 -14 -10 -11 -5 3 -10 1 -10 -4 0 -6 5 -11 10
-11 13 0 25 28 16 37 -3 4 -6 -1 -6 -11z"/>
<path d="M1715 3060 c-58 -7 -89 -24 -106 -59 -17 -35 -26 -226 -10 -217 6 4
11 13 11 20 0 24 43 68 84 87 52 24 139 25 161 3 23 -23 30 -11 30 56 0 97
-42 123 -170 110z m11 -19 c-3 -4 15 -7 41 -5 48 4 78 -10 66 -30 -4 -6 1 -5
10 3 15 12 17 12 11 -4 -4 -11 -3 -16 2 -12 5 3 8 -11 6 -33 -4 -37 -5 -38
-30 -29 -33 13 -106 3 -147 -19 -16 -9 -36 -15 -43 -14 -7 2 -11 -1 -10 -5 2
-4 -1 -9 -7 -11 -13 -3 -15 37 -3 44 5 3 6 15 3 26 -4 12 0 27 12 40 10 12 12
18 4 13 -10 -6 -12 -4 -6 4 4 7 15 11 25 8 14 -3 17 -1 13 11 -4 8 -2 13 3 9
6 -3 16 -2 24 4 19 11 33 12 26 0z"/>
<path d="M1630 2920 c-9 -6 -10 -10 -3 -10 6 0 15 5 18 10 8 12 4 12 -15 0z"/>
<path d="M4865 3061 c-3 -5 -2 -12 3 -15 5 -3 9 1 9 9 0 17 -3 19 -12 6z"/>
<path d="M3550 3020 c0 -5 5 -10 10 -10 6 0 10 5 10 10 0 6 -4 10 -10 10 -5 0
-10 -4 -10 -10z"/>
<path d="M5220 3010 c0 -5 7 -10 16 -10 12 0 15 -8 13 -34 -2 -19 0 -38 4 -42
4 -4 7 11 7 34 0 23 5 42 10 42 6 0 10 5 10 10 0 6 -13 10 -30 10 -16 0 -30
-4 -30 -10z"/>
<path d="M5650 3010 c0 -5 5 -10 10 -10 6 0 10 5 10 10 0 6 -4 10 -10 10 -5 0
-10 -4 -10 -10z"/>
<path d="M5284 2986 c-9 -24 0 -61 15 -61 8 0 16 6 19 13 2 7 -2 10 -12 6 -9
-3 -16 -1 -16 5 0 6 9 11 20 11 23 0 26 10 8 28 -16 16 -27 15 -34 -2z"/>
<path d="M5346 2991 c-11 -19 -16 -71 -7 -71 6 0 11 13 11 29 0 17 5 33 10 36
6 4 10 -7 10 -25 0 -34 22 -49 45 -30 10 9 15 9 15 1 0 -17 30 -13 37 4 3 9
-3 23 -13 31 -18 15 -18 15 -1 10 12 -4 17 -2 15 6 -7 19 -28 21 -35 2 -4 -10
0 -22 11 -29 10 -8 13 -16 7 -19 -5 -3 -11 0 -14 6 -3 10 -9 10 -25 1 -14 -9
-23 -9 -28 -2 -3 6 3 13 15 16 22 6 25 11 13 29 -7 12 -60 16 -66 5z m61 -17
c-3 -3 -12 -4 -19 -1 -8 3 -5 6 6 6 11 1 17 -2 13 -5z"/>
<path d="M5512 2956 c1 -37 2 -38 5 -8 5 41 23 42 23 1 0 -18 4 -28 10 -24 6
3 7 17 4 31 -4 14 -2 24 5 24 6 0 11 -14 11 -32 0 -23 3 -29 11 -21 6 6 9 23
7 39 -3 26 -7 29 -40 30 l-38 1 2 -41z"/>
<path d="M5607 2994 c-12 -12 -8 -24 6 -18 16 6 20 -33 5 -42 -7 -5 -9 -1 -5
9 3 10 2 17 -3 17 -6 0 -10 -9 -10 -20 0 -22 7 -25 28 -11 8 4 12 21 10 36 -3
28 -18 42 -31 29z"/>
<path d="M5684 2987 c-9 -25 0 -62 15 -62 22 0 38 32 25 52 -14 23 -33 28 -40
10z m26 -27 c0 -11 -4 -20 -10 -20 -5 0 -10 9 -10 20 0 11 5 20 10 20 6 0 10
-9 10 -20z"/>
<path d="M5746 2988 c-12 -37 -13 -59 -5 -64 5 -3 9 9 9 25 0 17 5 31 10 31 6
0 10 5 10 10 0 14 -20 12 -24 -2z"/>
<path d="M5654 2959 c3 -18 1 -38 -5 -45 -9 -11 -8 -14 5 -14 12 0 16 10 16
45 0 27 -5 45 -11 45 -8 0 -9 -11 -5 -31z"/>
<path d="M370 2935 c0 -45 1 -46 28 -43 24 3 27 7 27 43 0 36 -3 40 -27 43
-27 3 -28 2 -28 -43z m40 20 c0 -8 -4 -15 -10 -15 -5 0 -10 7 -10 15 0 8 5 15
10 15 6 0 10 -7 10 -15z m2 -40 c0 -5 -5 -11 -11 -13 -6 -2 -11 4 -11 13 0 9
5 15 11 13 6 -2 11 -8 11 -13z"/>
<path d="M443 2935 c0 -27 2 -38 4 -22 2 15 2 37 0 50 -2 12 -4 0 -4 -28z"/>
<path d="M2636 2958 c-4 -9 -6 -31 -4 -50 2 -25 8 -34 26 -36 12 -2 22 1 22 7
0 6 -6 11 -14 11 -10 0 -16 14 -18 43 -3 29 -6 37 -12 25z"/>
<path d="M2905 2960 c-3 -5 -1 -10 4 -10 6 0 11 5 11 10 0 6 -2 10 -4 10 -3 0
-8 -4 -11 -10z"/>
<path d="M3190 2955 c0 -8 -6 -14 -12 -12 -9 1 -13 -10 -13 -33 0 -29 4 -36
23 -38 20 -3 22 0 22 47 0 28 -4 51 -10 51 -5 0 -10 -7 -10 -15z m0 -51 c0
-14 -4 -23 -10 -19 -5 3 -10 15 -10 26 0 10 5 19 10 19 6 0 10 -12 10 -26z"/>
<path d="M3360 2960 c0 -5 5 -10 10 -10 6 0 10 5 10 10 0 6 -4 10 -10 10 -5 0
-10 -4 -10 -10z"/>
<path d="M467 2953 c-12 -11 -8 -50 7 -62 10 -9 17 -7 27 6 12 15 12 16 -3 10
-20 -7 -31 5 -22 26 3 9 12 13 21 10 11 -4 14 -2 9 5 -8 13 -29 16 -39 5z"/>
<path d="M516 2945 c-3 -9 -6 -20 -6 -25 0 -14 31 -41 41 -35 15 10 10 25 -6
19 -8 -4 -15 -1 -15 5 0 6 7 11 16 11 20 0 14 34 -7 38 -9 2 -19 -4 -23 -13z
m34 -5 c0 -5 -4 -10 -10 -10 -5 0 -10 5 -10 10 0 6 5 10 10 10 6 0 10 -4 10
-10z"/>
<path d="M570 2909 l0 -52 26 26 c31 32 30 70 -3 75 -21 3 -23 0 -23 -49z m36
5 c-4 -12 -10 -14 -17 -7 -5 5 -7 17 -3 27 4 12 10 14 17 7 5 -5 7 -17 3 -27z"/>
<path d="M630 2948 c0 -6 8 -20 18 -31 16 -20 16 -20 -1 -14 -12 5 -17 3 -15
-5 7 -19 28 -21 35 -2 4 10 0 22 -10 29 -21 15 -22 29 -2 21 8 -3 15 -1 15 4
0 6 -9 10 -20 10 -11 0 -20 -5 -20 -12z"/>
<path d="M2748 2950 c-6 -18 3 -80 12 -80 4 0 6 18 4 41 -3 43 -9 58 -16 39z"/>
<path d="M2697 2943 c-12 -11 -8 -23 6 -17 8 3 13 -5 15 -21 1 -14 -3 -25 -9
-25 -6 0 -9 7 -5 15 3 8 1 15 -4 15 -6 0 -10 -9 -10 -20 0 -15 7 -20 25 -20
22 0 25 3 19 28 -12 54 -19 63 -37 45z"/>
<path d="M2809 2934 c-11 -13 -10 -17 4 -25 9 -6 17 -15 17 -21 0 -6 -7 -5
-17 3 -14 12 -16 12 -11 -1 5 -17 84 -24 94 -8 3 5 -2 19 -13 30 -18 21 -18
21 1 14 16 -5 17 -4 6 9 -10 12 -16 13 -26 4 -11 -9 -17 -9 -28 0 -10 9 -17 7
-27 -5z m64 -30 c10 -6 15 -14 10 -17 -5 -3 -22 5 -39 19 -21 17 -23 22 -9 17
11 -3 28 -12 38 -19z"/>
<path d="M2948 2942 c-13 -2 -18 -13 -18 -38 0 -19 5 -34 10 -34 6 0 10 14 10
30 0 17 4 30 10 30 5 0 7 -13 4 -30 -4 -19 -2 -30 5 -30 6 0 11 14 11 30 0 17
5 30 11 30 7 0 9 -10 7 -25 -3 -14 -1 -28 4 -31 5 -4 8 10 6 32 -3 38 -15 46
-60 36z"/>
<path d="M3022 2915 c2 -33 7 -41 26 -43 19 -3 22 1 22 32 0 20 -5 36 -10 36
-6 0 -9 -10 -8 -22 2 -13 -1 -24 -7 -25 -5 -2 -10 8 -10 21 0 13 -4 28 -8 33
-5 4 -7 -10 -5 -32z"/>
<path d="M3087 2943 c-2 -4 -5 -23 -5 -40 -1 -26 3 -33 19 -33 24 0 25 28 2
47 -17 14 -17 14 0 9 12 -4 17 -2 15 6 -5 15 -25 22 -31 11z m23 -53 c0 -5 -4
-10 -10 -10 -5 0 -10 5 -10 10 0 6 5 10 10 10 6 0 10 -4 10 -10z"/>
<path d="M3224 2936 c-10 -25 0 -61 18 -64 9 -2 18 5 21 15 4 17 5 17 6 1 2
-31 21 -19 21 12 0 17 2 30 5 30 13 0 48 -40 41 -47 -4 -4 -11 -1 -16 7 -8 13
-10 12 -10 -2 0 -11 8 -18 20 -18 25 0 27 34 3 50 -17 11 -17 11 0 6 12 -4 17
-2 14 6 -5 15 -69 12 -78 -4 -4 -5 -9 -3 -12 6 -8 20 -26 21 -33 2z m26 -31
c0 -14 -4 -25 -10 -25 -5 0 -10 11 -10 25 0 14 5 25 10 25 6 0 10 -11 10 -25z"/>
<path d="M2783 2905 c0 -22 2 -30 4 -17 2 12 2 30 0 40 -3 9 -5 -1 -4 -23z"/>
<path d="M2913 2905 c0 -22 2 -30 4 -17 2 12 2 30 0 40 -3 9 -5 -1 -4 -23z"/>
<path d="M3360 2905 c0 -19 5 -35 10 -35 6 0 10 16 10 35 0 19 -4 35 -10 35
-5 0 -10 -16 -10 -35z"/>
<path d="M3400 2900 c0 -7 189 -75 445 -161 55 -18 101 -33 102 -34 6 -3 -18
-223 -28 -268 -9 -37 -15 -47 -28 -43 -429 127 -501 147 -501 137 0 -5 91 -34
203 -65 111 -32 229 -65 262 -76 33 -10 73 -21 88 -24 15 -4 25 -11 22 -16 -8
-14 14 -23 28 -11 9 7 40 2 105 -17 l92 -28 -28 -44 c-15 -25 -32 -52 -37 -60
-5 -8 4 -5 19 7 35 28 90 39 122 24 31 -14 30 -8 -9 63 -34 63 -57 82 -57 47
0 -25 4 -25 -68 -5 -36 10 -59 22 -59 30 0 8 4 14 9 14 5 0 6 5 2 11 -4 8 -9
7 -15 -2 -4 -7 -5 -17 -3 -21 3 -4 -7 -8 -21 -8 l-27 0 30 34 c32 37 68 132
78 209 4 27 11 46 18 44 12 -4 54 -158 55 -203 1 -16 13 -46 27 -65 14 -19 39
-60 55 -91 16 -32 31 -58 34 -58 11 0 56 92 78 161 38 114 37 129 -4 180 -20
24 -48 62 -63 85 l-26 40 -48 -9 c-39 -8 -55 -7 -82 6 -42 21 -43 21 -30 -2
13 -26 13 -31 -3 -31 -14 0 -47 100 -47 140 0 11 -2 20 -5 20 -10 0 -120 -72
-126 -83 -8 -12 -1 -14 -234 68 -303 106 -325 113 -325 105z m670 -159 c0 -28
11 -52 21 -45 5 3 6 -2 3 -11 -7 -17 -21 -15 -88 14 -36 15 -38 17 -20 31 10
8 15 10 11 3 -5 -8 -1 -8 18 0 14 7 25 15 25 20 0 4 7 7 15 7 8 0 15 -9 15
-19z m-15 -74 c11 -6 26 -12 33 -13 25 -4 25 -12 -2 -111 -15 -54 -27 -104
-28 -111 -1 -7 -9 -10 -19 -7 -20 7 -35 -10 -18 -21 8 -4 9 -3 5 4 -4 7 -3 12
3 12 23 0 18 -18 -10 -34 -28 -17 -29 -17 -26 3 2 11 6 24 10 27 20 20 -5 84
-33 84 -10 0 -11 18 -5 83 4 45 7 88 8 95 0 14 47 8 82 -11z m189 -17 c14 14
29 12 20 -2 -6 -10 -4 -10 7 0 13 12 38 18 26 6 -3 -3 5 -18 18 -32 13 -14 22
-29 19 -34 -3 -4 0 -8 5 -8 6 0 11 -10 11 -22 0 -19 2 -20 10 -8 5 8 10 12 10
8 0 -5 -1 -10 -2 -12 -2 -2 5 -12 14 -23 13 -14 16 -29 11 -56 -3 -20 -9 -34
-13 -32 -5 3 -6 -3 -3 -14 3 -10 -3 -34 -13 -52 -10 -19 -17 -40 -16 -47 2 -7
-4 -15 -12 -18 -9 -3 -13 -10 -10 -15 3 -5 1 -9 -4 -9 -5 0 -15 14 -22 30 -7
17 -17 30 -22 30 -5 0 -6 5 -3 10 3 6 2 10 -4 10 -18 0 -42 46 -46 91 -9 81
-16 114 -32 137 -8 13 -13 26 -10 28 2 3 26 -3 52 -11 69 -24 66 -12 -5 14
-62 23 -84 47 -28 30 21 -5 36 -5 42 1z m-264 -194 c0 -13 -3 -37 -6 -54 -5
-23 -10 -28 -25 -25 -10 3 -19 6 -19 8 0 1 5 17 11 36 6 19 12 40 15 47 6 21
24 13 24 -12z m258 -179 c8 -10 6 -16 -9 -25 -10 -7 -19 -9 -18 -5 4 22 -3 25
-17 7 -16 -20 -8 1 9 24 12 15 22 15 35 -1z"/>
<path d="M4307 2339 c7 -7 15 -10 18 -7 3 3 -2 9 -12 12 -14 6 -15 5 -6 -5z"/>
<path d="M4227 2892 c-10 -11 -32 -26 -48 -32 -27 -12 -40 -30 -20 -30 5 0 30
-16 55 -35 52 -39 61 -43 51 -17 -4 9 -10 43 -14 76 -6 57 -6 58 -24 38z m0
-59 c0 -15 -19 -12 -24 3 -2 6 3 11 10 11 8 0 14 -6 14 -14z"/>
<path d="M4640 2866 c0 -24 -5 -57 -10 -72 -6 -15 -9 -29 -6 -31 2 -2 25 12
51 31 25 20 51 36 56 36 5 0 9 5 9 10 0 6 -6 10 -13 10 -7 0 -29 14 -50 31
l-37 30 0 -45z m30 -6 c0 -5 -5 -10 -11 -10 -5 0 -7 5 -4 10 3 6 8 10 11 10 2
0 4 -4 4 -10z m30 -19 c0 -15 -32 -23 -44 -11 -8 8 -6 9 7 5 10 -4 17 -2 17 4
0 6 5 11 10 11 6 0 10 -4 10 -9z"/>
<path d="M1246 2873 c-4 -12 -36 -45 -71 -72 -55 -44 -66 -58 -80 -103 -8 -28
-15 -57 -15 -64 0 -8 -44 5 -122 37 -67 27 -124 47 -126 44 -8 -8 -6 -8 126
-60 l122 -49 0 -42 c0 -23 9 -72 21 -109 l21 -68 35 49 c19 27 42 63 50 79 9
17 16 31 17 32 2 2 21 -5 44 -14 34 -13 42 -21 42 -42 0 -20 2 -23 10 -11 5 8
10 24 10 35 0 21 38 90 45 83 3 -2 -9 -38 -25 -80 -21 -53 -29 -91 -28 -129 1
-46 -6 -68 -44 -144 -25 -49 -55 -121 -67 -159 -26 -83 -41 -243 -22 -232 7 5
10 14 7 21 -8 22 13 145 41 237 l26 88 38 -35 c37 -33 95 -53 124 -41 13 4 14
21 9 104 -7 106 2 232 17 232 5 0 9 -20 9 -45 l0 -45 49 0 c46 0 49 2 52 28 2
15 3 40 1 56 l-4 29 -59 -6 -59 -5 0 42 c0 55 -20 81 -74 95 -28 7 -57 24 -76
44 -17 17 -28 24 -24 15 3 -10 11 -18 17 -18 6 0 8 -3 5 -6 -3 -3 0 -28 8 -57
7 -28 12 -53 10 -54 -2 -2 -15 2 -29 8 -21 10 -24 15 -17 30 6 10 10 26 9 36
0 10 -5 3 -10 -14 -5 -18 -14 -33 -20 -33 -7 0 -8 12 -3 33 4 17 7 59 6 92 -2
33 2 88 9 122 11 63 8 107 -5 66z m-18 -78 c0 -14 -3 -27 -7 -29 -3 -2 -6 -47
-6 -100 0 -53 -1 -96 -2 -96 -1 0 -27 9 -57 20 -40 15 -53 25 -51 38 2 9 4 28
4 41 1 16 5 21 16 17 43 -17 49 -18 28 -2 -26 20 -31 56 -7 56 8 0 13 4 10 9
-9 14 20 32 40 25 11 -4 16 -4 12 1 -6 7 7 45 16 45 2 0 4 -11 4 -25z m-40
-232 c15 -6 15 -13 -2 -35 -7 -10 -17 -14 -22 -10 -4 4 -2 -2 6 -12 8 -11 10
-17 4 -13 -6 3 -16 -5 -22 -18 -13 -28 -35 -35 -25 -8 4 10 2 14 -4 10 -5 -3
-10 -1 -10 6 -1 7 -4 36 -7 65 l-7 53 38 -17 c21 -9 44 -18 51 -21z m234 -45
c5 -31 2 -33 -39 -17 -22 8 -24 12 -13 19 8 6 11 10 5 10 -15 0 14 17 30 17 7
0 15 -13 17 -29z m-29 -37 c21 -8 24 -15 21 -48 -11 -108 -10 -283 0 -287 6
-2 1 -5 -12 -5 -13 -1 -21 3 -18 8 4 5 -4 7 -16 3 -17 -4 -20 -2 -14 13 6 16
4 16 -11 4 -11 -9 -14 -10 -9 -1 5 8 -2 15 -18 22 -14 5 -26 12 -26 14 0 12
24 56 31 56 4 0 10 7 13 16 4 10 2 13 -7 8 -9 -5 -9 -4 1 7 6 7 12 21 12 32 0
10 3 16 8 14 4 -3 5 20 3 50 -2 39 1 58 10 64 8 5 9 9 3 9 -6 0 -11 7 -11 15
0 17 7 18 40 6z m143 -48 c-2 -16 -4 -31 -5 -34 0 -3 -11 -5 -23 -4 -14 1 -24
10 -29 27 -6 22 -4 25 14 20 14 -3 18 -1 13 6 -5 8 0 12 13 12 16 0 19 -6 17
-27z"/>
<path d="M1178 2713 c7 -3 16 -2 19 1 4 3 -2 6 -13 5 -11 0 -14 -3 -6 -6z"/>
<path d="M1895 2860 c3 -19 9 -87 14 -150 4 -63 11 -122 15 -131 6 -13 -1 -17
-30 -22 -21 -4 -39 -5 -40 -4 -5 5 19 92 29 105 5 7 7 15 5 18 -3 3 -15 -8
-27 -25 -12 -16 -34 -32 -50 -36 l-30 -6 19 -32 c11 -18 22 -52 25 -77 6 -45
6 -45 -19 19 -31 81 -40 90 -66 66 -27 -25 -32 -63 -23 -186 5 -59 6 -140 2
-180 -3 -41 -4 -80 -1 -86 10 -30 99 -6 150 40 28 26 27 42 -3 92 -14 22 -25
45 -25 51 0 9 100 39 105 32 1 -2 7 -23 14 -48 7 -25 33 -92 58 -150 25 -58
55 -130 67 -162 l21 -56 24 20 c17 13 33 17 49 13 19 -5 23 -3 19 9 -4 9 -5
16 -4 16 7 0 249 -42 342 -59 112 -21 153 -25 143 -15 -7 6 -434 84 -464 84
-15 0 -40 30 -99 123 -43 67 -96 144 -117 171 -21 27 -38 52 -38 56 0 4 12 10
28 13 15 3 34 8 42 12 13 4 15 -2 12 -35 -5 -50 13 -96 75 -193 26 -41 53 -83
59 -93 13 -22 -10 152 -26 200 -6 16 -8 31 -6 33 2 2 57 -3 122 -11 66 -8 162
-20 214 -26 52 -6 110 -13 128 -16 17 -4 32 -2 32 3 0 5 -109 22 -242 37 -134
15 -248 29 -254 31 -6 2 -14 16 -17 32 -3 15 -8 35 -12 45 -5 12 1 18 27 23
38 8 446 113 467 121 8 2 12 7 9 9 -5 5 -76 -12 -370 -89 -74 -20 -138 -36
-141 -36 -3 0 -8 24 -13 53 l-7 52 -17 -60 -17 -60 -79 -22 c-43 -12 -93 -24
-111 -28 l-33 -6 0 53 c1 50 13 135 21 142 2 2 22 7 44 10 40 6 40 6 63 -41
27 -55 68 -110 77 -102 3 4 16 48 29 99 l23 93 247 62 c218 56 283 75 249 75
-13 0 -474 -116 -495 -125 -15 -6 -18 -2 -18 27 0 70 -28 125 -83 164 -29 20
-55 42 -59 48 -4 6 -14 20 -23 31 -15 19 -16 19 -10 -15z m87 -95 c4 -5 8 -6
8 -1 0 22 40 -40 40 -63 1 -14 7 -43 14 -64 13 -37 13 -37 -13 -43 -14 -3 -39
-10 -55 -15 -16 -5 -31 -7 -34 -5 -2 3 -4 51 -5 108 0 59 -5 109 -11 117 -7 9
1 7 19 -5 17 -10 33 -23 37 -29z m71 -205 c-3 -11 -13 -21 -22 -21 -15 -1 -15
-2 0 -6 14 -3 15 -11 9 -40 -5 -19 -14 -41 -21 -47 -9 -8 -10 -4 -4 19 3 16 3
27 0 23 -8 -8 -22 5 -48 42 -17 25 -17 25 15 37 53 19 77 16 71 -7z m-265 -40
c-1 -3 2 -27 7 -55 4 -27 8 -66 8 -85 0 -19 5 -39 11 -43 7 -5 2 -7 -11 -4
-16 3 -20 1 -16 -9 3 -9 13 -12 24 -9 14 5 17 2 13 -10 -4 -9 1 -24 11 -35 10
-11 15 -23 12 -27 -4 -3 -2 -12 3 -18 13 -16 2 -45 -17 -45 -8 0 -11 -5 -7
-12 5 -8 2 -9 -9 -5 -10 3 -17 2 -17 -3 0 -5 -7 -7 -16 -3 -13 5 -13 8 -2 15
10 8 10 9 -2 5 -8 -2 -14 -11 -12 -21 2 -9 -4 -16 -13 -16 -15 0 -22 50 -8 64
11 10 12 36 2 36 -5 0 -9 5 -9 10 0 6 8 10 17 10 13 0 14 3 5 12 -9 9 -9 15 0
25 9 11 8 13 -2 11 -9 -2 -14 10 -15 40 -1 25 2 42 9 42 6 0 5 4 -3 9 -7 5
-11 13 -7 19 3 6 2 13 -3 17 -6 3 -7 15 -1 29 5 15 5 27 -3 35 -8 8 -8 11 1
11 8 0 11 9 8 24 -2 13 -2 27 2 31 6 6 41 -34 40 -45z m308 -145 c-3 -8 -1
-27 4 -40 14 -36 22 -76 22 -102 0 -13 4 -20 9 -17 5 3 9 0 9 -5 0 -6 -5 -11
-11 -11 -7 0 -5 -11 5 -27 l17 -28 -20 24 c-12 13 -21 29 -21 37 0 8 -4 14 -8
14 -5 0 -15 19 -22 43 -16 48 -21 119 -8 111 4 -3 8 0 8 5 0 6 5 11 11 11 6 0
9 -7 5 -15z m-39 -212 c-3 -3 -13 1 -21 10 -8 8 -12 17 -9 20 3 3 12 -1 20 -9
9 -8 13 -18 10 -21z m39 -52 c10 -22 22 -37 26 -35 5 3 8 0 8 -7 0 -7 7 -20
15 -29 14 -16 13 -19 -11 -34 -14 -10 -29 -14 -32 -10 -4 4 -2 9 5 11 9 3 7
11 -7 25 -11 12 -17 25 -14 29 2 4 -5 23 -16 41 -23 39 -25 48 -7 48 8 0 22
-18 33 -39z m74 -115 c0 -2 -9 -6 -20 -9 -11 -3 -20 -1 -20 4 0 5 9 9 20 9 11
0 20 -2 20 -4z"/>
<path d="M2000 2735 c0 -5 5 -17 10 -25 5 -8 10 -10 10 -5 0 6 -5 17 -10 25
-5 8 -10 11 -10 5z"/>
<path d="M719 2853 c-13 -16 -12 -17 4 -4 9 7 17 15 17 17 0 8 -8 3 -21 -13z"/>
<path d="M1315 2850 c3 -5 8 -10 11 -10 2 0 4 5 4 10 0 6 -5 10 -11 10 -5 0
-7 -4 -4 -10z"/>
<path d="M4116 2783 c19 -66 43 -83 115 -83 32 0 59 4 59 10 0 11 -159 120
-176 120 -9 0 -8 -13 2 -47z m39 -4 c-4 -6 -1 -9 7 -7 7 2 26 -7 41 -19 27
-21 27 -22 7 -28 -12 -4 -27 -2 -34 4 -7 6 -16 9 -19 6 -4 -3 -5 -2 -2 1 2 4
0 14 -5 24 -5 10 -6 20 -3 24 10 10 15 7 8 -5z"/>
<path d="M4170 2760 c0 -5 5 -10 11 -10 5 0 7 5 4 10 -3 6 -8 10 -11 10 -2 0
-4 -4 -4 -10z"/>
<path d="M4188 2733 c7 -3 16 -2 19 1 4 3 -2 6 -13 5 -11 0 -14 -3 -6 -6z"/>
<path d="M4682 2775 c-45 -31 -82 -60 -82 -65 0 -6 28 -10 61 -10 58 0 63 2
95 37 19 20 36 34 38 32 3 -3 -4 -34 -15 -69 -25 -78 -21 -136 16 -229 27 -69
54 -104 97 -127 34 -18 38 -7 23 68 -7 31 -10 60 -7 63 13 13 23 1 37 -50 11
-35 22 -55 31 -55 11 0 13 6 8 23 -16 50 -29 114 -29 140 0 26 9 32 173 106
94 43 175 81 179 84 15 16 -20 5 -89 -27 -40 -19 -113 -52 -162 -75 -49 -22
-92 -41 -96 -41 -4 0 -11 33 -15 74 -6 73 -8 75 -46 100 -21 14 -43 26 -49 26
-6 0 -9 4 -6 9 3 5 -5 11 -19 13 -16 3 -25 1 -25 -7 0 -7 -7 -15 -15 -19 -18
-6 -18 -5 -5 28 14 39 -4 33 -98 -29z m59 -14 c-16 -29 -39 -43 -61 -36 -11 3
-17 11 -14 17 4 6 10 6 17 -1 18 -18 31 -13 16 6 -12 15 -12 16 6 9 11 -4 16
-4 12 0 -9 9 13 35 24 28 5 -3 5 -13 0 -23z m89 8 c0 -5 5 -7 10 -4 6 3 10 2
10 -3 0 -5 11 -15 25 -22 13 -7 22 -16 20 -21 -3 -4 0 -9 7 -11 8 -3 13 -26
13 -62 1 -38 6 -60 15 -66 12 -7 12 -10 -3 -16 -9 -3 -17 -10 -17 -15 0 -4 6
-6 13 -4 8 4 12 -5 12 -24 0 -15 -4 -27 -10 -25 -5 2 -20 -5 -33 -15 -19 -16
-21 -23 -12 -46 13 -33 13 -58 0 -50 -5 3 -7 12 -4 19 3 8 1 17 -5 21 -6 3 -9
0 -5 -8 3 -8 0 -18 -6 -22 -6 -3 -9 -3 -8 2 1 4 -8 27 -20 49 -20 39 -29 68
-37 122 -2 13 -6 26 -9 29 -3 3 -1 14 5 24 7 14 6 19 -2 19 -7 0 -5 9 5 25 9
14 18 46 19 70 1 25 5 45 10 45 4 0 7 -5 7 -11z"/>
<path d="M3323 2812 c-9 -6 -7 -11 7 -19 14 -10 19 -9 23 1 9 23 -7 32 -30 18z"/>
<path d="M276 2768 c-3 -7 -9 -28 -15 -45 -6 -20 -6 -33 0 -33 5 0 9 5 9 10 0
6 7 10 15 10 8 0 15 -5 15 -11 0 -6 14 -9 33 -7 40 4 50 40 18 69 -28 26 -31
24 -32 -18 l-1 -38 -10 38 c-10 37 -25 48 -32 25z m24 -40 c0 -5 -4 -8 -10 -8
-5 0 -10 10 -10 23 0 18 2 19 10 7 5 -8 10 -18 10 -22z m60 -9 c0 -10 -4 -19
-10 -19 -5 0 -10 12 -10 26 0 14 4 23 10 19 6 -3 10 -15 10 -26z"/>
<path d="M398 2761 c-10 -10 -18 -30 -18 -44 0 -22 5 -27 25 -27 23 0 25 4 25
45 0 49 -6 53 -32 26z m15 -48 c-4 -10 -9 -11 -16 -4 -5 5 -7 18 -3 28 6 14 9
15 16 4 4 -8 6 -21 3 -28z"/>
<path d="M718 2738 c-1 -37 -2 -39 -5 -10 -3 24 -9 32 -24 32 -10 0 -19 -4
-19 -10 0 -5 7 -7 15 -4 8 4 15 1 15 -5 0 -6 -7 -11 -16 -11 -10 0 -14 -7 -12
-22 2 -13 6 -22 11 -20 4 1 18 2 32 2 23 0 25 4 25 45 0 57 -19 59 -22 3z
m-18 -28 c0 -5 -4 -10 -10 -10 -5 0 -10 5 -10 10 0 6 5 10 10 10 6 0 10 -4 10
-10z"/>
<path d="M2623 2763 c-4 -11 1 -22 15 -31 12 -8 22 -18 22 -23 0 -14 -28 -11
-33 4 -4 7 -6 6 -6 -5 -1 -18 17 -28 37 -20 19 7 14 40 -9 53 -16 8 -18 14
-10 22 9 9 14 8 21 -3 8 -13 10 -12 10 3 0 22 -38 23 -47 0z"/>
<path d="M2870 2734 c0 -41 2 -46 20 -41 11 3 22 1 25 -4 13 -20 35 5 35 39 0
19 -3 32 -7 28 -4 -4 -8 -16 -8 -26 0 -11 -4 -19 -10 -17 -5 1 -10 12 -9 25 2
34 -14 26 -19 -10 -3 -29 -4 -27 -5 10 -3 57 -22 54 -22 -4z"/>
<path d="M3158 2768 c-7 -16 2 -77 11 -83 8 -4 5 84 -2 91 -3 3 -7 -1 -9 -8z"/>
<path d="M3281 2728 c1 -55 5 -50 11 15 2 20 0 37 -4 37 -4 0 -7 -24 -7 -52z"/>
<path d="M5330 2770 c0 -5 6 -10 14 -10 11 0 13 -9 9 -34 -3 -19 -1 -36 6 -40
7 -5 11 6 11 33 0 23 5 41 10 41 6 0 10 5 10 10 0 6 -13 10 -30 10 -16 0 -30
-4 -30 -10z"/>
<path d="M5420 2770 c0 -5 5 -10 10 -10 6 0 10 5 10 10 0 6 -4 10 -10 10 -5 0
-10 -4 -10 -10z"/>
<path d="M447 2753 c-10 -10 -8 -61 2 -68 10 -6 41 21 41 35 0 31 -26 51 -43
33z m23 -28 c0 -14 -4 -25 -10 -25 -5 0 -10 11 -10 25 0 14 5 25 10 25 6 0 10
-11 10 -25z"/>
<path d="M502 2723 c1 -37 1 -37 5 -5 2 17 8 32 13 32 5 0 11 -15 13 -32 l4
-33 1 33 c1 17 6 32 11 32 6 0 12 -15 14 -32 4 -32 4 -32 5 5 2 36 1 37 -33
37 -34 0 -35 -1 -33 -37z"/>
<path d="M589 2758 c-6 -24 -5 -68 2 -68 5 0 9 16 9 35 0 19 -2 35 -5 35 -3 0
-5 -1 -6 -2z"/>
<path d="M610 2726 c0 -20 4 -36 9 -36 4 0 6 11 4 24 -3 13 0 27 6 30 7 5 11
-4 11 -23 0 -17 5 -31 11 -31 6 0 9 14 7 33 -2 24 -8 33 -25 35 -20 3 -23 -1
-23 -32z"/>
<path d="M750 2740 c0 -11 7 -20 15 -20 8 0 15 -5 15 -11 0 -6 -7 -9 -15 -5
-8 3 -15 1 -15 -3 0 -16 28 -20 40 -6 9 11 7 17 -9 27 -24 15 -28 33 -6 24 8
-3 15 -1 15 4 0 6 -9 10 -20 10 -13 0 -20 -7 -20 -20z"/>
<path d="M2684 2735 c-9 -36 16 -64 36 -40 11 13 10 15 -3 10 -8 -4 -18 -2
-22 4 -3 7 3 11 15 11 15 0 20 5 18 17 -5 30 -36 28 -44 -2z m31 5 c3 -5 1
-10 -4 -10 -6 0 -11 5 -11 10 0 6 2 10 4 10 3 0 8 -4 11 -10z"/>
<path d="M2741 2723 c1 -28 3 -31 6 -13 3 14 10 31 15 38 8 9 6 12 -6 12 -12
0 -16 -9 -15 -37z"/>
<path d="M2780 2747 c0 -7 -3 -22 -6 -34 -4 -13 -2 -23 4 -23 6 0 12 12 14 27
2 19 9 27 26 28 26 2 28 -3 5 -20 -23 -17 -10 -45 17 -38 17 4 20 12 18 37 -3
28 -6 31 -40 33 -24 1 -38 -2 -38 -10z m65 -37 c-3 -5 -11 -10 -16 -10 -6 0
-7 5 -4 10 3 6 11 10 16 10 6 0 7 -4 4 -10z"/>
<path d="M2963 2745 c-3 -9 3 -23 13 -31 18 -15 18 -15 1 -10 -12 4 -17 2 -15
-6 7 -19 28 -21 35 -2 4 10 0 22 -10 29 -22 16 -22 26 0 18 11 -4 14 -3 9 5
-10 17 -26 15 -33 -3z"/>
<path d="M3047 2753 c-3 -5 -4 -21 -3 -37 1 -23 6 -30 24 -31 16 -1 21 3 17
12 -3 8 -5 26 -5 39 0 23 -23 34 -33 17z m23 -13 c0 -5 -5 -10 -11 -10 -5 0
-7 5 -4 10 3 6 8 10 11 10 2 0 4 -4 4 -10z m0 -30 c0 -5 -5 -10 -11 -10 -5 0
-7 5 -4 10 3 6 8 10 11 10 2 0 4 -4 4 -10z"/>
<path d="M3102 2723 c1 -37 1 -37 5 -5 2 17 8 32 13 32 5 0 11 -15 13 -32 4
-32 4 -32 5 5 2 31 -1 37 -18 37 -17 0 -20 -6 -18 -37z"/>
<path d="M3191 2747 c-8 -11 -9 -22 -1 -42 10 -26 30 -30 38 -7 2 7 -2 10 -12
6 -9 -3 -16 -1 -16 5 0 6 7 11 16 11 9 0 14 7 12 17 -4 22 -22 27 -37 10z m24
-7 c3 -5 1 -10 -4 -10 -6 0 -11 5 -11 10 0 6 2 10 4 10 3 0 8 -4 11 -10z"/>
<path d="M3240 2725 c0 -19 5 -35 10 -35 6 0 10 9 10 19 0 11 3 26 6 35 4 11
1 16 -10 16 -12 0 -16 -10 -16 -35z"/>
<path d="M3307 2754 c-12 -13 -7 -51 8 -64 22 -18 37 0 33 36 -3 28 -26 43
-41 28z m33 -35 c0 -20 -15 -26 -24 -10 -8 13 4 42 15 35 5 -3 9 -14 9 -25z"/>
<path d="M3362 2718 c1 -37 2 -39 5 -10 2 17 8 32 14 32 5 0 9 5 9 10 0 6 -7
10 -15 10 -11 0 -15 -11 -13 -42z"/>
<path d="M5403 2753 c-8 -3 -12 -20 -11 -41 l1 -37 4 33 c5 40 23 42 23 2 0
-16 5 -30 10 -30 6 0 10 15 10 34 0 33 -13 47 -37 39z"/>
<path d="M5454 2747 c-9 -25 0 -62 15 -62 8 0 16 6 19 13 2 7 -2 10 -12 6 -12
-4 -16 0 -16 16 0 16 4 20 16 16 10 -4 14 -1 12 6 -6 18 -27 21 -34 5z"/>
<path d="M5511 2746 c-18 -22 -10 -61 13 -61 11 0 21 5 23 12 3 7 -4 9 -18 6
-15 -4 -20 -3 -15 5 4 7 14 12 22 12 9 0 14 7 12 17 -4 22 -22 27 -37 9z m26
-12 c-3 -3 -12 -4 -19 -1 -8 3 -5 6 6 6 11 1 17 -2 13 -5z"/>
<path d="M5573 2753 c-8 -3 -13 -22 -12 -51 1 -26 3 -39 6 -30 2 10 10 15 19
11 8 -3 14 1 14 8 0 10 3 10 12 1 17 -17 37 -15 45 3 3 9 -3 23 -13 31 -17 14
-17 15 -1 10 21 -7 23 12 1 21 -9 3 -20 0 -26 -8 -7 -11 -11 -11 -15 -1 -5 13
-10 14 -30 5z m17 -33 c0 -11 -4 -20 -10 -20 -5 0 -10 9 -10 20 0 11 5 20 10
20 6 0 10 -9 10 -20z m55 -18 c-7 -8 -35 7 -35 18 0 6 7 6 20 -2 10 -7 17 -14
15 -16z"/>
<path d="M1595 2711 c9 -60 64 -102 132 -100 34 0 35 1 13 9 -14 4 -36 11 -50
14 -34 7 -74 45 -89 81 l-11 30 5 -34z"/>
<path d="M1547 2708 c-9 -34 -69 -80 -102 -80 -14 0 -28 -4 -31 -9 -3 -5 7 -9
23 -9 55 0 130 66 121 107 -3 14 -6 11 -11 -9z"/>
<path d="M4715 2682 c-23 -12 -40 -13 -78 -5 l-49 10 -25 -41 c-14 -23 -43
-62 -64 -87 l-39 -47 19 -74 c21 -80 72 -201 89 -212 7 -4 22 16 37 49 15 30
38 69 51 85 16 18 28 50 34 85 5 31 21 99 35 151 14 53 25 97 23 98 -2 1 -16
-4 -33 -12z m-91 -31 c3 -4 23 -5 44 -1 36 6 39 5 37 -14 -1 -12 -4 -23 -5
-26 -1 -3 -1 -16 0 -30 2 -19 -1 -22 -12 -13 -10 9 -13 3 -14 -30 0 -23 -3
-56 -5 -73 -8 -45 -49 -125 -61 -117 -6 3 -8 1 -5 -4 4 -6 -1 -25 -9 -43 -15
-28 -18 -30 -31 -17 -8 8 -16 29 -18 47 -1 18 -8 36 -15 40 -7 5 -14 16 -15
27 -1 10 -7 31 -14 46 -16 40 -14 66 7 85 10 10 11 13 2 7 -10 -6 -9 -2 4 12
10 13 22 20 27 18 4 -3 11 5 14 17 4 13 17 31 29 41 18 17 19 18 2 13 -16 -6
-17 -4 -6 9 14 17 36 20 44 6z"/>
<path d="M4536 2532 c-3 -5 1 -9 9 -9 8 0 12 4 9 9 -3 4 -7 8 -9 8 -2 0 -6 -4
-9 -8z"/>
<path d="M4651 2484 c0 -11 3 -14 6 -6 3 7 2 16 -1 19 -3 4 -6 -2 -5 -13z"/>
<path d="M1887 2589 c4 -13 8 -18 11 -10 2 7 -1 18 -6 23 -8 8 -9 4 -5 -13z"/>
<path d="M5215 2600 c3 -5 8 -10 11 -10 2 0 4 5 4 10 0 6 -5 10 -11 10 -5 0
-7 -4 -4 -10z"/>
<path d="M1492 2580 c-13 -12 -22 -33 -22 -50 0 -29 2 -30 45 -30 l45 0 0 50
c0 46 -2 50 -23 50 -13 0 -33 -9 -45 -20z m46 -36 c2 -23 0 -25 -13 -14 -13
11 -15 10 -9 -6 5 -17 5 -18 -6 -2 -8 14 -8 21 2 33 19 21 23 18 26 -11z"/>
<path d="M1590 2550 l0 -50 51 0 52 0 -7 33 c-7 38 -39 67 -72 67 -22 0 -24
-4 -24 -50z m58 -5 c2 -27 -5 -31 -28 -14 -12 9 -11 10 4 5 19 -7 19 -6 1 14
-18 19 -18 20 1 20 14 0 20 -8 22 -25z"/>
<path d="M2647 2593 c-4 -3 -7 -26 -7 -50 0 -43 0 -43 35 -43 19 0 35 5 35 11
0 8 5 7 16 -2 13 -11 14 -9 9 13 -4 15 -2 29 4 32 7 5 11 -4 11 -22 0 -28 3
-30 35 -30 19 0 38 5 42 11 4 6 0 8 -10 4 -9 -3 -19 -2 -22 2 -2 5 5 11 16 14
27 7 19 32 -10 32 -12 0 -26 7 -30 14 -7 11 -14 9 -32 -8 -13 -12 -25 -17 -27
-11 -2 5 -8 10 -14 10 -7 0 -6 -5 1 -14 17 -20 3 -46 -22 -42 -26 4 -26 17 0
27 17 6 17 7 1 14 -22 9 -24 25 -3 25 8 0 15 5 15 10 0 11 -33 14 -43 3z m133
-59 c0 -14 -4 -23 -10 -19 -5 3 -10 15 -10 26 0 10 5 19 10 19 6 0 10 -12 10
-26z m30 16 c0 -5 -2 -10 -4 -10 -3 0 -8 5 -11 10 -3 6 -1 10 4 10 6 0 11 -4
11 -10z"/>
<path d="M2993 2550 c0 -30 2 -43 4 -27 2 15 2 39 0 55 -2 15 -4 2 -4 -28z"/>
<path d="M3101 2553 c-1 -46 2 -53 18 -53 10 0 22 7 25 16 9 23 -2 54 -19 54
-7 0 -16 8 -18 18 -3 9 -5 -7 -6 -35z m29 -19 c0 -14 -4 -23 -10 -19 -5 3 -10
15 -10 26 0 10 5 19 10 19 6 0 10 -12 10 -26z"/>
<path d="M3158 2593 c-2 -5 -1 -28 3 -53 l6 -45 1 53 c2 48 -2 63 -10 45z"/>
<path d="M3180 2590 c0 -5 5 -10 11 -10 5 0 7 5 4 10 -3 6 -8 10 -11 10 -2 0
-4 -4 -4 -10z"/>
<path d="M2841 2533 c1 -28 3 -31 6 -13 7 40 23 48 23 12 0 -18 5 -32 10 -32
6 0 10 14 10 30 0 40 18 38 23 -2 4 -32 4 -32 5 5 2 37 2 37 -38 37 -40 0 -40
0 -39 -37z"/>
<path d="M2930 2561 c0 -6 7 -8 15 -5 11 5 15 -1 15 -20 0 -14 -5 -26 -11 -26
-6 0 -9 7 -5 15 3 8 1 15 -4 15 -6 0 -10 -9 -10 -20 0 -15 7 -20 26 -20 22 0
25 3 21 33 -2 24 -9 33 -25 35 -12 2 -22 -1 -22 -7z"/>
<path d="M3044 2556 c-10 -26 0 -51 21 -51 16 0 20 7 20 30 0 33 -30 49 -41
21z m32 -32 c-5 -13 -10 -14 -18 -6 -6 6 -8 18 -4 28 5 13 10 14 18 6 6 -6 8
-18 4 -28z"/>
<path d="M3180 2535 c0 -19 4 -35 8 -35 4 0 8 16 8 35 0 19 -4 35 -8 35 -4 0
-8 -16 -8 -35z"/>
<path d="M3208 2553 c-6 -28 2 -53 18 -53 8 0 14 -4 14 -10 0 -5 3 -10 8 -10
4 0 6 20 4 45 -3 35 -8 45 -22 45 -10 0 -20 -8 -22 -17z m32 -18 c0 -14 -4
-25 -10 -25 -5 0 -10 11 -10 25 0 14 5 25 10 25 6 0 10 -11 10 -25z"/>
<path d="M3265 2543 c2 -16 4 -31 4 -35 1 -5 10 -8 21 -8 17 0 20 6 19 38 -1
27 -3 30 -6 12 -7 -40 -23 -48 -23 -12 0 18 -4 32 -9 32 -5 0 -8 -12 -6 -27z"/>
<path d="M3324 2556 c-10 -26 0 -51 21 -51 16 0 20 7 20 30 0 33 -30 49 -41
21z m36 -30 c0 -11 -19 -15 -25 -6 -3 5 1 10 9 10 9 0 16 -2 16 -4z"/>
<path d="M1900 2530 c0 -6 7 -43 16 -82 11 -48 19 -67 26 -60 7 7 5 31 -7 77
-16 59 -35 94 -35 65z"/>
<path d="M1236 2519 c-28 -84 -36 -114 -36 -138 0 -16 -12 -44 -27 -63 -16
-19 -64 -89 -108 -156 -113 -173 -114 -151 -1 33 57 93 62 125 36 215 -32 106
-34 109 -38 70 -2 -19 -16 -78 -32 -130 -31 -106 -64 -285 -56 -306 3 -7 -1
-29 -9 -49 l-15 -35 29 6 c21 5 34 1 50 -15 20 -20 22 -20 27 -4 16 48 29 82
49 128 12 28 39 93 59 145 20 52 41 102 45 110 13 24 44 190 37 197 -3 3 -8 0
-10 -8z m-157 -149 c-1 -3 3 -16 10 -29 10 -17 10 -22 1 -16 -9 5 -10 2 -6
-13 8 -23 -31 -109 -60 -133 -16 -13 -17 -12 -10 6 5 11 12 36 17 55 18 81 32
120 43 120 6 0 4 5 -4 11 -10 7 -11 9 -2 7 8 -2 12 -6 11 -8z m43 -187 c-5
-10 -7 -24 -4 -32 2 -8 0 -11 -6 -7 -5 3 -13 -6 -17 -21 -3 -15 -18 -51 -31
-80 -21 -44 -29 -52 -50 -51 -29 3 -29 3 -5 37 11 15 21 34 23 41 2 8 8 20 13
26 6 6 17 22 25 34 8 12 21 29 28 36 7 8 10 14 5 14 -4 0 -1 5 7 10 21 13 22
13 12 -7z"/>
<path d="M1071 2104 c0 -11 3 -14 6 -6 3 7 2 16 -1 19 -3 4 -6 -2 -5 -13z"/>
<path d="M1592 2428 l3 -53 44 -3 c24 -2 48 1 53 6 5 5 7 30 3 56 l-7 46 -50
0 -49 0 3 -52z m75 1 c2 -26 -1 -29 -26 -29 -24 0 -27 3 -23 28 2 19 10 27 25
28 17 1 22 -5 24 -27z"/>
<path d="M4800 2381 c0 -22 42 -136 104 -281 47 -109 66 -165 64 -189 -3 -33
-4 -32 -88 80 -47 63 -91 128 -99 146 -19 47 -80 68 -168 59 -36 -4 -74 -11
-82 -17 -12 -7 -5 -8 24 -4 24 3 60 0 90 -10 60 -18 68 -18 59 -3 -4 7 -3 8 5
4 6 -4 9 -11 7 -15 -3 -4 8 -18 24 -30 69 -50 95 -161 80 -340 -5 -62 -11
-115 -13 -117 -2 -2 -27 25 -55 60 l-51 64 36 28 c63 52 76 171 27 253 -47 79
-201 118 -262 66 -46 -38 -55 -72 -50 -189 4 -119 12 -134 84 -162 32 -12 61
-15 102 -11 l57 6 40 -52 c99 -129 348 -427 356 -427 9 0 -110 150 -223 281
l-48 56 11 89 c13 104 7 260 -10 293 -34 64 9 14 132 -150 110 -146 134 -185
128 -201 -10 -28 -2 -70 13 -65 6 2 12 12 14 23 2 14 1 16 -6 6 -8 -11 -10
-11 -14 0 -3 7 -2 21 1 30 5 14 24 -5 81 -82 41 -55 79 -100 83 -100 10 0 -16
38 -86 127 -28 37 -45 67 -41 74 4 7 3 9 -3 6 -11 -7 -140 159 -135 175 1 5
-1 7 -6 4 -5 -3 -7 17 -4 43 4 43 -2 64 -51 174 -31 69 -68 164 -82 211 -23
74 -45 118 -45 87z m-232 -259 c8 -1 11 2 7 8 -8 13 1 13 27 -1 15 -8 19 -8
14 0 -4 6 -4 11 1 11 14 -1 43 -27 38 -34 -3 -3 1 -2 7 4 17 14 28 12 28 -5 0
-9 11 -20 24 -24 26 -10 36 -29 37 -69 0 -24 1 -25 8 -7 6 13 8 1 6 -35 -3
-86 -4 -92 -17 -84 -8 5 -9 2 -5 -9 4 -11 -1 -20 -13 -27 -10 -5 -22 -20 -26
-32 -6 -22 -8 -21 -40 16 -19 22 -37 37 -40 33 -6 -5 1 -16 36 -54 13 -15 13
-16 -2 -10 -10 3 -18 2 -18 -3 0 -13 -67 -13 -75 0 -4 6 -11 8 -16 5 -5 -4 -9
-1 -9 5 0 7 -6 10 -14 7 -8 -3 -20 2 -28 11 -11 13 -11 15 2 8 12 -6 11 -4 -1
6 -9 7 -16 20 -17 28 0 8 -5 44 -11 78 -7 45 -7 72 1 90 6 15 12 29 13 32 4
17 32 50 42 50 7 0 13 6 13 13 0 7 3 8 8 2 4 -5 13 -11 20 -13z"/>
<path d="M4630 2027 c0 -19 16 -31 24 -18 3 5 -1 14 -9 21 -12 10 -15 10 -15
-3z"/>
<path d="M4471 2004 c0 -11 3 -14 6 -6 3 7 2 16 -1 19 -3 4 -6 -2 -5 -13z"/>
<path d="M4590 1991 c0 -5 5 -13 10 -16 6 -3 10 -2 10 4 0 5 -4 13 -10 16 -5
3 -10 2 -10 -4z"/>
<path d="M4500 1953 c0 -5 15 -8 34 -8 19 0 32 3 29 8 -2 4 -17 7 -34 7 -16 0
-29 -3 -29 -7z"/>
<path d="M1156 2368 c3 -5 10 -6 15 -3 13 9 11 12 -6 12 -8 0 -12 -4 -9 -9z"/>
<path d="M1454 2346 c-3 -8 -4 -31 -2 -52 l3 -39 53 -3 c37 -2 52 1 53 10 0 7
3 25 5 40 3 16 -2 32 -11 42 -21 20 -93 22 -101 2z m89 -26 c6 -22 -11 -63
-23 -55 -6 4 -7 12 -3 18 4 8 1 7 -9 -1 -20 -16 -29 -4 -21 27 5 21 6 21 27 4
11 -10 15 -11 9 -3 -17 18 -16 27 1 27 8 0 16 -8 19 -17z"/>
<path d="M1608 2353 c-14 -3 -18 -15 -18 -54 l0 -49 55 0 55 0 0 49 c0 59 -23
72 -92 54z m47 -23 c-19 -8 -19 -9 3 -9 24 -1 29 -20 10 -39 -21 -21 -47 -14
-54 14 -7 29 7 44 41 43 l20 0 -20 -9z"/>
<path d="M3885 2331 c-6 -27 -11 -31 -38 -31 -18 0 -81 -6 -142 -14 -60 -8
-161 -20 -222 -27 -62 -7 -113 -17 -113 -22 0 -5 15 -7 33 -3 17 3 77 10 132
16 55 6 151 18 213 26 63 9 115 14 117 12 2 -2 -1 -35 -7 -75 l-11 -71 -106
-16 c-58 -9 -151 -24 -206 -32 -113 -18 -139 -24 -131 -31 3 -3 33 0 68 6 35
6 126 20 202 32 77 11 146 23 154 27 12 4 14 -2 9 -36 -3 -23 -4 -42 -2 -42 1
0 21 53 45 119 41 116 49 180 23 188 -6 2 -14 -10 -18 -26z"/>
<path d="M4669 2343 c-16 -17 -69 -116 -69 -127 0 -3 11 -1 24 5 32 15 87 4
122 -24 l29 -22 -19 29 c-42 66 -59 99 -65 128 -6 29 -7 29 -22 11z m21 -72
c8 -15 6 -18 -13 -16 -37 4 -38 5 -32 15 4 6 11 8 16 5 5 -3 6 2 2 11 -8 22
13 10 27 -15z"/>
<path d="M4977 2353 c-17 -16 -4 -87 34 -191 23 -62 44 -111 45 -109 5 5 -34
216 -48 265 -12 41 -18 48 -31 35z"/>
<path d="M2885 2330 c-3 -6 1 -7 9 -4 18 7 21 14 7 14 -6 0 -13 -4 -16 -10z"/>
<path d="M3947 2293 c-8 -15 -31 -71 -51 -125 -19 -53 -52 -128 -71 -168 -20
-39 -35 -81 -33 -93 3 -17 7 -12 20 23 l17 45 -4 -45 c-4 -41 -4 -42 4 -12 5
19 14 39 21 45 10 9 12 8 6 -6 -15 -45 -18 -67 -7 -67 6 0 12 15 12 33 l1 32
7 -30 7 -30 6 37 c4 21 25 77 47 126 60 133 75 187 65 224 -12 42 -30 46 -47
11z m19 -40 c-3 -10 -7 -33 -8 -50 -1 -18 -6 -33 -11 -33 -4 0 -7 -6 -6 -12 3
-28 -2 -38 -18 -38 -11 0 -14 -3 -8 -8 7 -4 5 -18 -6 -39 -9 -18 -18 -30 -21
-27 -3 2 -8 -9 -11 -26 -7 -31 -27 -42 -27 -15 0 8 5 15 11 15 5 0 8 4 5 8 -3
5 2 18 12 28 9 10 17 33 17 49 1 24 6 31 25 34 l25 4 -23 6 -23 6 23 25 c13
13 21 26 19 28 -4 4 20 62 26 62 2 0 2 -8 -1 -17z"/>
<path d="M4053 2308 c-5 -7 -19 -44 -32 -83 -13 -38 -34 -91 -47 -117 -45 -88
-62 -144 -69 -219 -9 -92 1 -88 13 6 6 48 28 113 67 205 68 161 87 211 82 217
-2 2 -8 -2 -14 -9z"/>
<path d="M4900 2295 c-18 -47 -12 -67 73 -270 14 -33 30 -76 36 -95 l11 -35
-5 40 c-3 29 -2 35 5 20 5 -11 9 -30 9 -42 1 -13 6 -23 12 -23 6 0 8 9 4 23
-4 12 -9 30 -11 39 -9 31 31 13 41 -20 6 -17 15 -35 19 -39 15 -14 -2 55 -25
99 -12 24 -47 106 -78 182 -31 77 -62 141 -69 144 -6 2 -16 -8 -22 -23z m40
-48 c0 -5 -4 -5 -10 -2 -5 3 -10 14 -10 23 0 15 2 15 10 2 5 -8 10 -19 10 -23z
m12 -34 c0 -10 0 -26 0 -37 -2 -13 2 -16 14 -12 11 4 15 2 11 -7 -3 -7 10 -46
29 -86 19 -40 31 -78 27 -83 -8 -14 -32 30 -33 60 0 12 -9 31 -20 42 -11 11
-21 23 -21 28 -1 4 -6 18 -11 32 -5 14 -10 33 -11 43 -1 9 -5 17 -9 17 -4 0
-8 5 -8 10 0 18 30 11 32 -7z"/>
<path d="M2670 2251 c0 -34 4 -51 13 -51 26 0 36 17 34 55 -2 33 -6 41 -24 43
-21 3 -23 0 -23 -47z m32 24 c0 -5 -5 -11 -11 -13 -6 -2 -11 4 -11 13 0 9 5
15 11 13 6 -2 11 -8 11 -13z m6 -43 c2 -7 -3 -12 -12 -12 -9 0 -16 7 -16 16 0
17 22 14 28 -4z"/>
<path d="M2883 2250 c0 -31 2 -41 4 -22 5 41 23 42 23 1 0 -16 4 -28 8 -25 14
9 1 78 -14 72 -7 -3 -15 3 -17 12 -3 9 -4 -8 -4 -38z"/>
<path d="M2935 2290 c3 -5 8 -10 11 -10 2 0 4 5 4 10 0 6 -5 10 -11 10 -5 0
-7 -4 -4 -10z"/>
<path d="M3140 2285 c0 -8 -6 -14 -12 -12 -15 2 -24 -51 -10 -65 20 -20 39 3
39 48 0 24 -4 44 -8 44 -5 0 -9 -7 -9 -15z m0 -45 c0 -11 -4 -20 -10 -20 -5 0
-10 9 -10 20 0 11 5 20 10 20 6 0 10 -9 10 -20z"/>
<path d="M3170 2289 c0 -5 5 -7 10 -4 6 3 10 8 10 11 0 2 -4 4 -10 4 -5 0 -10
-5 -10 -11z"/>
<path d="M3253 2250 c0 -30 2 -43 4 -27 2 15 2 39 0 55 -2 15 -4 2 -4 -28z"/>
<path d="M3270 2290 c0 -5 5 -10 10 -10 6 0 10 5 10 10 0 6 -4 10 -10 10 -5 0
-10 -4 -10 -10z"/>
<path d="M2743 2273 c-7 -2 -13 -21 -13 -41 0 -42 14 -33 23 16 4 17 5 32 4
31 -1 0 -8 -3 -14 -6z"/>
<path d="M2777 2273 c-2 -5 -4 -22 -5 -39 -2 -28 1 -32 22 -30 25 1 27 11 10
64 -4 13 -21 16 -27 5z m23 -43 c0 -5 -5 -10 -11 -10 -5 0 -7 5 -4 10 3 6 8
10 11 10 2 0 4 -4 4 -10z"/>
<path d="M2832 2268 c-7 -7 -12 -20 -12 -29 0 -21 26 -43 40 -34 15 9 12 25
-4 19 -7 -3 -16 2 -19 10 -7 18 8 30 24 20 7 -4 10 -1 7 6 -6 19 -22 22 -36 8z"/>
<path d="M2964 2267 c-9 -25 0 -62 15 -62 22 0 38 32 25 52 -14 23 -33 28 -40
10z m29 -13 c8 -8 -3 -34 -14 -34 -5 0 -9 9 -9 20 0 19 11 26 23 14z"/>
<path d="M3024 2265 c-3 -7 -4 -26 -1 -42 l4 -28 2 31 c1 28 4 31 34 31 30 1
31 0 9 -10 -29 -13 -25 -42 6 -43 21 -1 23 3 20 35 -3 33 -6 36 -36 38 -20 1
-35 -4 -38 -12z m66 -35 c0 -5 -7 -10 -16 -10 -8 0 -12 5 -9 10 3 6 10 10 16
10 5 0 9 -4 9 -10z"/>
<path d="M3197 2274 c-12 -12 -8 -24 6 -18 7 2 13 -4 14 -16 1 -11 -3 -20 -8
-20 -6 0 -7 5 -4 10 3 6 1 10 -5 10 -21 0 -5 -35 16 -36 18 -1 21 4 20 35 -1
34 -21 52 -39 35z"/>
<path d="M3304 2265 c-4 -9 1 -22 12 -31 18 -15 18 -15 1 -10 -12 4 -17 2 -15
-6 10 -28 33 -13 33 21 0 36 -21 54 -31 26z"/>
<path d="M2943 2235 c0 -22 2 -30 4 -17 2 12 2 30 0 40 -3 9 -5 -1 -4 -23z"/>
<path d="M3173 2235 c0 -22 2 -30 4 -17 2 12 2 30 0 40 -3 9 -5 -1 -4 -23z"/>
<path d="M3270 2240 c0 -16 5 -30 10 -30 6 0 10 14 10 30 0 17 -4 30 -10 30
-5 0 -10 -13 -10 -30z"/>
<path d="M1460 2188 c0 -50 20 -129 43 -174 16 -31 44 -60 52 -53 10 11 16
122 10 192 l-7 77 -49 0 -49 0 0 -42z m78 -33 c-1 -27 2 -58 7 -67 6 -14 2
-18 -18 -18 -22 0 -25 6 -36 57 -15 78 -15 81 18 79 28 -1 29 -2 29 -51z m3
-120 c-1 -15 -24 -12 -29 3 -3 9 2 13 12 10 10 -1 17 -7 17 -13z"/>
<path d="M1597 2223 c-11 -10 -8 -263 2 -263 14 0 39 28 56 60 18 35 45 144
45 183 0 26 -2 27 -48 27 -27 0 -52 -3 -55 -7z m43 -23 c0 -5 6 -10 14 -10 24
0 26 -28 3 -56 -12 -16 -16 -25 -10 -21 6 4 14 3 18 -3 3 -5 3 -10 -2 -10 -12
0 -35 -58 -28 -70 7 -12 3 -12 -19 -4 -9 3 -14 10 -11 14 3 5 6 33 6 62 0 67
8 108 20 108 5 0 9 -4 9 -10z"/>
<path d="M1631 2084 c0 -11 3 -14 6 -6 3 7 2 16 -1 19 -3 4 -6 -2 -5 -13z"/>
<path d="M3778 2203 c7 -3 16 -2 19 1 4 3 -2 6 -13 5 -11 0 -14 -3 -6 -6z"/>
<path d="M4158 2184 c-33 -14 -41 -25 -69 -97 -32 -79 -33 -87 -33 -227 0
-144 25 -368 46 -400 10 -16 7 12 -12 140 -46 314 -27 461 68 529 38 27 134
52 175 45 26 -4 29 -3 14 6 -30 20 -147 22 -189 4z"/>
<path d="M1900 2173 c0 -13 0 -25 0 -28 0 -3 3 -5 8 -6 12 -2 42 -139 49 -221
l6 -78 -27 0 c-73 0 -125 75 -113 163 9 64 -4 75 -40 34 -98 -111 -187 -690
-127 -824 10 -22 14 -73 14 -179 0 -151 15 -278 31 -268 5 3 21 29 35 57 25
48 26 57 20 145 -9 115 -35 205 -72 243 -25 26 -27 34 -25 106 3 125 20 281
42 378 26 115 85 303 105 335 19 31 17 22 -30 -130 -48 -152 -74 -279 -88
-425 -12 -125 -6 -192 17 -201 7 -3 30 3 52 14 22 12 49 18 64 15 49 -9 68 21
91 150 12 64 26 117 31 117 9 0 734 -206 761 -216 9 -3 16 -2 16 3 0 9 -120
45 -545 163 -121 34 -225 63 -231 65 -8 2 -7 25 3 82 8 43 16 141 16 218 2
121 -1 150 -21 210 -27 84 -42 111 -42 78z m-97 -288 c-10 -7 -15 -17 -10 -21
4 -4 7 -2 7 4 0 7 3 12 8 12 11 0 67 -50 67 -60 0 -5 4 -12 9 -17 5 -5 6 -3 2
5 -9 15 6 16 22 0 9 -9 12 -9 12 1 0 7 3 10 8 8 9 -6 8 -42 -4 -122 -4 -33 -8
-68 -7 -78 0 -16 -5 -18 -34 -12 -19 3 -42 9 -51 12 -11 4 -14 3 -7 -4 6 -5
29 -15 53 -22 31 -9 41 -16 34 -24 -8 -10 -15 -38 -27 -102 -1 -5 -3 -20 -3
-33 -1 -15 -6 -21 -14 -16 -10 5 -10 4 -1 -6 8 -9 9 -19 2 -32 -5 -10 -6 -18
-2 -18 21 -1 -34 -30 -56 -30 -14 0 -38 -6 -53 -14 -20 -11 -29 -11 -36 -3
-14 18 -24 66 -16 78 3 6 8 56 10 111 2 55 7 105 12 111 4 7 9 24 10 38 2 35
28 132 41 158 14 25 14 41 0 21 -8 -12 -9 -9 -4 10 10 40 27 70 37 64 5 -3 1
-12 -9 -19z m-87 -804 c-4 -5 -2 -20 3 -33 13 -37 23 -136 11 -118 -8 13 -10
13 -10 -2 0 -10 4 -18 8 -18 14 0 11 -38 -4 -50 -7 -7 -11 -17 -7 -23 3 -5 1
-7 -4 -4 -14 9 -22 66 -11 73 4 3 6 41 3 85 -5 72 -2 99 11 99 3 0 3 -4 0 -9z"/>
<path d="M4228 2145 c-97 -36 -148 -123 -132 -225 19 -119 153 -184 269 -131
63 28 69 41 73 157 5 117 -4 151 -50 189 -34 29 -98 33 -160 10z m135 -16 c9
0 15 -4 12 -9 -3 -5 -1 -11 5 -15 15 -9 40 -67 40 -95 1 -92 -2 -111 -24 -151
-13 -24 -29 -43 -36 -41 -7 1 -18 -5 -24 -14 -10 -13 -21 -15 -57 -8 -50 9
-57 10 -64 14 -3 1 -11 3 -17 4 -7 1 -12 7 -11 14 2 6 -4 9 -12 6 -10 -4 -15
0 -15 11 0 9 -5 13 -10 10 -6 -4 -10 -3 -9 2 1 4 0 15 -4 23 -3 8 -10 29 -15
47 -9 28 -8 31 6 26 15 -6 15 -5 3 10 -16 20 -7 65 17 85 11 9 12 11 2 6 -13
-7 -13 -6 0 12 8 10 22 25 30 31 25 21 103 42 135 37 17 -3 38 -5 48 -5z"/>
<path d="M2628 2075 c-2 -25 0 -45 4 -45 5 0 8 9 8 20 0 11 7 20 15 20 8 0 15
4 15 10 0 5 -7 7 -15 4 -9 -4 -15 0 -15 9 0 10 12 17 33 20 l32 4 -36 1 c-37
2 -37 2 -41 -43z"/>
<path d="M3052 2078 c3 -40 5 -43 35 -45 18 -2 35 3 39 9 5 7 2 9 -9 5 -9 -3
-19 -2 -22 2 -2 5 5 11 16 14 26 7 20 32 -7 32 -13 0 -21 -10 -26 -30 l-7 -30
1 30 c0 48 -1 55 -13 55 -6 0 -9 -17 -7 -42z"/>
<path d="M1299 2098 c-5 -9 -5 -48 -1 -43 6 6 11 45 5 45 -2 0 -4 -1 -4 -2z"/>
<path d="M2681 2070 c-1 -29 3 -36 19 -37 16 -1 20 4 20 28 0 39 18 37 23 -3
4 -32 4 -32 5 5 2 31 -1 37 -18 37 -16 0 -20 -7 -20 -32 0 -36 -16 -28 -23 12
-3 19 -5 17 -6 -10z"/>
<path d="M2765 2089 c-11 -18 4 -59 23 -60 14 0 14 -2 -3 -9 -19 -8 -19 -9 3
-9 20 -1 22 4 22 44 0 38 -3 45 -19 45 -11 0 -23 -5 -26 -11z m31 -36 c-6 -14
-9 -15 -16 -4 -11 19 -1 46 13 32 5 -5 7 -18 3 -28z"/>
<path d="M2827 2094 c-4 -4 -7 -18 -7 -31 0 -28 26 -41 43 -23 10 10 8 12 -5
7 -10 -3 -20 -2 -23 2 -2 5 5 11 16 14 12 3 19 12 17 19 -5 15 -30 22 -41 12z
m23 -14 c0 -5 -4 -10 -10 -10 -5 0 -10 5 -10 10 0 6 5 10 10 10 6 0 10 -4 10
-10z"/>
<path d="M2881 2063 c1 -28 3 -31 6 -13 3 14 10 31 15 38 8 9 6 12 -6 12 -12
0 -16 -9 -15 -37z"/>
<path d="M2944 2086 c-12 -31 0 -51 34 -53 17 -1 32 3 32 9 0 7 4 7 13 0 10
-9 13 -4 13 21 0 24 -4 33 -17 33 -12 0 -17 -8 -16 -25 2 -18 -3 -24 -20 -26
-13 -1 -23 2 -23 7 0 4 7 8 16 8 21 0 14 34 -9 38 -9 2 -20 -3 -23 -12z m36
-6 c0 -5 -4 -10 -10 -10 -5 0 -10 5 -10 10 0 6 5 10 10 10 6 0 10 -4 10 -10z"/>
<path d="M3142 2063 c1 -37 1 -37 5 -5 5 40 23 43 23 4 0 -25 4 -29 30 -30 36
-1 49 16 27 33 -22 16 -22 26 0 18 11 -4 14 -3 9 5 -4 7 -13 12 -21 12 -22 0
-29 -22 -12 -35 23 -16 21 -24 -3 -18 -10 3 -19 8 -18 12 3 26 -5 41 -22 41
-17 0 -20 -6 -18 -37z"/>
<path d="M3247 2086 c-10 -24 4 -56 24 -56 15 0 19 7 19 35 0 28 -4 35 -19 35
-10 0 -21 -6 -24 -14z m33 -21 c0 -14 -4 -25 -10 -25 -5 0 -10 11 -10 25 0 14
5 25 10 25 6 0 10 -11 10 -25z"/>
<path d="M3300 2065 c0 -19 5 -35 11 -35 7 0 9 9 6 22 -4 12 -1 28 5 35 8 10
6 13 -6 13 -12 0 -16 -9 -16 -35z"/>
<path d="M3340 2085 c0 -9 7 -18 15 -21 8 -4 15 -11 15 -16 0 -6 -7 -8 -15 -4
-8 3 -15 1 -15 -4 0 -6 9 -10 20 -10 13 0 20 7 20 20 0 11 -7 20 -15 20 -8 0
-15 5 -15 11 0 6 7 9 15 5 8 -3 15 -1 15 4 0 6 -9 10 -20 10 -11 0 -20 -7 -20
-15z"/>
<path d="M1330 2076 c0 -4 7 -21 16 -38 20 -38 64 -166 64 -185 0 -7 -4 -13
-10 -13 -5 0 -10 6 -10 13 0 19 -51 180 -59 190 -4 4 -5 -19 -3 -51 7 -92 -35
-152 -107 -154 -28 -1 -31 -4 -30 -32 0 -17 4 -52 8 -78 l8 -46 -224 -178
c-123 -97 -223 -181 -223 -186 0 -11 14 -1 101 69 156 127 339 273 343 273 2
0 9 -34 15 -76 11 -65 11 -77 -2 -87 -71 -55 -144 -111 -274 -211 -84 -64
-153 -122 -153 -128 0 -6 10 -2 23 9 12 11 60 49 107 85 47 35 136 103 198
152 63 48 115 86 116 84 2 -2 8 -36 15 -75 14 -80 45 -119 86 -109 12 3 38 -3
58 -14 45 -24 63 -25 71 -4 10 25 7 183 -5 259 -6 39 -12 81 -14 95 -1 14 -5
32 -7 40 -15 45 -36 145 -33 149 9 9 17 -8 36 -81 28 -111 48 -260 50 -391 2
-109 1 -119 -20 -141 -42 -44 -63 -122 -69 -248 -5 -115 -4 -119 22 -158 22
-33 42 -49 47 -37 1 1 4 98 8 215 5 165 9 215 20 221 7 5 11 13 7 19 -3 6 -3
13 2 16 14 9 6 285 -12 391 -33 199 -92 377 -137 421 -16 15 -29 24 -29 20z
m27 -176 c-3 -10 1 -24 8 -30 8 -6 14 -19 13 -28 0 -9 7 -44 15 -77 9 -33 14
-62 11 -66 -2 -4 3 -12 11 -19 8 -7 12 -17 9 -22 -8 -13 -164 -128 -173 -128
-4 0 -6 30 -6 66 0 36 -4 68 -9 71 -5 4 -6 0 -1 -8 6 -11 5 -12 -6 -1 -15 14
-19 9 79 86 40 32 71 60 68 63 -6 6 -50 -26 -105 -76 -19 -17 -37 -31 -41 -31
-8 0 -11 80 -4 103 6 20 44 23 64 5 11 -10 11 -9 0 6 -14 18 -13 19 2 13 13
-4 15 -2 11 10 -5 12 -3 14 7 8 10 -6 12 -4 7 11 -6 15 -3 14 13 -5 22 -25 26
-21 10 10 -8 13 -7 25 0 39 14 26 24 26 17 0z m71 -287 c0 -10 2 -28 5 -40 12
-49 18 -251 7 -258 -6 -3 -8 -11 -5 -16 10 -15 0 -10 -25 11 -14 12 -37 20
-58 20 -23 0 -41 7 -53 22 -19 21 -21 32 -22 101 0 23 -4 33 -9 25 -7 -12 -8
-10 -8 27 0 3 3 5 6 4 4 0 10 5 14 12 9 13 131 107 142 108 4 1 7 -7 6 -16z
m26 -636 c0 -134 0 -133 -19 -117 -17 14 -20 50 -5 50 6 0 10 5 10 11 0 5 -4
7 -10 4 -12 -8 -13 1 -1 43 6 20 6 32 0 32 -5 0 -9 7 -9 16 0 9 5 12 12 8 8
-5 9 -2 4 11 -3 10 -4 26 -1 36 14 43 20 13 19 -94z"/>
<path d="M3595 2010 c3 -5 8 -10 11 -10 2 0 4 5 4 10 0 6 -5 10 -11 10 -5 0
-7 -4 -4 -10z"/>
<path d="M902 1964 c-23 -20 -49 -48 -57 -63 -7 -14 -25 -38 -39 -53 -14 -15
-26 -32 -26 -38 0 -18 53 -11 75 10 l22 21 6 -63 c7 -79 48 -183 65 -166 16
16 14 83 -3 133 l-14 40 5 -50 c2 -27 7 -63 10 -79 4 -19 3 -26 -5 -22 -12 8
-35 86 -48 163 -8 46 -7 55 11 73 35 35 9 22 -39 -20 -43 -38 -71 -51 -63 -31
4 13 69 92 98 121 29 29 54 60 49 60 -2 0 -23 -17 -47 -36z"/>
<path d="M3145 1991 c-3 -5 -2 -12 3 -15 5 -3 9 1 9 9 0 17 -3 19 -12 6z"/>
<path d="M3768 1967 c-57 -50 -140 -159 -129 -170 14 -14 57 0 81 25 l20 22 0
-57 c0 -59 30 -156 55 -177 12 -10 15 -8 16 11 2 53 -2 106 -11 139 -7 27 -8
14 -5 -55 4 -83 4 -88 -10 -60 -23 49 -38 136 -32 192 l5 52 -30 -35 c-32 -36
-66 -59 -75 -50 -5 5 59 86 107 135 29 29 54 61 49 61 -2 0 -21 -15 -41 -33z"/>
<path d="M5100 1973 c0 -4 13 -21 29 -37 55 -58 111 -123 111 -130 0 -15 -23
-4 -59 29 -21 19 -40 35 -42 35 -2 0 -2 -22 -1 -49 2 -26 -1 -65 -6 -85 -6
-20 -7 -36 -2 -36 11 0 20 38 20 93 0 47 0 47 20 27 24 -24 68 -36 82 -22 7 7
2 19 -17 39 -14 15 -39 46 -55 69 -27 39 -80 83 -80 67z"/>
<path d="M2267 1924 c21 -25 50 -59 66 -77 32 -38 20 -47 -23 -17 -16 12 -30
17 -30 11 0 -17 43 -41 72 -41 16 0 28 2 28 5 0 9 -76 108 -105 138 -44 44
-50 31 -8 -19z"/>
<path d="M2699 1958 c-6 -32 -5 -89 2 -94 5 -3 9 6 9 20 0 15 7 26 18 29 16 4
16 5 0 6 -25 1 -23 31 1 31 16 0 21 -8 24 -47 l3 -48 2 53 c2 52 2 52 -28 52
-16 0 -30 -1 -31 -2z"/>
<path d="M3017 1953 c-7 -12 -3 -80 6 -89 4 -4 7 8 8 27 0 19 2 42 4 52 3 17
-10 24 -18 10z"/>
<path d="M3053 1915 c0 -27 2 -38 4 -22 2 15 2 37 0 50 -2 12 -4 0 -4 -28z"/>
<path d="M5051 1950 c1 -8 5 -26 9 -40 l8 -25 1 25 c0 14 -4 32 -9 40 -9 13
-10 13 -9 0z"/>
<path d="M1450 1944 c0 -15 37 -61 44 -54 3 3 -6 19 -19 35 -13 17 -24 25 -25
19z"/>
<path d="M1686 1931 c-10 -11 -16 -25 -14 -31 2 -6 11 3 21 20 21 34 18 39 -7
11z"/>
<path d="M2779 1938 c-7 -35 -7 -68 1 -68 6 0 10 14 10 30 0 43 18 37 23 -7
l4 -38 -1 40 c-1 29 -6 41 -18 43 -10 2 -18 2 -19 0z"/>
<path d="M2837 1933 c-16 -15 -6 -54 16 -63 l22 -9 -24 0 c-19 -1 -22 -4 -14
-12 23 -23 43 -2 43 46 0 37 -3 45 -18 45 -10 0 -22 -3 -25 -7z m29 -39 c-4
-12 -10 -14 -17 -7 -5 5 -7 17 -3 27 4 12 10 14 17 7 5 -5 7 -17 3 -27z"/>
<path d="M2897 1933 c-11 -10 -8 -61 4 -69 6 -3 18 1 27 11 16 16 16 17 -5 10
-14 -4 -23 -2 -23 4 0 6 9 11 21 11 15 0 19 4 15 16 -3 9 -6 18 -6 20 0 7 -26
5 -33 -3z m23 -13 c0 -5 -5 -10 -11 -10 -5 0 -7 5 -4 10 3 6 8 10 11 10 2 0 4
-4 4 -10z"/>
<path d="M2952 1898 c1 -37 2 -39 5 -10 2 17 8 32 14 32 5 0 9 5 9 10 0 6 -7
10 -15 10 -11 0 -15 -11 -13 -42z"/>
<path d="M3077 1933 c-11 -10 -8 -61 3 -68 6 -4 17 -1 25 5 12 10 15 10 15 -1
1 -10 5 -9 14 4 13 16 14 16 20 1 4 -9 9 -14 12 -11 3 3 1 14 -5 26 -7 13 -8
22 -1 26 5 3 10 11 10 17 0 7 -6 6 -15 -2 -10 -9 -15 -9 -15 -1 0 6 -5 11 -10
11 -7 0 -7 -7 0 -21 7 -11 9 -23 6 -27 -10 -10 -56 -11 -56 -1 0 5 9 9 21 9
15 0 19 4 15 16 -3 9 -6 18 -6 20 0 7 -26 5 -33 -3z m23 -13 c0 -5 -5 -10 -11
-10 -5 0 -7 5 -4 10 3 6 8 10 11 10 2 0 4 -4 4 -10z"/>
<path d="M3175 1921 c-7 -24 12 -64 28 -58 19 6 15 71 -5 75 -9 2 -19 -5 -23
-17z m35 -16 c0 -14 -4 -25 -10 -25 -5 0 -10 11 -10 25 0 14 5 25 10 25 6 0
10 -11 10 -25z"/>
<path d="M3230 1905 c0 -19 5 -35 10 -35 6 0 10 9 10 19 0 11 3 26 6 35 4 11
1 16 -10 16 -12 0 -16 -10 -16 -35z"/>
<path d="M3273 1925 c-3 -9 3 -22 13 -31 18 -14 18 -15 -6 -8 -24 6 -24 5 -8
-12 14 -14 20 -15 32 -5 9 8 13 18 9 25 -4 6 -6 19 -5 29 4 21 -26 23 -35 2z
m22 -5 c3 -5 1 -10 -4 -10 -6 0 -11 5 -11 10 0 6 2 10 4 10 3 0 8 -4 11 -10z"/>
<path d="M2155 1920 c4 -6 1 -19 -7 -28 -11 -15 -11 -15 3 -5 11 9 19 9 26 2
6 -6 18 -9 27 -7 11 2 5 10 -20 26 -20 13 -33 19 -29 12z"/>
<path d="M5590 1925 c0 -5 5 -17 10 -25 5 -8 10 -10 10 -5 0 6 -5 17 -10 25
-5 8 -10 11 -10 5z"/>
<path d="M1046 1894 c-4 -14 -5 -29 -2 -31 3 -3 8 7 12 21 3 15 4 29 1 32 -2
3 -8 -7 -11 -22z"/>
<path d="M956 1895 c-15 -11 -16 -15 -5 -15 8 0 24 7 35 15 14 11 15 14 4 14
-8 0 -24 -6 -34 -14z"/>
<path d="M2095 1888 c15 -50 10 -90 -22 -154 -9 -17 -13 -37 -10 -45 4 -12 6
-11 6 1 1 8 12 38 25 65 19 38 26 46 31 33 4 -10 -2 -36 -14 -61 -21 -44 -28
-87 -13 -87 12 0 32 22 32 35 0 5 -7 1 -15 -9 -22 -29 -19 0 5 53 24 52 25 65
4 82 -10 8 -13 21 -9 36 7 28 -4 73 -17 73 -6 0 -7 -9 -3 -22z"/>
<path d="M5131 1894 c0 -11 3 -14 6 -6 3 7 2 16 -1 19 -3 4 -6 -2 -5 -13z"/>
<path d="M3460 1885 c0 -8 4 -15 10 -15 5 0 7 7 4 15 -4 8 -8 15 -10 15 -2 0
-4 -7 -4 -15z"/>
<path d="M2248 1879 c17 -18 15 -115 -4 -180 -25 -87 -37 -85 -31 6 4 59 3 70
-3 40 -12 -53 -12 -132 -1 -139 13 -8 53 92 58 144 2 25 5 62 7 83 3 30 0 39
-17 48 -18 9 -20 9 -9 -2z"/>
<path d="M1480 1867 c0 -12 4 -37 25 -152 15 -86 25 -165 25 -212 0 -63 15
-79 19 -20 1 23 6 83 11 132 5 50 10 117 10 149 0 96 8 60 21 -94 6 -80 14
-176 18 -215 l6 -70 8 112 c4 62 14 150 22 195 21 112 29 188 21 188 -4 0 -20
-10 -36 -21 -15 -12 -40 -21 -53 -21 -14 0 -39 9 -55 21 -35 24 -42 26 -42 8z
m80 -59 c0 -5 -3 -7 -7 -5 -5 3 -7 -13 -7 -34 1 -22 -2 -52 -6 -67 -8 -26 -8
-26 -11 8 -1 19 -3 42 -4 50 0 8 -4 21 -8 27 -10 16 13 42 30 36 7 -3 13 -9
13 -15z m85 12 c3 -5 2 -10 -4 -10 -5 0 -13 5 -16 10 -3 6 -2 10 4 10 5 0 13
-4 16 -10z m-7 -29 c3 -8 0 -11 -7 -7 -7 5 -11 -1 -11 -14 0 -13 4 -19 12 -14
7 5 8 3 2 -7 -4 -8 -10 -23 -11 -33 -5 -27 -13 -33 -14 -10 -4 50 -7 70 -13
85 -5 12 -2 16 15 15 12 0 24 -7 27 -15z"/>
<path d="M4094 1841 c9 -16 12 -32 8 -36 -4 -5 -1 -5 6 -1 6 4 12 3 12 -1 0
-9 52 -43 66 -43 5 0 -8 11 -29 25 -20 14 -44 39 -52 55 -9 17 -18 30 -21 30
-2 0 2 -13 10 -29z"/>
<path d="M1035 1820 c0 -16 3 -30 7 -30 3 0 9 -13 13 -30 4 -16 11 -30 16 -30
5 0 9 -12 9 -26 0 -15 4 -23 10 -19 12 8 4 43 -16 65 -7 9 -16 35 -20 58 -8
49 -19 56 -19 12z"/>
<path d="M940 1829 c0 -5 5 -7 10 -4 6 3 10 8 10 11 0 2 -4 4 -10 4 -5 0 -10
-5 -10 -11z"/>
<path d="M2966 1827 c3 -10 9 -15 12 -12 3 3 0 11 -7 18 -10 9 -11 8 -5 -6z"/>
<path d="M3120 1820 c-9 -6 -10 -10 -3 -10 6 0 15 5 18 10 8 12 4 12 -15 0z"/>
<path d="M4757 1805 c-15 -14 -24 -25 -19 -25 5 0 19 11 32 25 30 32 23 32
-13 0z"/>
<path d="M5480 1821 c0 -6 4 -13 10 -16 6 -3 7 1 4 9 -7 18 -14 21 -14 7z"/>
<path d="M260 1810 c0 -5 5 -10 11 -10 5 0 7 5 4 10 -3 6 -8 10 -11 10 -2 0
-4 -4 -4 -10z"/>
<path d="M4438 1740 c-8 -91 -55 -442 -65 -475 -4 -15 -2 -17 6 -9 10 9 60
333 62 408 1 17 9 -34 19 -114 23 -178 41 -292 47 -286 3 2 -9 109 -26 238
-17 128 -32 253 -33 278 -2 33 -5 22 -10 -40z"/>
<path d="M3912 1780 c0 -14 2 -19 5 -12 2 6 2 18 0 25 -3 6 -5 1 -5 -13z"/>
<path d="M4972 1780 c0 -14 2 -19 5 -12 2 6 2 18 0 25 -3 6 -5 1 -5 -13z"/>
<path d="M1020 1754 c6 -14 7 -30 4 -36 -4 -6 -2 -8 3 -5 10 7 29 -41 20 -49
-6 -6 -40 45 -54 81 -17 45 -16 0 2 -50 8 -24 14 -32 15 -20 1 17 3 16 16 -7
15 -28 28 -35 38 -19 7 10 -36 131 -46 131 -4 0 -3 -12 2 -26z"/>
<path d="M3875 1760 c4 -14 12 -29 17 -35 7 -7 8 -2 3 15 -4 14 -12 30 -17 35
-7 7 -8 2 -3 -15z"/>
<path d="M5092 1755 c0 -16 2 -22 5 -12 2 9 2 23 0 30 -3 6 -5 -1 -5 -18z"/>
<path d="M2166 1758 c-3 -7 -9 -28 -15 -47 -13 -39 -6 -56 7 -20 14 38 23 79
17 79 -3 0 -7 -6 -9 -12z"/>
<path d="M3841 1750 c0 -14 6 -38 14 -55 18 -40 18 -21 1 35 -10 32 -15 38
-15 20z"/>
<path d="M4990 1730 c-7 -16 -15 -28 -19 -26 -3 2 -7 -11 -8 -30 -2 -38 15
-45 38 -17 12 15 12 16 -3 10 -23 -8 -24 13 -2 54 8 17 13 33 11 35 -2 3 -10
-9 -17 -26z"/>
<path d="M3920 1743 c0 -7 5 -15 10 -18 6 -3 10 -15 10 -26 0 -10 5 -19 11
-19 6 0 8 9 4 23 -8 26 -35 57 -35 40z"/>
<path d="M4947 1730 c-9 -11 -17 -27 -17 -35 0 -27 15 -16 26 20 6 19 10 35
10 35 -1 0 -9 -9 -19 -20z"/>
<path d="M4168 1718 c-24 -24 -32 -97 -22 -188 l9 -77 -345 -107 c-190 -58
-383 -118 -430 -133 -47 -14 -79 -28 -72 -30 11 -4 86 17 327 94 44 14 107 33
140 43 84 25 346 107 368 115 14 6 17 1 17 -31 0 -22 -7 -79 -16 -129 -23
-129 -27 -161 -21 -155 3 3 8 17 11 32 6 36 31 72 61 88 25 13 54 64 56 97 0
10 7 -4 14 -30 7 -27 20 -56 28 -65 29 -34 47 -82 47 -129 1 -39 3 -45 11 -29
7 11 9 40 5 75 -4 33 0 103 8 166 37 275 43 404 18 406 -4 0 -50 1 -102 2 -77
2 -98 -1 -112 -15z m81 -39 c13 -15 19 -18 15 -7 -11 31 7 41 30 16 l21 -23 3
23 c2 13 10 22 22 22 13 0 19 -10 24 -42 8 -57 -1 -192 -12 -196 -6 -2 -6 -17
-2 -36 4 -19 4 -40 -1 -47 -5 -8 -9 -35 -9 -61 0 -68 -18 -102 -34 -62 -4 10
-2 13 7 8 6 -4 2 4 -10 18 -13 13 -23 29 -23 35 0 6 -6 16 -14 22 -12 10 -18
7 -31 -13 -10 -14 -25 -26 -34 -26 -13 0 -13 -2 -2 -9 8 -5 11 -16 8 -26 -4
-9 -11 -14 -16 -11 -5 4 -12 0 -15 -6 -2 -7 -3 7 0 32 12 116 13 140 2 140
-17 0 0 14 35 28 l32 12 -35 -5 c-31 -4 -36 -2 -37 17 -1 12 5 31 14 41 15 15
15 17 1 12 -19 -7 -30 38 -18 71 5 12 5 25 0 30 -5 5 -2 23 5 42 17 38 43 39
74 1z"/>
<path d="M4230 1625 c0 -8 7 -15 16 -15 14 0 14 3 4 15 -7 8 -14 15 -16 15 -2
0 -4 -7 -4 -15z"/>
<path d="M4185 1590 c3 -5 8 -10 11 -10 2 0 4 5 4 10 0 6 -5 10 -11 10 -5 0
-7 -4 -4 -10z"/>
<path d="M4509 1729 c-26 -16 -22 -106 16 -409 7 -58 11 -135 9 -172 -2 -39 1
-68 6 -68 6 0 10 22 10 48 0 39 6 58 32 93 17 24 36 64 43 89 l12 45 7 -37 c3
-20 18 -47 32 -60 47 -42 74 -73 75 -83 2 -24 8 -47 15 -53 4 -4 4 9 0 28 -36
185 -39 224 -27 343 13 123 9 190 -14 221 -12 15 -29 18 -110 20 -53 0 -101
-2 -106 -5z m200 -38 c14 -25 15 -76 6 -191 -10 -118 -10 -154 -2 -189 4 -13
2 -31 -3 -40 -6 -11 -9 -12 -10 -3 0 7 -5 10 -12 6 -6 -4 -8 -3 -5 4 10 15 -3
43 -16 35 -5 -3 -7 -1 -3 5 6 10 -18 42 -33 42 -4 0 -18 -25 -31 -56 -13 -30
-28 -58 -33 -61 -6 -3 -7 -1 -3 5 4 6 2 20 -3 31 -6 11 -13 42 -15 71 -2 28
-7 54 -10 57 -3 4 -6 16 -6 27 0 17 2 18 10 6 12 -19 13 -4 1 18 -8 14 -15 73
-24 202 -3 40 12 47 101 48 66 0 84 -3 91 -17z"/>
<path d="M4526 1638 c3 -5 10 -6 15 -3 13 9 11 12 -6 12 -8 0 -12 -4 -9 -9z"/>
<path d="M5025 1700 c-4 -12 -5 -24 -2 -27 3 -2 8 5 12 17 4 12 5 24 2 27 -3
2 -8 -5 -12 -17z"/>
<path d="M3906 1685 c6 -25 -10 -36 -19 -12 -4 8 -6 9 -6 0 -1 -6 6 -19 15
-28 23 -22 35 -2 22 36 -12 36 -21 38 -12 4z"/>
<path d="M2170 1650 c-9 -22 -15 -28 -21 -18 -4 7 -11 9 -15 6 -8 -9 2 -38 14
-38 9 0 45 70 39 77 -2 2 -10 -10 -17 -27z"/>
<path d="M3820 1679 c0 -4 7 -23 15 -43 17 -40 45 -49 45 -13 0 17 -2 19 -10
7 -10 -17 -12 -16 -33 25 -9 17 -16 27 -17 24z"/>
<path d="M970 1669 c0 -3 5 -20 11 -38 13 -36 33 -36 37 0 2 17 0 20 -6 10 -8
-10 -13 -8 -26 10 -9 13 -16 21 -16 18z"/>
<path d="M5048 1645 c-12 -27 -24 -32 -31 -12 -3 6 -6 2 -6 -10 -1 -35 23 -27
42 12 9 19 14 35 12 35 -3 0 -11 -11 -17 -25z"/>
<path d="M4800 1613 c0 -5 -9 -66 -20 -137 -24 -158 -24 -187 0 -81 20 88 36
225 26 225 -3 0 -6 -3 -6 -7z"/>
<path d="M5152 1458 c-27 -27 -10 -88 24 -88 19 0 24 5 24 25 0 16 -6 25 -16
25 -13 0 -14 -3 -5 -13 6 -8 8 -17 4 -20 -15 -15 -23 -5 -23 28 0 37 8 43 28
23 7 -7 12 -8 12 -2 0 11 -20 34 -30 34 -3 0 -11 -5 -18 -12z"/>
<path d="M5213 1415 c0 -27 2 -38 4 -22 2 15 2 37 0 50 -2 12 -4 0 -4 -28z"/>
<path d="M5299 1449 c-2 -31 3 -74 10 -82 4 -4 6 13 5 39 -3 44 -13 73 -15 43z"/>
<path d="M5700 1450 c0 -5 -7 -10 -15 -10 -8 0 -15 -5 -15 -11 0 -8 -5 -8 -15
1 -21 18 -45 5 -45 -25 0 -29 25 -44 43 -25 9 10 7 11 -10 5 -13 -3 -23 -2
-23 3 0 5 9 12 20 15 13 3 21 -1 25 -14 4 -10 15 -19 26 -19 16 0 19 7 19 45
0 25 -2 45 -5 45 -3 0 -5 -4 -5 -10z m-60 -30 c0 -5 -4 -10 -10 -10 -5 0 -10
5 -10 10 0 6 5 10 10 10 6 0 10 -4 10 -10z m60 -15 c0 -14 -4 -25 -10 -25 -5
0 -10 11 -10 25 0 14 5 25 10 25 6 0 10 -11 10 -25z"/>
<path d="M5242 1408 c-2 -32 1 -38 18 -38 17 0 20 6 18 38 -1 36 -1 36 -5 5
-2 -18 -8 -33 -13 -33 -5 0 -11 15 -13 33 -4 31 -4 31 -5 -5z"/>
<path d="M5327 1419 c-3 -11 -3 -27 0 -35 6 -16 43 -19 43 -4 0 5 -7 7 -15 4
-8 -4 -15 -1 -15 5 0 6 7 11 15 11 8 0 15 9 15 20 0 27 -36 27 -43 -1z m33 1
c0 -5 -4 -10 -10 -10 -5 0 -10 5 -10 10 0 6 5 10 10 10 6 0 10 -4 10 -10z"/>
<path d="M5380 1405 c0 -31 3 -35 25 -35 22 0 25 4 25 35 0 19 -4 35 -10 35
-5 0 -10 -14 -10 -31 0 -19 -4 -28 -11 -23 -6 3 -9 17 -6 30 2 13 0 24 -4 24
-5 0 -9 -16 -9 -35z"/>
<path d="M5440 1425 c0 -9 7 -18 15 -21 8 -4 15 -11 15 -16 0 -6 -7 -8 -15 -4
-8 3 -15 1 -15 -4 0 -16 37 -11 44 6 4 11 -1 18 -14 21 -11 3 -20 10 -20 15 0
6 7 8 15 4 8 -3 15 -1 15 4 0 6 -9 10 -20 10 -11 0 -20 -7 -20 -15z"/>
<path d="M5520 1406 c0 -20 5 -36 11 -36 7 0 9 10 7 25 -3 14 -1 28 3 31 5 3
9 -9 9 -25 0 -41 18 -40 23 2 l4 32 1 -32 c1 -18 7 -33 13 -33 6 0 9 14 7 33
-3 29 -6 32 -40 35 -37 3 -38 3 -38 -32z"/>
<path d="M5729 1433 c0 -5 -3 -20 -5 -35 -3 -16 0 -28 6 -28 5 0 10 16 10 35
0 19 -2 35 -5 35 -3 0 -5 -3 -6 -7z"/>
<path d="M5752 1408 c-2 -32 1 -38 18 -38 11 0 20 6 21 13 0 6 2 22 5 35 2 12
-1 22 -6 22 -6 0 -10 -13 -10 -30 0 -40 -18 -38 -23 3 -4 31 -4 31 -5 -5z"/>
<path d="M5810 1428 c0 -6 8 -20 18 -31 16 -19 16 -19 -7 -12 -16 5 -21 4 -17
-4 12 -19 46 -13 46 9 0 11 -7 20 -15 20 -8 0 -15 4 -15 10 0 5 7 7 15 4 8 -4
15 -1 15 5 0 6 -9 11 -20 11 -11 0 -20 -5 -20 -12z"/>
<path d="M88 1402 c-34 -4 -35 -16 -6 -36 27 -19 38 -20 38 -5 0 7 7 17 16 24
16 11 15 12 -2 16 -10 2 -31 3 -46 1z"/>
<path d="M4112 1395 c0 -11 4 -33 8 -50 l8 -30 0 30 c0 17 -3 39 -8 50 l-9 20
1 -20z"/>
<path d="M2754 1387 c-13 -34 0 -71 27 -78 26 -7 27 -6 25 40 -1 40 -4 46 -24
49 -13 2 -24 -3 -28 -11z m34 -29 c-3 -34 -20 -42 -26 -13 -5 22 5 45 18 45 7
0 10 -14 8 -32z"/>
<path d="M2964 1391 c3 -5 -4 -11 -15 -14 -30 -8 -23 -61 9 -65 20 -3 22 1 22
42 0 26 -5 46 -11 46 -5 0 -8 -4 -5 -9z m2 -57 c-5 -13 -10 -14 -18 -6 -6 6
-8 18 -4 28 5 13 10 14 18 6 6 -6 8 -18 4 -28z"/>
<path d="M969 1388 c-5 -18 -6 -38 -1 -34 7 8 12 36 6 36 -2 0 -4 -1 -5 -2z"/>
<path d="M2822 1348 c-2 -32 1 -38 18 -38 13 0 20 7 20 20 0 16 26 40 44 40
16 0 3 -18 -15 -23 -26 -7 -20 -31 9 -35 19 -3 22 1 22 32 0 35 -1 36 -35 33
-31 -2 -35 -5 -35 -29 0 -39 -18 -35 -23 5 -4 31 -4 31 -5 -5z m88 -12 c0 -3
-4 -8 -10 -11 -5 -3 -10 -1 -10 4 0 6 5 11 10 11 6 0 10 -2 10 -4z"/>
<path d="M2991 1343 c1 -36 2 -36 8 -9 9 42 29 44 34 4 l4 -33 1 38 c2 33 0
37 -23 37 -22 0 -25 -4 -24 -37z"/>
<path d="M3057 1373 c-4 -3 -7 -17 -7 -30 0 -28 26 -41 43 -23 10 10 8 12 -5
7 -20 -7 -30 5 -22 26 3 9 12 13 21 10 11 -4 14 -2 9 5 -8 13 -29 16 -39 5z"/>
<path d="M3105 1361 c-11 -36 22 -70 40 -41 3 6 -1 7 -9 4 -9 -3 -16 -1 -16 5
0 6 7 11 15 11 8 0 15 9 15 20 0 26 -36 27 -45 1z m35 -1 c0 -5 -4 -10 -10
-10 -5 0 -10 5 -10 10 0 6 5 10 10 10 6 0 10 -4 10 -10z"/>
<path d="M3160 1330 c0 -32 4 -49 10 -45 6 4 8 10 5 15 -3 4 5 10 16 13 30 8
23 61 -8 65 -21 3 -23 0 -23 -48z m36 4 c-5 -13 -10 -14 -18 -6 -6 6 -8 18 -4
28 5 13 10 14 18 6 6 -6 8 -18 4 -28z"/>
<path d="M3220 1368 c0 -6 8 -20 18 -31 16 -19 16 -20 0 -14 -10 4 -18 2 -18
-3 0 -6 9 -10 20 -10 13 0 20 7 20 20 0 11 -7 20 -15 20 -8 0 -15 5 -15 11 0
6 7 9 15 5 8 -3 15 -1 15 4 0 6 -9 10 -20 10 -11 0 -20 -5 -20 -12z"/>
<path d="M323 1343 c-4 -11 1 -22 15 -31 12 -8 22 -18 22 -23 0 -14 -28 -11
-33 4 -4 7 -6 6 -6 -4 -1 -18 25 -33 40 -23 17 10 9 43 -12 55 -16 8 -18 14
-10 22 9 9 14 8 21 -3 8 -13 10 -12 10 3 0 22 -38 23 -47 0z"/>
<path d="M480 1352 c0 -7 -9 -12 -20 -12 -17 0 -20 -6 -19 -37 1 -36 2 -36 8
-9 8 41 31 46 31 7 0 -16 4 -32 8 -35 9 -6 7 83 -2 92 -3 3 -6 0 -6 -6z"/>
<path d="M600 1351 c0 -5 -9 -11 -20 -14 -15 -4 -20 -14 -20 -36 0 -17 5 -31
10 -31 6 0 10 11 10 24 0 14 5 28 10 31 6 4 10 -7 10 -24 0 -17 4 -31 8 -31 4
0 8 20 7 45 0 25 -3 45 -7 45 -5 0 -8 -4 -8 -9z"/>
<path d="M4966 1352 c-2 -4 -1 -14 5 -22 6 -11 9 -12 9 -2 0 8 5 10 13 6 8 -5
8 -2 -2 9 -15 19 -18 20 -25 9z"/>
<path d="M60 1320 c0 -16 5 -30 11 -30 6 0 9 7 5 15 -6 18 7 19 35 4 11 -6 25
-8 32 -6 10 3 -62 47 -78 47 -3 0 -5 -13 -5 -30z"/>
<path d="M845 1339 c-3 -4 2 -6 10 -5 21 3 28 13 10 13 -9 0 -18 -4 -20 -8z"/>
<path d="M384 1329 c-5 -9 -2 -10 9 -6 10 3 17 2 17 -2 0 -5 -7 -11 -15 -15
-17 -6 -20 -32 -6 -40 21 -14 42 7 39 38 -3 32 -30 48 -44 25z m31 -39 c-3 -5
-11 -10 -16 -10 -6 0 -7 5 -4 10 3 6 11 10 16 10 6 0 7 -4 4 -10z"/>
<path d="M512 1323 c-12 -22 3 -66 20 -61 20 7 23 78 4 78 -8 0 -19 -8 -24
-17z m28 -18 c0 -14 -4 -25 -10 -25 -5 0 -10 11 -10 25 0 14 5 25 10 25 6 0
10 -11 10 -25z"/>
<path d="M632 1309 c-2 -40 4 -50 24 -42 9 3 13 18 12 42 l-1 36 -4 -32 c-2
-18 -8 -33 -13 -33 -5 0 -11 15 -13 33 l-4 32 -1 -36z"/>
<path d="M684 1328 c-4 -6 0 -16 9 -23 21 -15 22 -29 2 -21 -8 3 -15 1 -15 -3
0 -17 29 -20 41 -4 11 13 10 17 -4 28 -22 16 -22 26 0 18 11 -4 14 -3 9 5 -9
15 -33 15 -42 0z"/>
<path d="M5416 1328 c3 -5 10 -6 15 -3 13 9 11 12 -6 12 -8 0 -12 -4 -9 -9z"/>
<path d="M5575 1331 c-3 -5 -2 -12 3 -15 5 -3 9 1 9 9 0 17 -3 19 -12 6z"/>
<path d="M790 1291 c0 -6 4 -13 10 -16 6 -3 7 1 4 9 -7 18 -14 21 -14 7z"/>
<path d="M1270 1288 c0 -9 5 -20 10 -23 13 -8 13 5 0 25 -8 13 -10 13 -10 -2z"/>
<path d="M5112 1288 c-13 -13 -16 -56 -4 -75 4 -7 18 -11 30 -10 28 2 32 47 5
46 -11 0 -13 -3 -5 -6 13 -5 7 -23 -9 -23 -5 0 -9 14 -9 31 0 26 3 29 21 24
15 -5 20 -3 17 6 -6 19 -31 22 -46 7z"/>
<path d="M5173 1250 c0 -30 2 -43 4 -27 2 15 2 39 0 55 -2 15 -4 2 -4 -28z"/>
<path d="M5257 1293 c-3 -4 -4 -24 -2 -43 4 -50 4 -50 14 -50 4 0 7 21 5 46
-4 49 -8 61 -17 47z"/>
<path d="M5670 1290 c0 -5 5 -10 10 -10 6 0 10 5 10 10 0 6 -4 10 -10 10 -5 0
-10 -4 -10 -10z"/>
<path d="M1869 1278 c-1 -7 -1 -19 0 -25 1 -7 -2 -13 -7 -13 -20 0 -33 -192
-25 -368 7 -151 6 -172 -7 -166 -8 3 -27 8 -42 11 -26 5 -28 9 -28 57 l-1 51
-15 -30 c-9 -16 -23 -35 -30 -41 -13 -10 -12 -22 2 -90 9 -44 16 -115 16 -159
0 -119 -7 -249 -14 -261 -4 -5 -3 -16 2 -24 12 -19 188 -27 219 -11 31 17 26
51 -13 93 -40 44 -62 109 -65 198 -1 54 12 167 22 176 1 1 119 -26 262 -61
143 -35 346 -85 450 -110 105 -25 198 -48 208 -51 9 -3 17 -2 17 3 0 8 -69 26
-685 175 -137 34 -251 62 -252 62 -3 3 17 139 21 144 4 3 53 -9 401 -100 283
-74 305 -80 317 -76 7 3 -8 10 -33 16 -143 38 -545 144 -608 160 l-74 19 -1
81 c-1 45 1 82 2 82 2 0 162 -45 355 -100 193 -55 356 -99 362 -96 5 2 3 6 -5
9 -17 6 -190 56 -235 67 -16 4 -115 32 -220 63 -104 30 -206 58 -225 63 -34 9
-34 11 -49 89 -7 44 -13 101 -13 128 1 26 0 47 -3 47 -3 0 -6 -6 -6 -12z m9
-213 c9 -17 7 -21 -7 -21 -13 0 -16 6 -13 24 5 25 5 25 20 -3z m2 -45 c0 -5
-7 -7 -15 -4 -8 4 -15 8 -15 10 0 2 7 4 15 4 8 0 15 -4 15 -10z m-1 -71 c-3
-66 -16 -62 -21 5 -2 41 0 52 10 49 9 -4 12 -22 11 -54z m1 -83 c0 -14 -4 -27
-8 -30 -5 -3 -9 8 -9 24 0 17 4 30 9 30 4 0 8 -11 8 -24z m-52 -175 c9 -5 14
-42 17 -124 5 -153 20 -223 57 -263 16 -17 27 -37 25 -45 -2 -8 -2 -11 0 -6 8
12 23 8 23 -7 0 -13 -20 -26 -41 -26 -5 0 -9 10 -9 23 0 12 -9 30 -20 40 -11
9 -20 13 -20 8 0 -5 7 -14 15 -21 17 -14 20 -50 5 -50 -6 0 -13 7 -17 17 -5
14 -8 13 -14 -5 -11 -30 -27 -27 -31 6 -2 20 -9 28 -27 30 -15 2 -21 0 -16 -7
3 -6 11 -9 16 -6 5 4 9 4 9 1 0 -2 3 -11 6 -20 5 -13 -1 -16 -29 -16 -20 0
-38 4 -41 9 -4 5 -1 32 5 61 8 37 8 54 0 64 -8 10 -7 25 5 57 8 25 13 57 9 74
-3 17 -3 74 1 127 l7 98 26 -7 c14 -3 32 -9 39 -12z"/>
<path d="M64 1265 c-9 -23 4 -33 39 -32 25 2 33 7 35 25 3 19 -1 22 -33 22
-22 0 -38 -6 -41 -15z m60 -16 c-3 -5 -10 -7 -15 -3 -5 3 -7 10 -3 15 3 5 10
7 15 3 5 -3 7 -10 3 -15z m-34 1 c0 -5 -2 -10 -4 -10 -3 0 -8 5 -11 10 -3 6
-1 10 4 10 6 0 11 -4 11 -10z"/>
<path d="M1835 1271 c-3 -5 -2 -12 3 -15 5 -3 9 1 9 9 0 17 -3 19 -12 6z"/>
<path d="M5199 1275 c-4 -5 -4 -25 -2 -42 4 -24 11 -33 24 -33 16 0 19 7 17
43 -1 36 -2 38 -5 10 -2 -18 -8 -33 -13 -33 -5 0 -10 15 -12 33 -2 17 -6 28
-9 22z"/>
<path d="M5290 1265 c-17 -20 -5 -67 17 -63 9 2 19 10 21 18 5 13 3 13 -11 1
-15 -12 -17 -11 -17 3 0 9 7 16 16 16 9 0 14 7 12 17 -4 23 -22 27 -38 8z"/>
<path d="M5342 1247 c-2 -41 17 -58 43 -37 10 9 15 9 15 1 0 -17 30 -13 37 4
3 9 -3 23 -13 31 -18 15 -18 15 -1 10 12 -4 17 -2 15 6 -7 19 -27 21 -34 3 -4
-9 1 -22 12 -31 18 -15 18 -15 1 -10 -10 3 -21 6 -23 6 -2 0 -4 9 -4 19 0 11
-4 23 -10 26 -6 4 -10 -7 -10 -24 0 -41 -18 -40 -23 2 -4 31 -4 31 -5 -6z"/>
<path d="M5491 1272 c-6 -2 -11 -19 -11 -38 0 -20 4 -33 9 -30 4 3 6 17 3 31
-2 15 0 25 7 25 6 0 11 -13 11 -30 0 -16 5 -30 11 -30 7 0 9 10 7 25 -3 14 -1
28 3 31 5 3 9 -9 9 -25 0 -17 5 -31 10 -31 12 0 13 50 2 66 -7 10 -39 13 -61
6z"/>
<path d="M5578 1273 c-3 -4 -5 -23 -6 -40 -2 -30 0 -33 27 -33 37 0 57 30 41
60 -15 29 -20 25 -13 -10 3 -18 1 -30 -5 -30 -6 0 -12 12 -14 27 -3 26 -22 42
-30 26z m22 -43 c0 -5 -5 -10 -11 -10 -5 0 -7 5 -4 10 3 6 8 10 11 10 2 0 4
-4 4 -10z"/>
<path d="M5713 1273 c-7 -3 -13 -20 -13 -39 0 -22 4 -33 10 -29 6 4 8 15 5 25
-3 10 -1 21 5 25 6 4 10 -6 10 -24 0 -17 5 -31 10 -31 6 0 10 14 10 30 0 17 5
30 11 30 7 0 9 -10 5 -24 -3 -14 -1 -28 5 -31 7 -5 9 6 7 31 -3 33 -7 39 -28
40 -14 1 -31 0 -37 -3z"/>
<path d="M5794 1245 c1 -33 5 -40 21 -40 15 0 21 8 23 33 2 18 -1 32 -7 32 -6
0 -11 -14 -11 -32 0 -39 -16 -27 -23 17 -3 22 -4 19 -3 -10z"/>
<path d="M5854 1265 c-4 -9 1 -22 12 -31 17 -14 17 -15 2 -10 -12 3 -18 0 -18
-9 0 -20 29 -19 37 0 3 9 -3 23 -13 31 -18 15 -18 15 -1 10 12 -4 17 -2 15 6
-7 19 -27 21 -34 3z"/>
<path d="M2830 1265 c0 -7 30 -13 34 -7 3 4 -4 9 -15 9 -10 1 -19 0 -19 -2z"/>
<path d="M5650 1259 c0 -5 5 -7 10 -4 6 3 10 8 10 11 0 2 -4 4 -10 4 -5 0 -10
-5 -10 -11z"/>
<path d="M5683 1235 c0 -22 2 -30 4 -17 2 12 2 30 0 40 -3 9 -5 -1 -4 -23z"/>
<path d="M1275 1185 c-34 -112 -32 -296 5 -540 25 -163 9 -275 -52 -344 -68
-78 -50 -97 93 -99 114 -2 126 6 109 77 -9 40 -10 55 0 66 10 12 9 25 -4 64
-13 41 -14 63 -5 137 6 49 17 115 24 147 7 32 9 57 4 57 -5 0 -18 15 -29 32
l-20 33 -2 -185 c-2 -108 1 -198 7 -215 6 -16 10 -66 10 -110 l0 -80 -33 -3
c-28 -3 -33 0 -30 15 4 22 37 30 49 11 7 -10 9 -9 9 5 0 15 -7 18 -37 15 -33
-3 -38 -7 -41 -31 -5 -38 -28 -29 -24 9 2 22 0 26 -8 14 -5 -8 -10 -23 -10
-32 0 -10 -4 -18 -9 -18 -17 0 -21 18 -11 47 9 26 9 27 -5 9 -8 -11 -15 -28
-15 -39 0 -10 -5 -15 -11 -11 -6 3 -8 18 -5 33 5 25 4 24 -9 -4 -14 -30 -14
-30 -15 -4 0 28 51 84 65 72 4 -5 5 -3 2 3 -3 6 0 29 8 52 31 88 45 782 17
852 -8 23 -11 20 -27 -35z m20 -166 c-2 -19 -4 -70 -5 -114 -1 -52 -4 -71 -9
-55 -4 14 -6 59 -3 100 2 41 4 91 4 110 0 28 1 31 8 14 4 -11 6 -36 5 -55z"/>
<path d="M2750 1240 c-7 -17 -7 -100 0 -100 6 0 10 11 10 25 0 31 27 24 32 -8
2 -12 6 0 9 26 2 27 1 51 -3 53 -5 3 -8 -4 -8 -15 0 -28 -28 -27 -33 2 -2 12
-5 20 -7 17z"/>
<path d="M3012 1188 c2 -35 7 -44 24 -46 18 -3 22 3 26 32 3 24 0 36 -8 36 -7
0 -15 -15 -17 -32 -3 -29 -4 -27 -5 10 -1 23 -7 42 -13 42 -6 0 -9 -17 -7 -42z"/>
<path d="M5650 1216 c0 -9 5 -16 10 -16 6 0 10 4 10 9 0 6 -4 13 -10 16 -5 3
-10 -1 -10 -9z"/>
<path d="M60 1209 c0 -22 35 -51 57 -47 24 4 30 46 7 55 -10 4 -20 0 -26 -11
-9 -16 -11 -16 -24 1 -11 15 -13 16 -14 2z m70 -19 c0 -5 -7 -10 -16 -10 -8 0
-12 5 -9 10 3 6 10 10 16 10 5 0 9 -4 9 -10z"/>
<path d="M2820 1205 c-11 -13 -10 -14 4 -9 9 3 16 2 16 -4 0 -5 -7 -13 -16
-16 -22 -8 -12 -31 14 -32 18 -1 22 4 22 26 0 36 -23 56 -40 35z m25 -45 c-3
-5 -10 -10 -16 -10 -5 0 -9 5 -9 10 0 6 7 10 16 10 8 0 12 -4 9 -10z"/>
<path d="M2898 1212 c-25 -3 -28 -7 -26 -40 l1 -37 4 33 c5 40 23 42 23 2 0
-16 4 -30 9 -30 4 0 6 11 4 24 -3 13 0 27 6 30 7 5 11 -4 11 -23 0 -17 5 -31
10 -31 14 0 12 56 -2 67 -7 5 -25 7 -40 5z"/>
<path d="M2967 1212 c-3 -4 -5 -22 -5 -39 -1 -26 3 -33 19 -33 24 0 25 28 2
47 -17 14 -17 14 0 9 9 -3 17 -1 17 3 0 11 -28 22 -33 13z m23 -52 c0 -5 -4
-10 -10 -10 -5 0 -10 5 -10 10 0 6 5 10 10 10 6 0 10 -4 10 -10z"/>
<path d="M3118 1213 c-13 -3 -18 -14 -18 -39 0 -19 5 -34 10 -34 6 0 10 14 10
30 0 40 18 38 23 -2 l4 -33 1 37 c2 40 -3 47 -30 41z"/>
<path d="M3171 1206 c-6 -7 -10 -29 -9 -50 1 -31 4 -37 22 -34 17 2 22 11 24
44 3 44 -16 65 -37 40z m25 -42 c-5 -13 -10 -14 -18 -6 -6 6 -8 18 -4 28 5 13
10 14 18 6 6 -6 8 -18 4 -28z"/>
<path d="M3227 1212 c-3 -4 -5 -22 -5 -39 -1 -26 3 -33 19 -33 24 0 25 28 2
47 -17 14 -17 14 0 9 9 -3 17 -1 17 3 0 11 -28 22 -33 13z m23 -52 c0 -5 -4
-10 -10 -10 -5 0 -10 5 -10 10 0 6 5 10 10 10 6 0 10 -4 10 -10z"/>
<path d="M4620 1211 c0 -6 4 -13 10 -16 6 -3 7 1 4 9 -7 18 -14 21 -14 7z"/>
<path d="M3083 1175 c0 -22 2 -30 4 -17 2 12 2 30 0 40 -3 9 -5 -1 -4 -23z"/>
<path d="M312 1179 c-18 -47 -22 -79 -12 -79 5 0 10 7 10 15 0 20 17 19 28 -1
6 -10 19 -14 38 -12 23 2 30 8 32 31 3 22 -1 30 -17 34 -11 3 -22 12 -24 22
-3 9 -6 -6 -7 -34 l-2 -50 -11 42 c-15 53 -24 62 -35 32z m18 -24 c0 -8 -4
-15 -10 -15 -5 0 -7 7 -4 15 4 8 8 15 10 15 2 0 4 -7 4 -15z m66 -31 c-5 -13
-10 -14 -18 -6 -6 6 -8 18 -4 28 5 13 10 14 18 6 6 -6 8 -18 4 -28z"/>
<path d="M450 1187 c0 -9 -7 -17 -15 -17 -10 0 -15 -11 -15 -35 0 -30 3 -35
23 -35 20 0 22 5 22 45 -1 41 -15 80 -15 42z m0 -52 c0 -14 -4 -25 -10 -25 -5
0 -10 11 -10 25 0 14 5 25 10 25 6 0 10 -11 10 -25z"/>
<path d="M587 1177 c-3 -10 -13 -13 -25 -10 -25 6 -36 -11 -28 -43 7 -28 36
-30 44 -4 5 13 3 13 -11 1 -15 -12 -17 -11 -17 11 0 17 6 24 20 24 15 0 20 -7
20 -27 0 -24 4 -27 35 -27 24 0 36 5 40 18 8 26 -4 50 -26 50 -15 0 -19 -7
-19 -31 0 -19 -4 -28 -11 -23 -6 3 -9 17 -6 30 5 28 -7 53 -16 31z m63 -42 c0
-14 -4 -25 -10 -25 -5 0 -10 11 -10 25 0 14 5 25 10 25 6 0 10 -11 10 -25z"/>
<path d="M4276 1173 c-6 -14 -5 -15 5 -6 7 7 10 15 7 18 -3 3 -9 -2 -12 -12z"/>
<path d="M481 1138 c-1 -32 2 -38 19 -38 17 0 20 6 19 38 -1 20 -3 28 -6 17
-10 -45 -17 -50 -23 -15 l-7 35 -2 -37z"/>
<path d="M680 1151 c0 -11 -3 -26 -6 -35 -3 -9 -1 -16 5 -16 6 0 11 14 11 30
0 17 5 30 10 30 10 0 14 -13 11 -42 -2 -12 5 -18 18 -18 31 0 36 21 10 42
l-24 19 24 -6 c16 -5 21 -4 17 4 -4 6 -23 11 -42 11 -27 0 -34 -4 -34 -19z
m60 -31 c0 -5 -4 -10 -10 -10 -5 0 -10 5 -10 10 0 6 5 10 10 10 6 0 10 -4 10
-10z"/>
<path d="M4706 1162 c-3 -5 1 -9 9 -9 8 0 12 4 9 9 -3 4 -7 8 -9 8 -2 0 -6 -4
-9 -8z"/>
<path d="M67 1144 c-13 -13 -7 -42 10 -48 19 -8 30 1 35 29 2 14 -3 21 -17 23
-12 2 -24 0 -28 -4z m33 -24 c0 -5 -4 -10 -10 -10 -5 0 -10 5 -10 10 0 6 5 10
10 10 6 0 10 -4 10 -10z"/>
<path d="M4639 1133 c-13 -16 -12 -17 4 -4 16 13 21 21 13 21 -2 0 -10 -8 -17
-17z"/>
<path d="M122 1118 c2 -6 10 -14 16 -16 7 -2 10 2 6 12 -7 18 -28 22 -22 4z"/>
<path d="M4132 1108 c-7 -7 -12 -29 -12 -50 0 -29 -4 -38 -16 -38 -10 0 -152
-37 -318 -81 -166 -45 -321 -86 -346 -91 -25 -6 -49 -15 -55 -20 -13 -13 26
-5 200 42 77 21 210 57 295 79 85 22 171 45 190 51 19 5 37 10 40 10 3 0 5
-33 5 -73 1 -94 36 -354 51 -375 10 -14 13 -12 29 11 19 30 34 114 18 104 -6
-4 -14 -21 -18 -39 l-7 -33 -9 30 c-6 17 -12 52 -15 79 -3 26 -9 67 -13 91 -4
23 -9 77 -10 121 -1 43 -5 82 -7 86 -3 4 2 8 10 8 9 0 16 4 16 10 0 5 -7 7
-16 3 -14 -5 -15 -3 -5 16 7 12 9 26 6 31 -3 5 -1 11 4 15 5 3 14 -3 20 -12 8
-14 11 -15 12 -3 0 8 4 4 8 -9 8 -28 31 -40 31 -16 0 47 -58 83 -88 53z"/>
<path d="M4690 1100 c-21 -21 -27 -60 -10 -60 6 0 10 8 10 18 0 15 2 15 11 2
9 -12 10 -11 6 6 -3 16 0 21 12 20 21 -3 46 -55 33 -68 -6 -6 -7 -22 0 -45 6
-24 6 -44 0 -58 -5 -12 -8 -35 -5 -51 3 -17 1 -24 -4 -17 -5 6 -9 -10 -10 -40
-2 -66 -12 -158 -19 -177 -4 -11 -11 -4 -25 23 -21 40 -20 40 -43 31 -10 -4
-16 -18 -16 -38 -1 -26 -2 -28 -11 -13 -6 10 -8 25 -5 33 3 8 2 13 -3 10 -8
-6 -18 48 -24 136 -2 21 -8 43 -15 50 -16 16 -15 28 3 28 19 0 20 26 1 33 -9
4 -13 22 -11 63 1 47 6 61 26 77 l24 19 9 -26 c6 -14 14 -26 20 -26 5 0 19 -8
30 -17 20 -18 20 -18 3 7 -10 14 -22 37 -28 52 -20 52 -70 43 -95 -17 -18 -44
-18 -156 0 -248 8 -40 22 -114 32 -164 9 -51 20 -93 26 -93 13 0 38 64 38 100
0 42 16 30 24 -19 6 -38 39 -91 50 -81 3 3 15 71 27 150 25 166 30 380 9 405
-17 21 -46 19 -70 -5z"/>
<path d="M4262 1101 c-6 -3 -15 -18 -21 -31 -6 -14 -18 -36 -28 -50 -9 -14 3
-6 29 18 l45 44 22 -30 c11 -17 21 -34 21 -39 0 -4 -5 -1 -10 7 -5 8 -10 10
-10 4 0 -6 3 -14 7 -17 12 -13 2 -131 -23 -256 -24 -127 -37 -164 -32 -98 1
20 -1 39 -5 43 -4 4 -7 0 -7 -10 0 -9 -4 -15 -8 -12 -12 7 2 -74 17 -101 6
-13 15 -23 20 -23 12 0 71 338 71 410 0 42 -6 77 -18 99 -17 35 -50 55 -70 42z"/>
<path d="M88 1082 c-35 -4 -36 -25 -3 -40 33 -15 35 -15 35 2 0 8 8 16 18 18
28 6 -17 25 -50 20z m22 -32 c0 -5 -2 -10 -4 -10 -3 0 -8 5 -11 10 -3 6 -1 10
4 10 6 0 11 -4 11 -10z"/>
<path d="M4717 1036 c-4 -10 -1 -13 9 -9 15 6 19 23 5 23 -5 0 -11 -7 -14 -14z"/>
<path d="M4606 1025 c-9 -26 -7 -32 5 -12 6 10 9 21 6 23 -2 3 -7 -2 -11 -11z"/>
<path d="M88 1012 c-34 -4 -35 -16 -6 -36 28 -20 38 -20 38 -1 0 8 5 15 10 15
14 0 12 17 -2 22 -7 2 -25 2 -40 0z m22 -22 c0 -5 -4 -10 -10 -10 -5 0 -10 5
-10 10 0 6 5 10 10 10 6 0 10 -4 10 -10z"/>
<path d="M4632 978 c5 -15 28 -23 28 -10 0 5 -7 13 -16 16 -10 4 -14 1 -12 -6z"/>
<path d="M4701 964 c0 -11 3 -14 6 -6 3 7 2 16 -1 19 -3 4 -6 -2 -5 -13z"/>
<path d="M60 930 c0 -16 5 -30 11 -30 6 0 9 9 6 20 -5 19 -4 19 25 4 16 -8 35
-13 41 -11 10 3 -62 47 -78 47 -3 0 -5 -13 -5 -30z"/>
<path d="M3109 893 c-13 -16 -12 -17 4 -4 16 13 21 21 13 21 -2 0 -10 -8 -17
-17z"/>
<path d="M63 878 c2 -8 17 -12 38 -10 55 6 59 22 5 22 -34 0 -46 -4 -43 -12z"/>
<path d="M2672 868 c-29 -29 -4 -96 32 -82 20 8 22 54 1 54 -8 0 -15 -4 -15
-10 0 -5 5 -10 10 -10 6 0 10 -4 10 -10 0 -5 -7 -10 -15 -10 -10 0 -15 10 -15
28 0 36 9 45 28 29 13 -10 14 -9 10 3 -6 20 -30 24 -46 8z"/>
<path d="M2840 836 c0 -62 15 -66 17 -5 0 27 -3 49 -8 49 -5 0 -9 -20 -9 -44z"/>
<path d="M3221 828 c1 -55 5 -50 11 15 2 20 0 37 -4 37 -4 0 -7 -24 -7 -52z"/>
<path d="M69 849 c-12 -7 -12 -9 1 -9 10 0 11 -3 4 -8 -9 -5 -9 -10 0 -17 13
-12 51 -13 62 -2 4 4 1 7 -7 7 -12 0 -12 2 -1 9 10 6 6 11 -16 19 -17 6 -35 6
-43 1z"/>
<path d="M2738 853 c-9 -17 -7 -62 2 -68 5 -3 18 -1 28 4 13 7 22 7 30 -1 5
-5 15 -7 21 -4 16 10 13 36 -4 42 -8 4 -15 10 -15 15 0 4 7 5 17 2 11 -4 14
-3 9 5 -10 17 -33 15 -40 -3 -3 -9 3 -19 15 -26 11 -6 18 -13 16 -16 -11 -10
-48 19 -45 35 3 17 -27 30 -34 15z m22 -13 c0 -5 -5 -10 -11 -10 -5 0 -7 5 -4
10 3 6 8 10 11 10 2 0 4 -4 4 -10z m0 -30 c0 -5 -5 -10 -11 -10 -5 0 -7 5 -4
10 3 6 8 10 11 10 2 0 4 -4 4 -10z"/>
<path d="M2883 853 c-7 -3 -12 -19 -12 -36 2 -31 2 -31 6 -4 5 30 23 37 23 8
0 -22 25 -45 40 -36 5 3 10 19 10 35 0 33 -15 47 -34 30 -8 -6 -16 -7 -18 -2
-1 5 -9 7 -15 5z m57 -33 c0 -11 -4 -20 -10 -20 -5 0 -10 9 -10 20 0 11 5 20
10 20 6 0 10 -9 10 -20z"/>
<path d="M2967 854 c-10 -10 -8 -46 3 -64 8 -13 12 -13 27 3 17 18 17 18 -2
15 -13 -2 -20 3 -20 12 0 9 7 14 19 12 11 -2 17 1 14 10 -5 15 -30 22 -41 12z"/>
<path d="M3022 818 c1 -37 2 -39 5 -10 2 17 8 32 13 32 5 0 11 -15 13 -32 3
-29 4 -27 5 10 2 36 -1 42 -18 42 -17 0 -20 -6 -18 -42z"/>
<path d="M3082 848 c-15 -15 -15 -41 -1 -55 12 -12 39 -7 39 8 0 4 -6 6 -14 3
-8 -3 -17 -1 -21 5 -3 7 3 11 15 11 15 0 20 5 18 17 -4 21 -21 26 -36 11z m23
-8 c3 -5 -1 -10 -10 -10 -9 0 -13 5 -10 10 3 6 8 10 10 10 2 0 7 -4 10 -10z"/>
<path d="M3130 818 c0 -22 4 -37 9 -34 4 3 6 16 4 30 -3 13 0 27 6 30 7 5 11
-6 11 -30 0 -41 15 -37 23 6 4 24 4 24 6 -2 0 -16 6 -28 12 -28 6 0 9 14 7 33
-3 30 -6 32 -40 33 -38 1 -38 0 -38 -38z"/>
<path d="M3251 855 c-4 -11 0 -69 4 -73 1 -1 10 0 19 4 11 4 16 17 14 43 l-1
36 -4 -32 c-2 -18 -8 -33 -13 -33 -5 0 -11 15 -13 33 -2 17 -5 28 -6 22z"/>
<path d="M3305 849 c-4 -5 1 -20 12 -31 16 -20 17 -21 1 -15 -19 7 -25 -8 -8
-18 11 -7 40 12 40 26 0 4 -9 11 -20 14 -11 4 -18 10 -15 15 3 5 13 6 22 3 11
-4 14 -3 9 5 -9 15 -33 16 -41 1z"/>
<path d="M4495 840 c3 -5 8 -10 11 -10 2 0 4 5 4 10 0 6 -5 10 -11 10 -5 0 -7
-4 -4 -10z"/>
<path d="M3405 770 c-3 -6 1 -7 9 -4 18 7 21 14 7 14 -6 0 -13 -4 -16 -10z"/>
<path d="M40 750 c0 -6 28 -10 65 -10 37 0 65 4 65 10 0 6 -28 10 -65 10 -37
0 -65 -4 -65 -10z"/>
<path d="M2530 746 c0 -2 7 -7 16 -10 8 -3 12 -2 9 4 -6 10 -25 14 -25 6z"/>
<path d="M5405 720 c3 -5 8 -10 11 -10 2 0 4 5 4 10 0 6 -5 10 -11 10 -5 0 -7
-4 -4 -10z"/>
<path d="M80 696 c0 -9 5 -16 10 -16 6 0 10 4 10 9 0 6 -4 13 -10 16 -5 3 -10
-1 -10 -9z"/>
<path d="M115 690 c-10 -11 -29 -20 -42 -20 -12 0 -23 -4 -23 -10 0 -5 20 -10
45 -10 25 0 45 5 45 10 0 6 -5 10 -12 10 -6 0 -4 6 7 13 11 8 14 16 8 20 -6 4
-18 -2 -28 -13z"/>
<path d="M2650 679 c0 -5 5 -7 10 -4 6 4 10 -10 10 -34 0 -23 5 -41 10 -41 6
0 10 18 10 40 0 22 5 40 10 40 6 0 10 -18 10 -40 0 -22 5 -40 10 -40 6 0 10
19 8 45 -3 45 -3 45 -40 45 -21 0 -38 -5 -38 -11z"/>
<path d="M2741 649 c-1 -52 21 -73 39 -38 13 24 4 59 -15 59 -7 0 -16 6 -18
13 -3 6 -6 -9 -6 -34z m29 -19 c0 -11 -4 -20 -10 -20 -5 0 -10 9 -10 20 0 11
5 20 10 20 6 0 10 -9 10 -20z"/>
<path d="M2798 653 c5 -59 10 -63 11 -10 1 26 -3 47 -7 47 -4 0 -6 -17 -4 -37z"/>
<path d="M2878 683 c-2 -5 -1 -26 3 -48 l6 -40 2 48 c1 44 -3 57 -11 40z"/>
<path d="M2900 644 c0 -35 3 -45 14 -41 7 3 18 1 24 -5 17 -17 32 1 29 35 -2
21 -8 33 -20 35 -23 5 -23 -27 0 -43 16 -12 15 -13 -10 -12 -27 2 -28 4 -25
40 2 20 0 37 -4 37 -5 0 -8 -21 -8 -46z m55 6 c3 -5 1 -10 -4 -10 -6 0 -11 5
-11 10 0 6 2 10 4 10 3 0 8 -4 11 -10z"/>
<path d="M3122 645 c0 -36 4 -45 17 -43 9 1 22 -1 29 -5 13 -9 32 -1 32 13 0
5 -6 7 -14 4 -8 -3 -17 -1 -21 5 -3 7 3 11 15 11 26 0 24 33 -2 38 -12 2 -20
-7 -27 -30 l-9 -33 -1 43 c-1 23 -5 42 -11 42 -5 0 -9 -20 -8 -45z m63 5 c3
-5 1 -10 -4 -10 -6 0 -11 5 -11 10 0 6 2 10 4 10 3 0 8 -4 11 -10z"/>
<path d="M3248 653 c5 -59 10 -63 11 -10 1 26 -3 47 -7 47 -4 0 -6 -17 -4 -37z"/>
<path d="M2827 663 c-7 -13 -3 -68 6 -65 4 1 13 2 20 2 9 0 12 11 9 35 -4 32
-24 47 -35 28z m23 -13 c0 -5 -5 -10 -11 -10 -5 0 -7 5 -4 10 3 6 8 10 11 10
2 0 4 -4 4 -10z m0 -30 c0 -5 -4 -10 -10 -10 -5 0 -10 5 -10 10 0 6 5 10 10
10 6 0 10 -4 10 -10z"/>
<path d="M3013 650 c3 -11 1 -23 -4 -26 -19 -12 11 -31 41 -26 26 4 30 9 30
34 0 19 4 27 11 22 6 -3 9 -17 6 -30 -2 -13 0 -24 5 -24 5 0 8 15 6 33 -2 24
-8 33 -25 35 -18 3 -22 -3 -26 -30 l-4 -33 -1 33 c-2 25 -6 32 -23 32 -16 0
-20 -5 -16 -20z m27 0 c0 -5 -5 -10 -11 -10 -5 0 -7 5 -4 10 3 6 8 10 11 10 2
0 4 -4 4 -10z m0 -30 c0 -5 -4 -10 -10 -10 -5 0 -10 5 -10 10 0 6 5 10 10 10
6 0 10 -4 10 -10z"/>
<path d="M3210 635 c0 -19 4 -35 9 -35 4 0 6 11 3 25 -2 15 0 25 7 25 6 0 11
5 11 10 0 6 -7 10 -15 10 -10 0 -15 -11 -15 -35z"/>
<path d="M3277 663 c-11 -10 -8 -61 4 -69 19 -11 42 22 35 50 -6 25 -25 34
-39 19z m28 -43 c-3 -6 -10 -10 -16 -10 -10 0 -12 33 -2 44 9 9 26 -22 18 -34z"/>
<path d="M3331 633 c2 -31 3 -33 6 -10 2 15 9 27 14 27 5 0 9 5 9 10 0 6 -7
10 -15 10 -11 0 -15 -10 -14 -37z"/>
<path d="M5330 650 c0 -5 5 -10 11 -10 5 0 7 5 4 10 -3 6 -8 10 -11 10 -2 0
-4 -4 -4 -10z"/>
<path d="M1150 639 c0 -5 5 -7 10 -4 6 3 10 8 10 11 0 2 -4 4 -10 4 -5 0 -10
-5 -10 -11z"/>
<path d="M82 625 c2 -13 12 -21 31 -23 22 -3 27 1 27 19 0 22 0 22 -14 3 -15
-19 -15 -19 -31 1 l-16 20 3 -20z"/>
<path d="M5270 591 c0 -6 4 -13 10 -16 6 -3 7 1 4 9 -7 18 -14 21 -14 7z"/>
<path d="M92 581 c-23 -14 -10 -46 18 -46 16 0 26 6 28 19 3 16 -12 36 -28 36
-3 0 -11 -4 -18 -9z m33 -20 c7 -12 -12 -24 -25 -16 -11 7 -4 25 10 25 5 0 11
-4 15 -9z"/>
<path d="M3200 540 c-12 -16 -19 -30 -16 -30 2 0 14 14 26 30 12 17 19 30 16
30 -2 0 -14 -13 -26 -30z"/>
<path d="M4157 455 c-4 -49 -12 -108 -17 -130 -13 -58 -5 -54 14 7 12 36 16
79 14 133 l-3 80 -8 -90z"/>
<path d="M4265 485 c-6 -44 -2 -70 19 -135 45 -140 38 -152 -88 -149 l-85 2
-21 43 c-26 58 -25 70 8 82 l27 10 -27 1 c-41 1 -50 -24 -27 -83 10 -27 24
-53 31 -58 16 -10 189 -10 204 0 24 16 24 51 -2 128 -20 64 -25 92 -21 147 5
80 -9 90 -18 12z"/>
<path d="M4605 457 c0 -63 -5 -94 -22 -134 -48 -109 -29 -133 100 -133 51 0
98 4 105 8 7 5 21 31 32 59 24 64 11 89 -43 88 l-35 -2 -7 83 c-4 46 -5 90 -1
99 3 8 1 15 -4 15 -15 0 -11 -169 5 -210 11 -28 14 -31 14 -12 1 19 4 21 21
12 10 -6 25 -9 32 -8 19 4 12 -62 -11 -92 -16 -23 -26 -25 -101 -28 -54 -2
-87 1 -97 10 -18 15 -14 54 16 153 16 52 20 83 16 123 -10 78 -20 63 -20 -31z"/>
<path d="M60 509 c0 -11 21 -15 52 -11 41 6 34 17 -12 17 -22 0 -40 -3 -40 -6z"/>
<path d="M2856 501 c-10 -15 4 -39 27 -45 18 -4 19 -8 9 -18 -10 -10 -15 -10
-22 2 -5 8 -12 11 -16 7 -12 -12 21 -38 39 -31 24 9 21 39 -5 57 -13 8 -20 18
-16 22 4 4 15 2 24 -6 15 -12 17 -12 12 1 -5 17 -43 26 -52 11z"/>
<path d="M2973 465 c3 -58 17 -59 17 0 0 25 -4 45 -10 45 -5 0 -8 -20 -7 -45z"/>
<path d="M2924 476 c-8 -22 -1 -59 13 -63 16 -6 35 34 28 57 -7 23 -33 27 -41
6z m26 -21 c0 -14 -4 -25 -10 -25 -11 0 -14 33 -3 43 11 11 13 8 13 -18z"/>
<path d="M3007 483 c-11 -10 -8 -61 4 -69 6 -3 18 1 27 11 16 16 16 17 -5 10
-14 -4 -23 -2 -23 4 0 6 9 11 21 11 15 0 19 4 15 16 -3 9 -6 18 -6 20 0 7 -26
5 -33 -3z m23 -13 c0 -5 -5 -10 -11 -10 -5 0 -7 5 -4 10 3 6 8 10 11 10 2 0 4
-4 4 -10z"/>
<path d="M3059 453 c4 -21 10 -37 14 -35 4 1 12 2 17 2 6 0 9 17 8 38 -1 36
-1 36 -5 5 -5 -41 -23 -43 -23 -3 0 17 -4 30 -8 30 -5 0 -6 -17 -3 -37z"/>
<path d="M3114 478 c-4 -6 0 -16 9 -23 21 -15 22 -29 2 -21 -16 6 -21 -9 -6
-18 14 -9 41 5 41 20 0 8 -7 17 -15 20 -8 4 -15 10 -15 15 0 4 7 5 17 2 11 -4
14 -3 9 5 -9 15 -33 15 -42 0z"/>
<path d="M50 471 c0 -41 44 -57 55 -21 4 11 10 18 15 15 5 -3 7 -12 3 -20 -3
-8 0 -15 6 -15 6 0 11 11 11 25 0 18 -5 25 -20 25 -11 0 -23 -7 -26 -15 -4 -8
-10 -15 -15 -15 -5 0 -9 7 -9 15 0 8 -4 15 -10 15 -5 0 -10 -4 -10 -9z"/>
<path d="M92 391 c-20 -12 -10 -46 15 -49 24 -4 51 32 33 43 -5 3 -10 -1 -10
-9 0 -10 -9 -16 -22 -16 -17 0 -19 3 -9 9 7 5 12 14 10 20 -2 6 -9 7 -17 2z"/>
<path d="M3991 324 c0 -11 3 -14 6 -6 3 7 2 16 -1 19 -3 4 -6 -2 -5 -13z"/>
<path d="M83 310 c-3 -13 -11 -19 -19 -16 -8 3 -14 -1 -14 -10 0 -11 6 -14 16
-10 9 3 29 6 46 6 25 0 29 3 26 23 -4 31 -47 37 -55 7z m45 -8 c2 -7 -6 -12
-17 -12 -21 0 -27 11 -14 24 9 9 26 2 31 -12z"/>
<path d="M84 245 c-8 -19 3 -35 25 -35 26 0 44 23 29 38 -17 17 -47 15 -54 -3z
m41 -4 c7 -12 -12 -24 -25 -16 -11 7 -4 25 10 25 5 0 11 -4 15 -9z"/>
<path d="M3920 249 c0 -5 5 -7 10 -4 6 3 10 8 10 11 0 2 -4 4 -10 4 -5 0 -10
-5 -10 -11z"/>
<path d="M50 189 c0 -5 6 -9 14 -9 7 0 16 -9 19 -20 3 -12 14 -20 26 -20 22 0
44 30 33 46 -9 12 -92 16 -92 3z m80 -18 c0 -18 -18 -21 -30 -6 -10 13 -9 15
9 15 11 0 21 -4 21 -9z"/>
<path d="M716 187 c3 -10 9 -15 12 -12 3 3 0 11 -7 18 -10 9 -11 8 -5 -6z"/>
<path d="M92 122 c-24 -8 -41 -19 -40 -24 6 -16 81 -39 92 -28 7 7 4 10 -7 10
-22 0 -22 26 -1 38 29 16 0 19 -44 4z m8 -22 c0 -5 -5 -10 -11 -10 -5 0 -7 5
-4 10 3 6 8 10 11 10 2 0 4 -4 4 -10z"/>
</g>
</svg>
